<svg id="Layer_1" data-name="Layer 1" xmlns="http://www.w3.org/2000/svg" viewBox="0 0 800.76 799.75">
  <defs>
    <style>
      .cls-1 {
        fill: #dfb19d;
      }

      .cls-2 {
        fill: #260e03;
      }

      .cls-3 {
        fill: #ec5516;
      }

      .cls-4 {
        fill: #f4aa8a;
      }

      .cls-5 {
        fill: #fda468;
      }

      .cls-6 {
        fill: #f18646;
      }
    </style>
  </defs>
  <g>
    <path class="cls-1" d="M.1,189.84Q.1,97,0,4.15C0,.68.68,0,4.16,0Q400.39.15,796.61,0c3.47,0,4.16.68,4.15,4.15q-.18,151.19-.1,302.37c-5.55.19-8.88,4.56-13.23,7a21.91,21.91,0,0,0-6.76,1.31c-5.5,1.67-10.45,5.28-16.56,4.84l-21.23,0c-7.47-2.77-14.93-4-22.49-.26-.83.41-2,.2-3,.28-1.52,0-3-.08-4.56,0-4.46.28-4.87-1.55-3-5.15,1.61-3.16,2.75-6.54,5.88-8.66.95-.65,2.14-1.57.79-2.81-1-.94-2.29-.51-3.22.31a10.22,10.22,0,0,0-1.85,2.36c-1.42,2.26-3.14,2.19-4.28.09-2.28-4.2-4.12-3.14-6.79-.27-3.37,3.61-6.83,2.44-9.55-1.92-2.09-3.35-2.13-8.09-6.32-10-2.41-1.11-3.72-2.65-3.63-5.44.08-2.47-1.92-3.8-3.63-2.6-4.05,2.86-9.78,2.63-12.76,7.4-4,6.49-7.49,13.58-15.41,16.47-.26.09-.35.58-.59.81-1.89,1.81-4.17,2-5.84.18a14,14,0,0,0-7.79-4.34c-1.25-.27-3-.83-2.76-2.43s2.19-1.16,3.44-1.19c3.4-.08,6.74.15,9-3.3a67.67,67.67,0,0,1,13.59-15.53c2.72-2.23,4.41-5.21,1.89-9.32a30.08,30.08,0,0,1-4.33-10.72c-.18-1.16,0-2.62,1.39-2.93s1.39,1.09,1.6,2,.55,1.79,1.54,1.67c1.26-.15,1.32-1.33,1.4-2.36.38-4.86-5.76-12.74-10.49-13.25-3-.32-6.52,0-7.22-4-1.45-8.25-.57-10.81,4.65-13.17,4-1.79,4.42-5.32,4.8-8.79.25-2.28-1.91-3.26-3.37-1.94-4.29,3.86-10.79,5.29-12.8,11.72-1.08,3.48-3.88,6.22-7.18,6.54-8.48.83-13,8.2-20,11.58-5.81,2.8-12.5,6.44-16.82,11.43-5.1,5.91-12.57,4.16-18.31,8.35-6.61,4.83-17.11,2.26-23.44,9.6-1,1.13-3,1.59-4.65,1.84-14.11,2.14-28.3,1.78-42.43.64-11.6-.93-23-3.34-34.33-6.17-2-.5-4.27-.84-5.41,1.44-2.27,4.55-6.51,5.65-10.86,6.39a221,221,0,0,0-33.62,8.21c-16.64,5.64-30.61,16.08-44.82,26-11.63,8.1-21.49,18.42-33.18,26.47-1.68,1.15-2.33,1.42-4.12.1a62,62,0,0,1-12.39-11.58c-8-10.32-15.47-21-23.6-31.27-13.92-17.51-31.68-30.4-51.91-39.43-17.17-7.66-35.48-9.12-54-5.46a20.3,20.3,0,0,1-13.76-1.6c-4.5-2.29-7.18-6.69-12.07-8.72-10.07-4.2-20-9.31-30.67-11.14-11.36-2-22.52-5.05-34-6.17-4.17-.41-6.25-4.45-10.21-5.15-7.72-1.37-14.78-4.25-20.57-9.73a5.33,5.33,0,0,0-3.62-1.58c-6.55-.17-13.14,0-19.65-.64-6.93-.66-13.9-.56-20.5-4.38-3.06-1.77-4.88-4.8-7.89-5.95-2.76-1.06-4.86-3-7.37-4.2C10.4,195.52,6.44,190.38.1,189.84Z" transform="translate(0)"/>
    <path class="cls-2" d="M800.66,685q0,55.53.08,111.06c0,2.87-.39,3.7-3.57,3.7q-396.79-.16-793.59,0C.38,799.75,0,798.89,0,796Q.18,732.91.1,669.77c3.72-1.73,8.14.44,11.71-2.12l.35,5.18.11-.32L12,672.4c-2,.6-1.95,2.85-3.21,4.05L4.2,681a6.22,6.22,0,0,0,4.3-.88c4.37-3.18,6.13,3.24,9.78,2.53l-1,2.22c-1.06.39-1,1.36-1.11,2.21l-.87,1c-2,1.38-3.95,2.73-4.94,4.12,1.87,3.37,4.63-2,7.72,2.56,2.85,4.22-2.31,5-.88,7.7,2.6-1.71,6.12-3.94,5.62-6.5-.94-4.77,1.88-3.09,3.89-3.35,1.07-.13,2.35.65,3.41-.91-1.18-.86-2.37-1.73-3.57-2.59,1.89-1.8,4.49,0,6.53-1.34a9,9,0,0,0-5-4.29c-2.11-.93-3.65-2.29-4.09-4.65,1.05-1,3-.21,3.72-1.7-.26-1.66-3.05-1.91-2-3.77.75-1.34,2.46-.44,3.73-.64s2.9.65,4.13-.58c-1.52-2.49-6.48-2.21-5.78-4.93,1.14-4.4,5-6.58,10.11-6.24l-5.66-3.52c1.6-1.36,3.61-.15,5.1-1.92l-3.87-2.4c1.49-3.88,1.52-3.89,9.08-3.4L40,654.51c4-.79,7.34-1.55,9.76-4.59.66-.82,2.4-2.9,3.14.15.88,3.65,2.07,7.27.16,11.08-.95,1.91-1.23,4.17-1.83,6.32,4.62-.24,6.08-7.36,11.49-4.09,3-3.22,5.75-2.33,8.47.34l-.09-.1c.09,1.44-2.63,1.11-2,2.75,2,1.65,7.92-3.18,6.14,4,3.46-.31,6.32-1.9,9.08-3.94,1.5-1.1,2.52-1.71,3.57,1.4,1.44,4.24.62,7.7-.66,11.46-.48,1.4-1.69,2.69-.92,5.55,3.79-5.56,9.06-5.36,14.12-6.41,3.7-.76,3.57.67,3.61,3.06-2.08,2.19-4.3,4.28-5.19,7.67l6.64-.51c-.95,5.43,3.39,2.5,5.33,3.37a47.76,47.76,0,0,1-9.66,11.29c2.33-.19,4,.15,4.94-.5,3.45-2.28,3.12,2,4.88,2.71,1.53.6-.09,1.79-.71,2.59s-1,1.5,0,2.06a1.45,1.45,0,0,0,2.09-.75c.5-1,.9-2.16,2.4-2,1.14,1.88-1.08,3.74-.31,5.3h10.28a33.34,33.34,0,0,0-8.2-8.8c-2.1-1.57-2.51-3.19-.45-4.88,3.25-2.68.78-3.8-1.22-5.12-.16-.85-.37-1.59,1-1.51,2.27.12,4.55,0,6.82,0,.18-2.18-2.45-2-2.29-4.07l5.71-.45c-1.73-4.51-7.36-4.23-9.16-8.25.54-2,2.94-1.25,3.86-2.55-.15-1.67-3-1.95-2-3.76.86-1.65,2.73-.64,4.15-.74,1.23-.09,2.46,0,5,0l-7.7-5,5.2-1.21c-4.71-8.61,5-2.19,5.41-5.51l-5.24-3.57c1.35-1.44,3.42-.12,4.67-1.82l-3.47-2.15c-.92-2.09.11-3.16,2-3.59s3.91-1,5.43,0c2.21,1.47-1.86,2.78-.65,4.55,3.68-.45,6.85-1.64,9.32-4.51.67-.78,2.68-2.29,2.88-.18.24,2.7,2.9,4.19,2.64,6.87-2.69,3.27-2.88,7.37-4.31,11.07,4.83-.15,6-8.4,12-4.2.12.08.72-.58,1.13-.85,1.51-1,3.43-2.44,4.67-.45a4.41,4.41,0,0,1-1.18,5.89c-1.8,1.49-3.52,3.09-5.16,4.74a2.21,2.21,0,0,0-.45,1.84c.24.9,1.26.7,1.65.3,3.88-4,7.25-3.3,10.48.85.43.55,1.48.63,2.24.92-2.67,2.51-5.34,5-8,7.53-.68.64-1.93,1.14-1.27,2.36s1.8.31,2.72.43c1.57.22,4.1-1.34,4.55.22,1.07,3.73,4.43,2.51,6.53,3.85-1.29,4.66-4.27,8.93-3.36,14.44a17.17,17.17,0,0,0,6.36-3c1-.79,2.37-1.65.89-3.19-3-3.06-.67-3.22,1.84-3.53,1.18-.14,2.68.77,3.59-.77-.11-1.46-2.86-1.64-1.74-3.63l-.05.1,6.27-.42c-.72-2.39-1.34-4.4-1.95-6.42,2.78-1.44,1.52,2.26,3.06,2.4-1.21,3.32,3.09,3.83,3.27,6.44-3.43-.3-3.17,3.14-4.79,4.68l.22.11-.19-.26c3.82.72,3.46-2.74,4.66-4.64.44-2,3.09-.53,3.78-2.36l-4.82-4c2-.53,4.83.68,6-1.07,1.36-2-2.5-1.93-2.65-3.85a29.58,29.58,0,0,1,8.44-.28c3.56.19,1.66-1.67,1.07-3a4.18,4.18,0,0,0-2.06-3.29c-4.53-3.5-.67-7.95-1.23-11.89-.35-2.53,4.06-.93,5.69-2.34.09-1.49-2.32-2.55-1.31-3a15.54,15.54,0,0,1,9.56-.66c-.25,2.66-3,3.94-2.62,6.5,2.42.75,2.68-2.83,4.75-2.35,3.06,1-3.31,5.27,2.08,5.47l.78.81c.11,2.2-2.4,3.93-1.08,7a5.51,5.51,0,0,1,5.09-3.36l-.42,5,5.09-.83c0,2.68-1.8,4.55-2.91,6.74-2.9,3.71-2.85,4.32-.55,4.12,5-.42.68,2.73,1.26,3.47,3.79.91,4.72-1.41,5.48-3.92l.92.7c-.09,2.64,5.93.62,3.71,4.87l-.08,0c-1.69,1.87-4,3.37-4.25,6.55,2.66-.47,3.24-4,6.1-3.12.78,1.91-1,3.51-.53,5.45,3.25.69,5.09-1.46,6.82-3.6,2.83,3,5.12,5.89,6,10-.15-3.74,2.88-4.11,5.32-5.19l-4.13-3.35c1.56-1.69,4.19-.88,5.2-3l-4.27-3.46h.27l.06-.27,12.94.93a7,7,0,0,0-2.73-4.05c-.68-3.24-4.67-5-4-8.85l0,0c2.08-1.2,3.42-2.54.8-4.56a2.4,2.4,0,0,1-.87-2.57h6.77c.75-2-2.87-4.33-.46-4.45,5.27-.26,3.85-3.94,4.24-7,4.14,4.61,5.17,9.09,1,14.19,2.51-.36,3.07-1.73,4.08-2.53.63-.5,2.2-.45,1.92.41-1.23,3.85,5.47,6.62.37,10.87,3.24-.29,4.8-2,6.78-2.79.52,2-1.9,3.66-.66,6,1.43.09,3.44-1.75,4.4.07.81,1.54-.61,3.19-1.57,4.57-.77,1.1-1.77,2.05-2.46,3.19s-1.25,2.74.84,2.32c4.89-1,.38,2.82,2.5,3.7l8.14-2.22c-1.35-3.69,5-6.37.57-10.44l7.25-.64c-3.14-3.91-2.12-5.49,2.22-5.1a3.8,3.8,0,0,0,2.69-1.16c1.89.38,3.74.68,1.94,3.33a26.17,26.17,0,0,0-1.82,3.94c-.22.22-.68.55-.64.63.35.68.77.32,1.17,0,1.55-.1,2.56-2.15,4.73-1.17-1.68,2.28-1.41,3.89,1.57,4.32l.61.61c-.63,2.18-1.25,4.35-1.66,5.78,1.41,2.82,5.48-5.37,5.2,2.28,0,1,1.3.66,2.08.5,1.2-.24,2.44-1.57,3.54.17l-.57,1.59c-1.65,2.68-3.8,5.07-4.83,8.43l3.89.33c.27,1.66-1.9,2.16-1.06,3.65,3.86-.25,7.29-2.07,11.52-1.74l-7.06,10c3.11.82,4.74-2.89,7.62-2.57-1,2.88-1.88,5.53-2.9,8.57,3.63-1,5.34-3.53,7.38-5.67.66-.71,1.48-2.55,2.57-.67,2.78,4.8,6.14,2,9.61,1.27-1.09-2.54-4.32-2.55-5-5.46l5.94-.51c-.37-2.15-3.13-1.29-3.2-3.75,4.09-1,8.18.7,12.45.38-.11-1.78-1.38-2.57-1.95-3.71-1.49-3-4.8-5.12-4.63-9,.77-1.34,3.73-2,1.31-4.34s-1.08-3,1.47-3.06c1.32,0,2.63-.23,4-.36-1.75-3.78-1.75-3.77,2.25-4.29,1.65-.22,3.3-.58,4.93.13l.77,1c-.45,2.25-3.48,3.34-2.81,6.16,2.28-.39,2.71-3.64,4-3.41,3.93,1.65-1.38,5.26,2.56,5.7,2.62.29,1.64,1,1.28,2.26s-1.71,2.52-1.25,4.24c2.23.18,3.5-2.48,5.83-2,.06,1.91-2,3.42-.26,5.9,4.72-5.32,11-3.89,18-3.38a80.42,80.42,0,0,0-5.24-6.71c-2.39-2.42-3.86-4.63-.82-7.62,1.79-1.76,0-2.55-1.23-3.39.07-.53.15-1.07.22-1.6l.43.11.35-.27c1.79.1,3.89-.43,3.82-2.2-.12-3.28,1.95-3,3.87-3.08s3.92,0,5.91,0c0,.56.06,1-.1,1.17-3.41,4.06,5.89,4.55,2.4,8.6h2l1,.88c-.62,2.22-2.25,4.22-1.45,6.74l-.25,0,.16.08,5.65-3.15c.52,3.53.52,3.53,5,4.79l-5.95,10.31h4.65c0,1.71-2.12,2.08-1.43,3.91,5.41-1.31,11-2,16.26-4.39-1.29-1.85-3.3-3-3.9-5.35l5.91-.61-4.92-3.8h12.89c.21-.94-1-1.51-1.18-2.43-1-4.14-8.66-6.69-3-12.55.47-.49-.6-2.51-2-3.17,1.67-2.32,4.38-.66,6.74-1.84-2.53-3.19-.79-4.08,2.35-4.15,1.52,0,2.35-.93,1.45-2.23-1.07-1.52.14-3.08-.72-4.61,2.34.92,2.44,3.17,3.48,4.75l-.84,1.21c3.58,1.18,1.7,2.79.47,4.53-.43.61-1.78,1.2-.88,2.37,1.93-.23,3.1-2.18,5.25-1.85-.21,1.69-.71,4.72-.59,4.75,5.67,1.18.7,4.9,1.52,7.07,2.07.06,3.24-2.08,5.63-1.52-2.14,4-.53,4.14,2.88,3.2,2-.54,4.23,0,6.36,0a5.23,5.23,0,0,0,1.22-.27c.74-1.65-2.05-1.87-1.05-3.71,5.55.62,6.23-2.28,4.54-6.75a5.24,5.24,0,0,1-.14-1l1.16.17c.06,2.24,3.85,3.72,1.4,6.62a7,7,0,0,0,2.62,0,.57.57,0,0,0,.73.48l-.85,1.87,0-.05c-1.38,1.43-3.29,2.62-2.35,6.8L479,695.1l1.71-.52.24.19,2.15,9.72c.79,1.45,1.93.79,3,.51.32.32.9.63.9,1,0,1.51-2,3.3-.2,4.41,1.5.93,2.85-.85,4.11-1.81.27-.21.91.06,1.38.11a25.89,25.89,0,0,1-6.1,10.69c1.89,1,3.65-.7,5.07.59.63,1.93-2.24,2.38-1.76,4.23,5.78.2,10.13-1.7,11.91-7.58.29-3.11,2.84-3.84,5.33-4.59l-4.5-5.38,5.25-.71c0-2.32-3.68-1.55-2.5-4.3L517.1,703c-2-3.59-3.37-6.75-5.83-9.26-1.23-1.26-1.89-2.69-.55-3.93,2.47-2.29.86-4-.48-5.79,1.68-2.53,4.84-.3,6.58-1.81.73-1.56-2.56-2.77-.49-3.4,3.79-1.14,3.15-4.37,3.79-6.88,2.4.34,3.18,2.34,2.83,3.35-1.2,3.42,1.32,2.47,2.82,2.81l-2.85,4.53c1.79,1.19,3.16-1.13,4.59-.24,2,1.24-3.88,5.62,2.38,5.24,1-.06.31,1.26.16,2-.29,1.44-1.64,2.57-1.16,4.8,4.25-5.3,8.72.2,9.47,1.52,2.16,3.76-3.15,6.5-4.24,10.66l4.33-.81c.39,2.13-2.49,3.11-1.81,5.31,4,.65,7.17-2.9,11.47-2.65-.89,4.59-4.76,6.58-6.93,9.78,2.76,1.18,4.3-2.5,7.18-1.62-.76,3-1.47,5.87-2.22,8.9,3.38-1.15,5.16-3.4,6.69-6.13,1-1.72,2-3.48,3.94,0,1.67,3.08,3.36,5.89,3.47,9.47a2.74,2.74,0,0,0,1.17,2c.85.44,1.38-.55,2-1.14,4.77-4.86,4.75-5.29,0-9.8-1.27-1.2-3.51-1.29-4.05-3.55a51,51,0,0,1,7.58-1,8.19,8.19,0,0,0,7.1-4.27c.8-1.4-2.16-4.07-4.45-5.29l-3.28-4.74c1.71-.4,4,1.16,5.06-.53s-.23-3.36-1.8-4.49c2-2.49,4.14-.62,5.41.53,2.24,2,4.68,2.65,7.59,3.22-1.35-4.45-5-6.77-7-10.21l1.38-1.21c.48-.39,2,1.1,1.54-.61-.36-1.34-.57-3-2.07-3.84l-.22-1.12,1.44-.31c2.11.83,4.31,2.31,6-.68.47-3-2.27-5.91-.54-9,.62-1.73,1.09-4.09,3.29-1.18,1.38,1.84,2.56,3.84,4,6-1.78,1.28-6.51,2-2.07,5.17,3.27,2.3,1.66,3.14-.37,4.55-1.32.91-3.18,1.11-4,2.81,3.55,1.23,3.77,1.38,2.87,2.73-2.69,4.08.8,4.16,3.09,4.91,2.09.68,4.71-1.29,6.46,1.26l-4.54,2.79,4.54,1.75c-1.73,1.1-3.14,1.93-4.48,2.85-.92.64-2.93,1-1.08,2.71,1.21,1.13,3.19,2.47,4.16,1,2.32-3.54,5.63-7.16,2.81-12,.33-1.12.36-2.5,2.1-2.36,1.64,3.71,4.94,5.63,8.28,8,1.09-1.61-.74-4.21,1.29-4.59,3.66-.69,1.64-3.41,1.06-4-1.9-1.78-1-4.14-1.87-6,3.54.41,5,3.61,7.37,5.59,1.64,1.38,3.19,2,5,.86,2.07-1.31,0-2.62-.29-3.89s-1.49-2.79-1.11-3.73c1.62-4.11-1.14-5.31-3.85-6.83-1.4-.79-3.09-1.28-4.16-3.23,3.16-.46,6.11-1.3,9-1.2,3.48.12,3.41-3.67,6-4.74,1-.42-1.93-2.5-3.17-3.66a19.71,19.71,0,0,1-4.94-6.85,1.47,1.47,0,0,0,0-.75c1.58.5,3.19.94,4.74,1.53.84.32,1.71.58,2.32-.08,1-1-.08-1.75-.67-2.5s-1.44-.9-1.22-2c4.06-1.21,7.07,2.81,11.3,2.27-2.19-3.58-5.06-6.34-7.85-9.16-.56-4.72,3-.71,4.09-1.92.53-1.69-2.29-2.4-1.35-4.25,1.6.07,3.17.45,4.56.11s3.45-1.58,2.08-3.11c-2.07-2.32-.65-4.84-1.37-7.14,1.29-3.87,3.3-2,5.24-.67-.1,2.09,4.19,3.92,1.54,5.53-5.56,3.37-.67,4.68.84,6.85-2.56,1.92-6.44,3.51-2.41,7.5-.9.93-2.43,1.71-1.61,3.27.55,1.06,1.89,1.2,3.11,1.25,2.23.09,4.55-.44,6.93.6-4.54,4.06-4.54,4.06-.54,6.58-1.41,1.86-4.19,2-5.45,4.35,2,.77,3.8,1.52,2.83,4.27s.72,3.64,3.1,4.52c3,1.09,6.42,1.18,9.32,4-5,1.39-8.24,4.87-12.81,6.88,2.34,1.12,4.56,0,6.21,1.48-1.75,1.11-4,1.62-5.42,3.86l6.16.49c-.56,1.22-1,2.23-1.51,3.24-.83.42-1.9.6-1.93,1.86a.53.53,0,0,0,0,.81c.95,2.2-2.77,5.29.4,6.52a37.65,37.65,0,0,1,7,3.95c.26-4.37-2.18-7.66-2.56-11.39l5.05,4c1.75,1.33,2.7,4.9,5.85,2.47,1.56-1.2.08-10.18-1.68-11.74a25.24,25.24,0,0,0-6.86-4c2.7-2.19,6.06-2,9.11-1.94,3.68.07,4.46-3.22,6.33-4.92,1.2-1.08-2-2.53-3.14-3.78-1.55-1.63-3.28-3.06-4.08-5.3,3-1.11,5.13,1.3,7.68,1l.58.41-.47-.51c-.34-3-3.17-4.47-4.77-6.77,2.88-1.1,4.67,1,6.84,1.67,1,.31,1.93,1.66,3.1.4s-.18-2.46-.71-3.42c-1.31-2.32-4.11-3.8-4.08-7.06,1.46,0,2.57,1.61,3.84.3,0-1.6-2.21-2.14-1.85-4.2,2.47-.28,5.86,2,7.32-1.68.71-1.78-1.38-2.34-2.51-3.22,1.67-2.41.85-5.75,2.8-8.18,2.31,1.3,3.57,3.3,5,5.12.69.89,1.61,2.32.3,3.06-6.64,3.76-.6,4.78,1.34,6.68-2.53.91-5.45,1.92-6.63,4.14-.8,1.5,2.32,3.38,1,6.4-.75,1.65,9.51,1.31,14.38-1.91q-3-3.29-6.07-6.55c-.38-.95-.77-1.9-1.16-2.86l.7-.78,7.2,1.79c-1.14-2.82-4-3.8-4.16-6.88l11.31,4.64c.18-2.15-1.09-2.73-1.72-3.65-3.72-5.41-3.73-5.4-3-10.52.1-.72-1.18-1.32-.33-2.21,5.39.72,8.53-1.14,6.74-3.83-2.5-3.78-.2-6.6.17-10.3,1.79,2.08,3.23,3.66,4.56,5.34.67.83,1.9,1.71.12,2.81-5.58,3.46-.52,5.13,1.07,7.08-1.13,2.5-4.5,2.06-5.58,4.64,3.85,1.21.63,4.31,1.55,5.92,2.22,3.92,6.85.41,10,2.33-.71,1.74-3.06,1.84-3.23,3.82l3,1.62L712,665.4c3.38.35,5.07,1.74,4.26,4.93a1.39,1.39,0,0,0,.46,1.72c5.65,4.31,12,4.63,18.34,2.46,1.84-.63,6.21-3.16,4.12-5.55-2.58-3-5-6.08-7.49-9.09,3.25-1.93,5.74,2.15,9.21,1.18l-4-5.35c4.5-.53,7.33,3.26,11.54,2.48-2.28-3.25-4.48-6.34-6.62-9.47-.36-.53-1.52-1.88-.39-1.78,4.78.46.73-3.18,2-4.18,5.45,1,8-.44,6.42-3.41-1.87-3.55-.53-6.25.82-9.75,1.57,1.74,2.81,3.09,4,4.46.9,1,1.75,1.79,0,3.18-4.2,3.25-1.05,5.08,1.65,6.84-1.56,2.26-4.83,2.38-6.39,5.13,1.74.39,4.1.88,2.92,3-2.78,5.06,1.35,3.84,3.62,4.28,1.75.34,3.63-.4,5.71.69l-4.14,3.62c2.65.86,6.38,1.33,2,4.26a8.08,8.08,0,0,0-3.63,2.57c2.4,1.6,2.42,1.6,2.27,5.24a3.28,3.28,0,0,0,.75,2.79c1.9,1.84,10.9,3,14.13,1.42-2.25-1.11-3.09-3.17-4.5-4.78s-3-3.61-4.46-5.41c3.51-.78,6.33,2.11,9.74,1.83l.17.2-.14-.19c-1.52-2.79-5.4-3.94-5.77-7.72,4.38-.73,6.23,5.2,10.71,3.37,0-2.3-1.46-3.69-2.72-5.22a22,22,0,0,1-1.81-3c4.38-1.45.43-4.19.82-6.16,1.55-.92,3.16-.11,4.56-.54s4-1.32,2.46-3.24c-3-3.69.21-6.59.12-10,2.88.63,3,3.39,4.6,4.8.77.68,2.26,2.13,1,2.89-5.56,3.31-.61,4.78.44,6.11,1,3.79-8.3,3.3-2.24,8.41-1.18.94-2.45,1.69-1.38,3.66.84,1.57,2.09,1.44,3.41,1.46,2.11,0,4.21,0,6.86,0-1.14,2.32-3.46,2.65-3.89,4.53.89.92,2.59,0,3.43,1.66-1.66,1.08-3.2,2-4.71,3.08-1,.68-2,2.36-.74,2.59,3.54.63,2.5,2.61,2.14,4.71-.31,1.8,1.13,2.15,2.45,2.57C796.26,683.48,798.46,684.25,800.66,685Zm-738.31-9.8c1.95.22,2.89-1.38,4.2-2.33,1.13-.82,3.25-.41,3.32-2.41,0-.49-1.11-1.19-1.84-1.51-2.12-.93-3,.92-4.06,2.1s-2.54,1.88-2,3.77l-.7.52C61.68,675.83,62,675.65,62.35,675.19ZM765,694.71c-1.2-2,2.21-3.3.55-5.54-2.42.31-4.16,2-6.23,3.3,1.76,1.59,4.7-.84,5.6,2.22-1,1-2.54,1.55-2.88,3.32-.27,1.43.48,2.2,1.25,3.08,1,1.16,2.12.52,3.25.2.94-.27,1.78-.91,1.2-1.72C766.67,698,767.7,695.3,765,694.71Zm-47.86-4.66c1.35.52,3.2.17,4.22,1.54-4.1,3.92-3.85,7.7.56,10.13.7-1.73-1-5,.35-5,5.64-.05,1.4-3,1.51-4.49.09-1.22-1-2.47-.25-4,2.72.85,4.21,3.24,6.16,5,1.44,1.28,2.7,1.81,4.46.84,2.25-1.24.52-2.59.09-3.82-.66-1.89-1.87-3.66-1-5.78.74-1.83-.23-2.69-1.63-3.65-4.49-3.06-8.7-2.25-15.8,3.26,1.37,1,3.84-.32,4.48,1.47C721.12,687.83,718.16,688.15,717.17,690.05ZM31.51,712.42c-1.78-1.32-2.2-3.4-3.63-4.8-5.65-5.53-6.4-5.34-8.53,2.32-.31,1.11-1.21,2.29.12,3.08,1,.6,2.18.19,3.29-.45.93-.54,1.83-2.75,3.14-.88C27.48,713.93,29.39,712.83,31.51,712.42Zm464.35,18.69L501,729c.71,1,.13,1.73-.13,2.49-.34,1-.78,2.26.51,2.49a6.45,6.45,0,0,0,3.87-.69,3.22,3.22,0,0,0,.86-2.54c-2.21-1.66-1.56-5.67-4.65-6.2-2.79-.48-3.07,3-4.88,4.21C496.26,728.92,496.28,729.61,495.86,731.11ZM302,707.23c-1.65-2.42-2.78-5.75-5.18-5.82-1.8,0-3.53,3-5,6.48C295.58,705.07,298.49,708.41,302,707.23Zm293.16,38.45c.6,2.58,2.58,2.17,4.48,1.77.83-.18,1.62-.58,1.91.61a.9.9,0,0,1-.39.8c-1.37.48-1.48-.91-2.17-1.48s-2.21-.72-1-2c.71-.76,2.53-1,1.13-2.5a2.83,2.83,0,0,0-2.22-.79C595.07,742.44,596.11,744.38,595.13,745.68Zm-209.9-28.43c-4-3.88-4.81-3.54-7.51,2.74C380.4,719.42,382.24,717.09,385.23,717.25Zm73.22-11.19c1.49.72,3.56.49,3.73-.22.5-2.21,2.21-3.55,3-5.44.08-.2-.49-.81-.87-1.06s-1-.72-1.54.15C461.44,701.69,460,703.82,458.45,706.06Zm334.15-5.94,1.9.28c2.26.36,3.3-1.22,4.21-2.8.25-.41,0-1.65-.34-1.78-2.13-.87-2.55,1.32-3.7,2.25C793.94,698.65,792.77,698.77,792.6,700.12Zm.09-6.34c2.27.39,4.58,1.23,6.64-.19.22-.15-.16-2-.57-2.14C796.31,690.65,794.69,692.67,792.69,693.78ZM422.81,730.4c3.25-.14,5.05-.91,5.66-3.34.22-.86-.58-2-1.27-1.89C424.49,725.56,425.62,728.92,422.81,730.4Z" transform="translate(0)"/>
    <path class="cls-3" d="M618.39,660.79a1.37,1.37,0,0,1,0,.75c-2.43.45-3.24,3.36-5.8,3.76-.93.14-1.79,1.15-2.62,0-1.59-2.26-4-1.47-6.05-1.56-5.19-.23-10.41.56-15.46-1.7-2.08-.93-4.68-.62-7,0a52.45,52.45,0,0,1-17.83,1.35c-10.71-1-21.41-1.32-32.12-1.78a40.85,40.85,0,0,1-12.06-2.31c-2.23-.81-3.72-2.53-5.08.71-.44,1.07-1.2.7-2.08.54-12.89-2.27-26-1.61-39-2.67-18.75-1.53-37.59.67-56.43,0-19.91-.76-39.86-.18-59.8-.2-2.53,0-5-.31-7.54-.56-9.3-.94-18.68-.12-28-2.2-4.19-.94-9.06,1.63-13.5.56-4.06-1-8.63,2.46-12.29-1.58-.29-.32-2.24.17-2.68.8-1.74,2.54-3.66,1.91-6.07,1.17a10.27,10.27,0,0,0-5.48.29c-2.9.82-4.95.12-6.44-2.44,9.24-7.08,19.64-12.55,28.41-20.29l1.49-1a.45.45,0,0,0,.47-.24c5.8-2.53,9.76-7.62,15.11-10.77,3.42-2,7.34-3.44,9.41-7.23,7.32-3.58,13.77-8.46,20-13.6,6-2.77,11-7,16.31-10.92,7.16-5.29,14.58-10.23,21.84-15.38,1-.69,2.75-1.29,1.54-3.09-.94-1.4-2.12-1.61-3.31-.22-1.05,1.23-2.35.78-3.71.78-11.81,0-23.56-2-35.35-1.22-7.24.51-14.46.77-21.7,1-8.47.28-16.82-1.1-25.25-1.1q-30.64,0-61.3,0a93.51,93.51,0,0,0-12.6.73c-3.84.51-8.16,1.48-11.48-2,.5-.84.81-2,1.55-2.46a49.85,49.85,0,0,0,13-12.32c5.14-1.65,8.55-5.76,12.56-9,1.16-.94,2-2.45,3.64-2.34,6.69.41,13.69-.16,20,1.68,8.49,2.47,16.83,5.21,25.67,6.1,11,3,22.4,4.42,33.52,7.11,9.83,2.39,20.12,1.72,30.23,2.1,4.54,0,9.09,0,13.64,0,1.57,0,3.12-.07,3.47-2.09l.08-.06c1-.47,3.85,1.59,2.67-1.92a41.42,41.42,0,0,1,23.78-7.23,20.24,20.24,0,0,0,9.15-2c3.66-1.08,5.39-4.09,7.14-7.1,3.23-5.57,6.87-11.15,12.69-14,6.27-3,11.63-7.26,17.31-11.08,2.07-1.22,2.4-3.52,3.37-5.44,3.69-7.29,5.44-15.37,11.14-21.87,4.69-5.35,8.06-11.9,12.53-17.56,1.51-1.91,2.46-4.16,1.43-6.59-.75-1.75-2.58-1.43-4-1.32-7.37.53-14.57-4.64-22.05-.69-.24.13-.87.06-.95-.09-2.74-6-6.15-1.55-8.89-.28-4.24,2-6,.61-6.5-3.59l1.95.23c3.57-2.13,9.54-.53,10.5-6.73a2.58,2.58,0,0,0,2.83-2.14l.4-1.88c1-1.79,1.18-4.65,4.39-3.66,4.79,1.48,6.22-1.33,6.41-5.18.14-2.57.3-4.06,3.62-3.77,3.75.32,6.65-1.14,5.57-6.65,3.85,3,5.26,2.37,5.56-1.92s3-6.62,7.64-5.61c1.93.42,3.61-.17,4.13-2,1.48-5.22,9.16-3.5,10.11-9.22a2.67,2.67,0,0,1,1.37.11c4.87,2.64,9.59-.67,12.6-2.61,3.59-2.31,7-5.23,11.08-5.35,3.39-.09,5.4-7.2,9.51-1.74.48-.39.9-1,1.45-1.15,2.68-.76,6.51-2.86,7.88-1.81,3.1,2.38,5.75,2.64,9.26,2,2.83-.55,4.29,1.57,4.87,4.1S554,406,557.08,406c2.29,0,5.19,0,6.88,2.26,3.22,4.25,4.36,10.47,11.32,11.06,1.58.14,1.85,2.3,1.9,3.82a6.34,6.34,0,0,0,4.22,6.23c1.34,6.34-1.67,11-5.75,15.36-.66,0-1.4,0-1.53.73s.57,1,1.22,1.1h0c.27,1.39,1.6,2.57.83,4.17,6,1.25,2.37,5.5,2.78,8.71-1.38-2.7-3-4.09-6-2.55-1.64.85-3.32,0-5-.31a58.5,58.5,0,0,0-22.14-.3,136.71,136.71,0,0,1-29.17,1.92c-9.38-.39-18.44.64-27.63,1.37-3.13.25-4.12,1.7-3.87,4.55.39,4.37.76,8.73,1.08,13.1a4.36,4.36,0,0,0,2,3.31c3.35,2.54,6.52,5.35,10,7.67,3.33,2.22,6.31,5,10.54,5.84,13.67,2.58,27,7.09,41.25,6.3a7,7,0,0,1,2.47.52c10.5,3.45,21.67,5.2,30.88,12a6.66,6.66,0,0,0,4.22,1.54,34,34,0,0,0,24.77,4.28c.66-.13,1.36,0,2-.06,9.93-1.36,18.71,3.44,28.06,5.21,11.57,2.21,23.09,5.46,35,2.49,6.87-1.71,13.66-1.13,20.56-.15a54.87,54.87,0,0,0,17.16,0,174.57,174.57,0,0,1,25.62-2.9c4-.09,8.39.51,11.89-1.6,9.4-5.67,19.47-7.73,30.31-7.25,5.85.26,11.71,0,17.57,0v60.88l-369.2,0c-3.89,0-7.78-.07-11.66,0-1.39,0-3.46-.74-3.89,1.25-.31,1.43,1.47,1.94,2.56,2.74,6.24,4.57,14,5.7,20.63,9.34a145.17,145.17,0,0,0,32.72,13.11c13.37,7.45,28.6,9.71,42.63,15.31,15.92,4.29,31.74,9,47.79,12.76,20.27,4.76,40.77,7.94,61.76,5.52,3.64-.42,7.24-1.92,11-1,.72,2.3-.7,4.82,1.37,7.14,1.37,1.53-.7,2.78-2.08,3.11s-3,0-4.56-.11c-.94,1.85,1.88,2.56,1.35,4.25-1.1,1.21-4.65-2.8-4.09,1.92-1,1.6-2,3-4.2,2.88-1-.06-2.53.37-1.79,1.56C623.19,658.74,620.12,659.37,618.39,660.79Z" transform="translate(0)"/>
    <path class="cls-4" d="M.1,189.84c6.34.54,10.3,5.68,15.63,8.2,2.51,1.19,4.61,3.14,7.37,4.2,3,1.15,4.83,4.18,7.89,5.95,6.6,3.82,13.57,3.72,20.5,4.38,6.51.62,13.1.47,19.65.64a5.33,5.33,0,0,1,3.62,1.58c5.79,5.48,12.85,8.36,20.57,9.73,4,.7,6,4.74,10.21,5.15,11.49,1.12,22.65,4.22,34,6.17,10.69,1.83,20.6,6.94,30.67,11.14,4.89,2,7.57,6.43,12.07,8.72a20.3,20.3,0,0,0,13.76,1.6c18.56-3.66,36.87-2.2,54,5.46,20.23,9,38,21.92,51.91,39.43,8.13,10.22,15.6,20.95,23.6,31.27A62,62,0,0,0,338,345c1.79,1.32,2.44,1,4.12-.1,11.69-8.05,21.55-18.37,33.18-26.47,14.21-9.92,28.18-20.36,44.82-26a221,221,0,0,1,33.62-8.21c4.35-.74,8.59-1.84,10.86-6.39,1.14-2.28,3.44-1.94,5.41-1.44,11.31,2.83,22.73,5.24,34.33,6.17,14.13,1.14,28.32,1.5,42.43-.64,1.63-.25,3.68-.71,4.65-1.84,6.33-7.34,16.83-4.77,23.44-9.6,5.74-4.19,13.21-2.44,18.31-8.35,4.32-5,11-8.63,16.82-11.43,7-3.38,11.54-10.75,20-11.58,3.3-.32,6.1-3.06,7.18-6.54,2-6.43,8.51-7.86,12.8-11.72,1.46-1.32,3.62-.34,3.37,1.94-.38,3.47-.83,7-4.8,8.79-5.22,2.36-6.1,4.92-4.65,13.17.7,4,4.18,3.65,7.22,4,4.73.51,10.87,8.39,10.49,13.25-.08,1-.14,2.21-1.4,2.36-1,.12-1.34-.79-1.54-1.67s-.19-2.33-1.6-2-1.57,1.77-1.39,2.93A30.08,30.08,0,0,0,660,274.34c2.52,4.11.83,7.09-1.89,9.32a67.67,67.67,0,0,0-13.59,15.53c-2.27,3.45-5.61,3.22-9,3.3-1.25,0-3.13-.55-3.44,1.19s1.51,2.16,2.76,2.43a14,14,0,0,1,7.79,4.34c1.67,1.83,4,1.63,5.84-.18.24-.23.33-.72.59-.81,7.92-2.89,11.38-10,15.41-16.47,3-4.77,8.71-4.54,12.76-7.4,1.71-1.2,3.71.13,3.63,2.6-.09,2.79,1.22,4.33,3.63,5.44,4.19,1.94,4.23,6.68,6.32,10,2.72,4.36,6.18,5.53,9.55,1.92,2.67-2.87,4.51-3.93,6.79.27,1.14,2.1,2.86,2.17,4.28-.09a10.22,10.22,0,0,1,1.85-2.36c.93-.82,2.2-1.25,3.22-.31,1.35,1.24.16,2.16-.79,2.81-3.13,2.12-4.27,5.5-5.88,8.66-1.83,3.6-1.42,5.43,3,5.15,1.51-.1,3,0,4.56,0-1,2.07-1.82,4.23-4.48,5.05-7.85,2.4-15.9,2.15-24,2a7.52,7.52,0,0,1-3.87-.94c-12-7-24.8-10.81-38.79-10.15-7.84.36-15.75,1.11-23.48,1.46-13.62.6-27.14,2.65-40.78,2.61-8,0-15.9.11-23.84,0-16.19-.26-32.39.74-48.56-1.74-4.9-.75-11.09-2.59-15.17,2.64a28.26,28.26,0,0,1-9.36,8.17c-6.91,3.53-11.76,10.28-19.55,12.39-7.64-2.17-15.52-3.71-22.84-6.65-14.49-5.81-29.53-8-44.94-8.62-4.24-.17-7.78,1-10.09,5.2a19.81,19.81,0,0,1-7.31,7.57c-9.33,5.47-18.78,10.54-29.85,11.67-5.7.58-11.35,1.64-17,2.52-17.64,2.75-35.21,3.65-52.62-1.64a28,28,0,0,0-19.8,1.37c-5.62,2.46-11.1,2.46-16.48-.8-2.31-1.39-4.73-2.61-7.15-3.8-6.17-3-8-2.55-12.38,3.08-4.78,6.09-7.9,7-14.63,2.79-10.55-6.59-20.84-13.6-31.13-20.59-2.27-1.54-3.77-1.56-5.62.52-6.24,7.05-7.4,6.94-13.07-.78-.4-.55-.91-1-1.26-1.59-1.21-1.93-2.18-1.82-3.86-.21-7.37,7-16.1,7.18-25.21,2.39-11-5.79-22.54-10.07-33.78.15-2.19,2-4.6,1.8-6.62-.62-2.38-2.85-4.89-5.59-7.2-8.49-4.53-5.69-6.28-6.56-12.57-2.83-4.56,2.71-8,.86-10.92-1.49a41.45,41.45,0,0,1-9.77-10.79c-5.72-9.29-12.35-17.64-25.31-15.2a17.33,17.33,0,0,1-4.55,0c-3-.26-6.07-.64-8.62-2.54-2.71-2-8.36-3.88-10.91-3.55ZM670.91,315.68c1.45-.38,3.86.84,4.17-1.5.28-2.09-1.75-2.59-3.56-2.54s-4.21-.28-4.23,2.32C667.27,316.09,669.49,315.41,670.91,315.68Zm23.1,5.08a9.9,9.9,0,0,0-8.93.09C688.73,322.1,691.36,321.94,694,320.76Z" transform="translate(0)"/>
    <path class="cls-5" d="M465.6,341.19c7.79-2.11,12.64-8.86,19.55-12.39a28.26,28.26,0,0,0,9.36-8.17c4.08-5.23,10.27-3.39,15.17-2.64,16.17,2.48,32.37,1.48,48.56,1.74,7.94.13,15.89,0,23.84,0,13.64,0,27.16-2,40.78-2.61,7.73-.35,15.64-1.1,23.48-1.46,14-.66,26.82,3.17,38.79,10.15a7.52,7.52,0,0,0,3.87.94c8,.12,16.1.37,24-2,2.66-.82,3.43-3,4.48-5.05,1-.08,2.13.13,3-.28,7.56-3.75,15-2.51,22.49.26,4.32,5.09,10.09,5.36,16.18,5.16,3.66-.12,5.37-1.46,5.05-5.14,6.11.44,11.06-3.17,16.56-4.84a21.91,21.91,0,0,1,6.76-1.31c4.64.9,8.56-3.12,13.23-1.94v65.95a4.88,4.88,0,0,1-4-1.82c-2.92-3.38-6.11-3.06-9.18-.2-1.72,1.61-3.13,3.56-4.9,5.1-5.66,5-11,10.48-19.51,10.16-2.14-.08-4.51-.66-6.4.8-5.79,4.44-13.15,3.49-18.24,1.37-6.1-2.54-12.39-1.62-18.34-4-6.84-2.77-14.29-4.27-21.61-5.54-4-.7-7.28-3.42-11.07-3.65-7.91-.49-15.87-.15-23.8-.14a4.06,4.06,0,0,0-3.28,1.09c-1.79,2.12-4.17,1.9-6.53,1.9-3.72,0-7.52-.51-11.13.1-9.61,1.62-16.87-3.43-24.38-7.88-3.08-1.84-6.07-2.12-8.88.17a54,54,0,0,0-11.66,13.82,98.8,98.8,0,0,0-9.72,21.28c-2.09,6.49-6.4,12.21-6.67,19.31a6.34,6.34,0,0,1-4.22-6.23c0-1.52-.32-3.68-1.9-3.82-7-.59-8.1-6.81-11.32-11.06-1.69-2.22-4.59-2.27-6.88-2.26-3.08,0-4.24-1.23-4.84-3.88s-2-4.65-4.87-4.1c-3.51.68-6.16.42-9.26-2-1.37-1.05-5.2,1-7.88,1.81-.55.16-1,.76-1.45,1.15-4.11-5.46-6.12,1.65-9.51,1.74-4.11.12-7.49,3-11.08,5.35-3,1.94-7.73,5.25-12.6,2.61a2.67,2.67,0,0,0-1.37-.11c-1,5.72-8.63,4-10.11,9.22-.52,1.82-2.2,2.41-4.13,2-4.65-1-7.35,1.27-7.64,5.61s-1.71,4.94-5.56,1.92c1.08,5.51-1.82,7-5.57,6.65-3.32-.29-3.48,1.2-3.62,3.77-.19,3.85-1.62,6.66-6.41,5.18-3.21-1-3.4,1.87-4.39,3.66-3.7-2.25-8.16-3.52-10.12-8-.25-.58-1.39-.89-2.18-1.1-9.31-2.39-16.73-8.62-25.34-12.5-7.64-3.45-14.68-8.26-21.89-12.63-3.33-2-7.42-2.46-10.5-4.54-5.81-3.93-11.63-7.37-18.47-9.42-8.85-2.65-16.32-.32-20.83,7.68a4.42,4.42,0,0,1-1.67,1.85c-7.05,3.4-9.79,10.9-15.21,15.8-2.43,2.2-2.09,5.93-5.16,7.69-4.33,2.48-7.27,6.34-9.81,10.6-2.18,3.65-4.74,7.06-7.12,10.58-.1-.5,0-1.12-.33-1.47-1.72-2.09-5.7-2-5.73-5.79a2.79,2.79,0,0,0-1.36,0c-1.71.88-2.33.41-3.37-1.33-1.52-2.52-5.46-3.39-5-7.41.06-.64-1-.95-1.64-.71-5.75,2.19-4.11-2.18-4.12-4.77s.4-5.15.67-8.31c-2.69,2.21-3.84,4.4-3.54,7.36.11,1.07,1,2.53-.49,3.17-4.26,1.81-4.63,5.9-5.75,9.51-.81,2.64-1.62,4.4-4.79,2.43-2.12-1.31-3.91-1.05-4.15,2-.14,1.88-.75,3.34-3.08,3,1.7-4.92-3.26-5.43-5-5.36-9,.38-17.47-3.2-26.43-2.5-3.38.26-6.14,2.24-9.72,2.19-17.87-.27-35.75-.12-53.63-.13a37.91,37.91,0,0,1-5.86-1c-7.68-1.2-15.53-1.51-22.29-6.06a1.65,1.65,0,0,0-1,0c-3.86.56-7.28-.89-10.68-2.35-3.82-1.64-7.43-3.88-11.8-3.85a2.31,2.31,0,0,1-2.56-2c-.38-2.7-2.39-2.5-4.38-3.11-5-1.52-10.09-3.15-14-7C98.74,410.47,112,407.87,124,403c16.1-6.58,33.65-8.34,50.69-10.79,20.29-2.91,41-3.05,61.47-4.5,12.28-.87,24.6-1.27,36.84-2.27,19.9-1.63,39.87-2.09,59.68-5.57,21.34-3.76,43.09-4.94,64-11.69,13.28-4.3,27-7.11,39.84-13C446.29,350.68,456.51,347.13,465.6,341.19Z" transform="translate(0)"/>
    <path class="cls-6" d="M465.6,341.19c-9.09,5.94-19.31,9.49-29.11,14-12.84,5.86-26.56,8.67-39.84,13-20.87,6.75-42.62,7.93-64,11.69-19.81,3.48-39.78,3.94-59.68,5.57-12.24,1-24.56,1.4-36.84,2.27-20.5,1.45-41.18,1.59-61.47,4.5-17,2.45-34.59,4.21-50.69,10.79-12,4.92-25.27,7.52-35.63,16.23-2,.36-3.9,1.36-5.94.47-3.48-1.52-7.25-1.78-10.91-2.06-6.48-.51-13.21-.24-17.69,5.27-3,3.69-5,2.79-8.23.61-7.11-4.75-14.27-9.37-22.91-11.29A88.31,88.31,0,0,0,.1,410V288.26c2.55-.33,8.2,1.54,10.91,3.55,2.55,1.9,5.58,2.28,8.62,2.54a17.33,17.33,0,0,0,4.55,0c13-2.44,19.59,5.91,25.31,15.2a41.45,41.45,0,0,0,9.77,10.79c3,2.35,6.36,4.2,10.92,1.49,6.29-3.73,8-2.86,12.57,2.83,2.31,2.9,4.82,5.64,7.2,8.49,2,2.42,4.43,2.61,6.62.62,11.24-10.22,22.79-5.94,33.78-.15,9.11,4.79,17.84,4.66,25.21-2.39,1.68-1.61,2.65-1.72,3.86.21.35.57.86,1,1.26,1.59,5.67,7.72,6.83,7.83,13.07.78,1.85-2.08,3.35-2.06,5.62-.52,10.29,7,20.58,14,31.13,20.59,6.73,4.2,9.85,3.3,14.63-2.79,4.42-5.63,6.21-6.1,12.38-3.08,2.42,1.19,4.84,2.41,7.15,3.8,5.38,3.26,10.86,3.26,16.48.8a28,28,0,0,1,19.8-1.37c17.41,5.29,35,4.39,52.62,1.64,5.66-.88,11.31-1.94,17-2.52,11.07-1.13,20.52-6.2,29.85-11.67a19.81,19.81,0,0,0,7.31-7.57c2.31-4.17,5.85-5.37,10.09-5.2,15.41.62,30.45,2.81,44.94,8.62C450.08,337.48,458,339,465.6,341.19Z" transform="translate(0)"/>
    <path class="cls-4" d="M581.4,429.41c.27-7.1,4.58-12.82,6.67-19.31a98.8,98.8,0,0,1,9.72-21.28A54,54,0,0,1,609.45,375c2.81-2.29,5.8-2,8.88-.17,7.51,4.45,14.77,9.5,24.38,7.88,3.61-.61,7.41-.11,11.13-.1,2.36,0,4.74.22,6.53-1.9a4.06,4.06,0,0,1,3.28-1.09c7.93,0,15.89-.35,23.8.14,3.79.23,7.07,2.95,11.07,3.65,7.32,1.27,14.77,2.77,21.61,5.54,6,2.39,12.24,1.47,18.34,4,5.09,2.12,12.45,3.07,18.24-1.37,1.89-1.46,4.26-.88,6.4-.8,8.46.32,13.85-5.2,19.51-10.16,1.77-1.54,3.18-3.49,4.9-5.1,3.07-2.86,6.26-3.18,9.18.2a4.88,4.88,0,0,0,4,1.82V422.2c-1.41.74-2.54,2.41-4.49,1.36s-3.5-1.68-3.68,1.48a1.06,1.06,0,0,1-1.45,1c-2.17-.72-3.2-.31-2.79,2.23.18,1.1-.68,1.57-1.62,2.18-5.08,3.29-11.16,4.17-16.42,7-1.88-.23-2.85.71-3.13,2.49a7.38,7.38,0,0,1-3,4.52l-1.84.2c-5.22,1.23-5,10.38-12.44,8.53-.16,0-.67,1-.93,1.66-1.59,3.79-4.06,4.2-7.72,2.65-4.72-2-6.81-.57-7.52,4.5-.23,1.64-.55,4.57-2,4-4.8-1.84-6.16,1.84-8.5,4.21-1.25,1.28-2.76,1.49-4.62,1.26-5.1-.63-9.91-.49-11.44,6-.48,2.06-2.33,1.71-3.74,1-3.38-1.75-4.87-.87-5.29,3-.31,2.77-3.17,6.27-4.85,4.94-3.27-2.59-4.48-.29-7,.46-3.5,1.05-4.12,4.23-6.32,6.12s-3.92,2.2-6,.13c-.4-1.4-1.48-2.69-2.74-2.26-2.39.83-2.11,3.33-2.41,5.37l-3,.2-3-1.14,0,0c-.7-1.84-.49-4.9-4-3-1.48,1-2.42-.54-3.57-.73-5.56-1-5.15-11.8-13.43-8-.15.06-.83-.62-1-1.05-.82-2.33-2.62-2-4.55-2-7-.2-13.59-1.54-19.34-6.16-2.18-1.74-6.11-3.21-8.26-.63-4.61,5.51-4-1.53-6-2.17-2.31-.75-5.28,5.73-6.86-.67a1.27,1.27,0,0,0-.13-.49c-2.49-3.51-4.52-7.46-9.31-8.55-2.71-.62-3.44-2.65-3.69-5.32-.42-4.54-1.84-8.65-7.16-9.73h0c.11-.61.21-1.22.31-1.83C579.73,440.46,582.74,435.75,581.4,429.41Z" transform="translate(0)"/>
    <path class="cls-6" d="M.1,527.72V494.24c2.48-.63,4.45-4.54,7.65-.71C9,495,10,493.11,10.36,491.74c.57-2.39,3.12-3,4.22-4.48,2.45-3.34,3.88-.75,5.75.14,1,.47,2.16.59,2.7-.47,3.4-6.64,12.49-4.34,16.31-10.41.41-.64,1.86.28,2.66.94.34,3.92,4,3.12,5.25,2.33,5.88-3.59,12.39-.7,18.57-2.18,3.05-.73,6.91,0,10.19-1.75,2.57,1.54,3.14,4.61,4.76,6.51,2.17,2.53,3.86,6.4,8.44,6.72,1.73.12,3.79,2.27,4.84,4,2.12,3.54,5.58,3.78,8.78,3.79,4.45,0,8.79-.79,11.93,3.67,1.19,1.68,3.71,1.26,5.55,1.91,6.43,2.27,11.78-6.4,18.29-1.59,4.83-3.06,12.43-.66,15.25-7.71,4.39,1,7.55-3.6,10.18-3.58,4.24,0,8.78-2.08,9.57-3.61,2.62-5.07,8.66-2.76,11.33-6.6.16-.23,1.26.06,1.86.28,6,2.31,7.61,1.64,10.18-4.68.51-1.27,1.4-2.6,2.39-1.52,2.91,3.13,4.13.86,5.56-1.3.89-1.34,2.24-1.4,3.61-1.27,5.4.52,9.15-3.27,11.74-6.55,2.84-3.59,4.35-2.38,6.81-.71a7.82,7.82,0,0,0,7.22,3.91c6.49-.36,13-.28,19.5-.38,13.47-.23,26.89-1.87,40.37-1.26,2.79.13,5.54-2,8.33,0,1.66,1.19,3.17,1.07,4.26-.78,1.31-2.22-.18-3.57-1.77-4.56s-3.85-1.37-4.67-3.53a47,47,0,0,0,4.74,1.45c4.86,1,6.49,4.44,3.62,8.25-1.18,1.57-1.62,3.18-.66,4.66,2.19,3.4.93,5.72-2,7.64-2.11,1.4-3,3.25-2.13,5.61.95,2.64,3.15,2.85,5.71,3.09,4,.39,7.81,2.12,11.93,2.42,2.09.15,2.33,2.21,2.18,4-.21,2.46.54,4.5,2.87,5.36,5.66,2.1,7.18,6.63,7.46,12,.93,3.89,5.33.59,7.07,3.33-2.38,1.34-4.77,1-7,.52-4.88-1-9.67-.3-14.56-.14-9.79.31-19.32,2.91-29.19,2.53-11.41-.42-22.85,0-34.25-1.06-8.87-.86-17.36,2.81-26,2.83-26,.08-51.82,1.28-77.74,3.73-21,2-42.43.81-63.64,2.4-10.42.79-21-.08-31.41.4-12.6.59-25.18,1.74-37.76,2.8C13,529.32,6.7,526,.1,527.72Z" transform="translate(0)"/>
    <path class="cls-4" d="M227.08,463.63c-2.46-1.67-4-2.88-6.81.71-2.59,3.28-6.34,7.07-11.74,6.55-1.37-.13-2.72-.07-3.61,1.27-1.43,2.16-2.65,4.43-5.56,1.3-1-1.08-1.88.25-2.39,1.52-2.57,6.32-4.14,7-10.18,4.68-.6-.22-1.7-.51-1.86-.28-2.67,3.84-8.71,1.53-11.33,6.6-.79,1.53-5.33,3.65-9.57,3.61-2.63,0-5.79,4.62-10.18,3.58-2.82,7.05-10.42,4.65-15.25,7.71-6.51-4.81-11.86,3.86-18.29,1.59-1.84-.65-4.36-.23-5.55-1.91-3.14-4.46-7.48-3.64-11.93-3.67-3.2,0-6.66-.25-8.78-3.79-1-1.74-3.11-3.89-4.84-4-4.58-.32-6.27-4.19-8.44-6.72-1.62-1.9-2.19-5-4.76-6.51-4.08-3.86-5.47-8.38-5.49-14.17,0-3,1-7.49-2.8-10.27C65,458.52,61,463.78,53.46,466c-4.87,1.46-5.12,7.93-9.67,10l-.89,1-.9.37c-.8-.66-2.25-1.58-2.66-.94-3.82,6.07-12.91,3.77-16.31,10.41-.54,1.06-1.73.94-2.7.47-1.87-.89-3.3-3.48-5.75-.14-1.1,1.51-3.65,2.09-4.22,4.48C10,493.11,9,495,7.75,493.53c-3.2-3.83-5.17.08-7.65.71V410a88.31,88.31,0,0,1,22.6,2.16c8.64,1.92,15.8,6.54,22.91,11.29,3.25,2.18,5.23,3.08,8.23-.61,4.48-5.51,11.21-5.78,17.69-5.27,3.66.28,7.43.54,10.91,2.06,2,.89,4-.11,5.94-.47,3.92,3.82,9,5.45,14,7,2,.61,4,.41,4.38,3.11a2.31,2.31,0,0,0,2.56,2c4.37,0,8,2.21,11.8,3.85,3.4,1.46,6.82,2.91,10.68,2.35a1.65,1.65,0,0,1,1,0c6.76,4.55,14.61,4.86,22.29,6.06a37.91,37.91,0,0,0,5.86,1c17.88,0,35.76-.14,53.63.13,3.58.05,6.34-1.93,9.72-2.19,9-.7,17.47,2.88,26.43,2.5,1.78-.07,6.74.44,5,5.36-3.42,3.54-9.79,1.45-12.46,6.56-.45.86-1.86,1-2.81.59C233.66,454.44,230.57,459.45,227.08,463.63Z" transform="translate(0)"/>
    <path class="cls-5" d="M.1,527.72c6.6-1.76,12.91,1.6,19.47,1,12.58-1.06,25.16-2.21,37.76-2.8,10.45-.48,21,.39,31.41-.4,21.21-1.59,42.6-.41,63.64-2.4,25.92-2.45,51.75-3.65,77.74-3.73,8.68,0,17.17-3.69,26-2.83,11.4,1.1,22.84.64,34.25,1.06,9.87.38,19.4-2.22,29.19-2.53,4.89-.16,9.68-.85,14.56.14,2.22.45,4.61.82,7-.52-1.74-2.74-6.14.56-7.07-3.33,3.8.3,7.76-.74,11.31,1.65a2.45,2.45,0,0,0,3.22-.77c1.89-2.79,4-2.36,6.51-1,.79.43,2,.11,3,.12.12,2.31.52,4.32,3.58,4.07,2.63-.22,3.07-2.14,3.21-4.16a12.3,12.3,0,0,0-.52-2.89l2.26-1.25c3,.95,4.41,5,8.27,4.17,5.95-1.28,12-.35,18-.83,11.63-.93,23.23,1.66,34.8.74,6.35-.5,11.93.2,17.33,3.32-5.68,3.82-11,8-17.31,11.08-5.82,2.83-9.46,8.41-12.69,14-1.75,3-3.48,6-7.13,7.1,0-1.71.16-3.37,1.61-4.61.94-.8,1.65-1.78,1-3.08a2.32,2.32,0,0,0-3.07-1c-4.41,2.69-8.61.32-12.93-.06-7.24-.64-14.43.55-21.57,1.61-13.74,2-27.48,1.2-41.28.76-10.56-.35-21.49-3-31.76,2.14-1.54.75-2.86-.11-4.31-.63-3-1.06-6-2.38-9.26-1.33-1.47.48-3.65.85-3.49,3a3.53,3.53,0,0,0,3.78,3.36c2.64.05,4.71.71,4.76,3.89-8.84-.89-17.18-3.63-25.67-6.1-6.29-1.84-13.29-1.27-20-1.68-1.67-.11-2.48,1.4-3.64,2.34-4,3.23-7.42,7.34-12.56,9-.12-2.26-1.29-3.39-3.57-3.26-7.27.4-14.46-.67-21.68-1.05-16.71-.86-33.3,1.13-49.94,1.94-9.58.47-19.18-.34-28.77-.71-10.77-.42-21.47,3.56-32.4,1.12a2.74,2.74,0,0,0-1.89.54c-5.08,3.55-10.8,2.49-16.19,1.73-4.16-.59-7.56-.25-10.93,2.24-2.73,2-5.42,2.07-7-1.56-.92-2.14-2.17-2.33-4-1.18a2.57,2.57,0,0,1-2.87.13c-4.71-3-10.88,1.65-15.31-2.91a1.45,1.45,0,0,0-1.39.2c-3,5.37-8,3.88-12.55,3.51-4.13-.34-5.21,1.33-3.7,5-6.2.59-11.76-1.68-17.3-4Z" transform="translate(0)"/>
    <path class="cls-6" d="M575.36,446.61c5.32,1.08,6.74,5.19,7.16,9.73.25,2.67,1,4.7,3.69,5.32,4.79,1.09,6.82,5,9.31,8.55a1.27,1.27,0,0,1,.13.49c1.58,6.4,4.55-.08,6.86.67,2,.64,1.42,7.68,6,2.17,2.15-2.58,6.08-1.11,8.26.63,5.75,4.62,12.34,6,19.34,6.16,1.93.06,3.73-.29,4.55,2,.15.43.83,1.11,1,1.05,8.28-3.76,7.87,7.08,13.43,8,1.15.19,2.09,1.7,3.57.73,1.21,1.18,2.17,2.69,4,3l0,0c.42,1.92,1.45,2.24,3,1.14l3-.2c2.87.88,2.19-4.14,5.15-3.11,2.05,2.07,3.67,1.85,6-.13s2.82-5.07,6.32-6.12c2.49-.75,3.7-3.05,7-.46,1.68,1.33,4.54-2.17,4.85-4.94.42-3.84,1.91-4.72,5.29-3,1.41.72,3.26,1.07,3.74-1,1.53-6.52,6.34-6.66,11.44-6,1.86.23,3.37,0,4.62-1.26,2.34-2.37,3.7-6.05,8.5-4.21,1.47.57,1.79-2.36,2-4,.71-5.07,2.8-6.5,7.52-4.5,3.66,1.55,6.13,1.14,7.72-2.65.26-.61.77-1.7.93-1.66,7.4,1.85,7.22-7.3,12.44-8.53,2.21,4.59,5.66,2.76,9.53,2.73,9.64-.08,19.26-.76,28.89-.81v53.78c-4.12-1-7.64,2.93-11,2.33-13.34-2.33-26.24,1.61-39.37,1.91-19.11.45-38.19,2.15-57.34,1.86-8-.12-16.12-1.08-24,1.22a28.57,28.57,0,0,1-12.55.61c-8.59-1.39-17.19-.94-25.75-.7-5.87.17-11.92,1.95-17.59.65-9.78-2.25-17.55,1.56-25.33,6.26a6.66,6.66,0,0,1-4.22-1.54c-9.21-6.82-20.38-8.57-30.88-12a7,7,0,0,0-2.47-.52c-14.2.79-27.58-3.72-41.25-6.3-4.23-.8-7.21-3.62-10.54-5.84-3.48-2.32-6.65-5.13-10-7.67a4.36,4.36,0,0,1-2-3.31c-.32-4.37-.69-8.73-1.08-13.1-.25-2.85.74-4.3,3.87-4.55,9.19-.73,18.25-1.76,27.63-1.37a136.71,136.71,0,0,0,29.17-1.92,58.5,58.5,0,0,1,22.14.3c1.63.35,3.31,1.16,5,.31,3-1.54,4.61-.15,6,2.55-.41-3.21,3.18-7.46-2.78-8.71C577,449.18,575.63,448,575.36,446.61Z" transform="translate(0)"/>
    <path class="cls-6" d="M471.82,601.87a145.17,145.17,0,0,1-32.72-13.11c-6.61-3.64-14.39-4.77-20.63-9.34-1.09-.8-2.87-1.31-2.56-2.74.43-2,2.5-1.22,3.89-1.25,3.88-.11,7.77,0,11.66,0l369.2,0v6.09c-8.19,3.51-16.47,6.71-24.94,9.59-14.09,4.78-28.56,7.44-43.07,10.21.11-2.62-1.25-3.61-3.74-3.56-3.38.07-6.75,0-10.13,0H486.87A29.2,29.2,0,0,0,471.82,601.87Z" transform="translate(0)"/>
    <path class="cls-3" d="M732.65,601.3c14.51-2.77,29-5.43,43.07-10.21,8.47-2.88,16.75-6.08,24.94-9.59v83.2c-2.78-2.8-6.18-3.61-10-3.21-2.17.22-4.14-.09-4.18-3-6.06-5.11,3.23-4.62,2.24-8.41-1.05-1.33-6-2.8-.44-6.11,1.28-.76-.21-2.21-1-2.89-1.61-1.41-1.72-4.17-4.6-4.8.09,3.37-3.09,6.27-.12,10,1.55,1.92-1,2.78-2.46,3.24s-3-.38-4.56.54c-.39,2,3.56,4.71-.82,6.16a22,22,0,0,0,1.81,3c1.26,1.53,2.71,2.92,2.72,5.22-4.48,1.83-6.33-4.1-10.71-3.37.37,3.78,4.25,4.93,5.77,7.72h0c-3.41.28-6.23-2.61-9.74-1.84-2,1.82,2.14,5-.12,5.23-3,.3-3.15-3.75-4.3-6.08a3,3,0,0,1-.14-1c4.33-2.93.6-3.4-2-4.26l4.14-3.62c-2.08-1.09-4-.35-5.71-.69-2.27-.44-6.4.78-3.62-4.28,1.18-2.16-1.18-2.65-2.92-3,1.56-2.75,4.83-2.87,6.39-5.13-2.7-1.76-5.85-3.59-1.65-6.84,1.78-1.39.93-2.14,0-3.18-1.21-1.37-2.45-2.72-4-4.46-1.35,3.5-2.69,6.2-.82,9.75,1.57,3-1,4.36-6.42,3.41-1.22,1,2.83,4.64-2,4.18-1.13-.1,0,1.25.39,1.78,2.14,3.13,4.34,6.22,6.62,9.47-4.21.78-7-3-11.54-2.48l4,5.35c-3.47,1-6-3.11-9.21-1.19-4.49-1-9-.29-13.51-.25l-3-1.62c.17-2,2.52-2.08,3.23-3.82-3.12-1.92-7.75,1.59-10-2.33-.92-1.61,2.3-4.71-1.55-5.92,1.08-2.58,4.45-2.14,5.58-4.64-1.59-1.95-6.65-3.62-1.07-7.08,1.78-1.1.55-2-.12-2.81-1.33-1.68-2.77-3.26-4.56-5.34-.37,3.7-2.67,6.52-.17,10.3,1.79,2.69-1.35,4.55-6.74,3.83-.85.89.43,1.49.33,2.21-.71,5.12-.7,5.11,3,10.52.63.92,1.9,1.5,1.72,3.65l-11.31-4.64c.11,3.08,3,4.06,4.16,6.88l-7.2-1.79-1.13-.14.43.92c.39,1,.78,1.91,1.16,2.86l-2.63-2.08c-1.94-1.9-8-2.92-1.34-6.68,1.31-.74.39-2.17-.3-3.06-1.4-1.82-2.66-3.82-5-5.12-1.95,2.43-1.13,5.77-2.8,8.18-1.51,5.67-8.12,3.69-11.42,7.31-.9,1-6.3-.11-9.44,1.57-.27.14-1-.17-1.26-.48-3.24-4-7.93-4.07-12.42-4.63-1.66-.21-3.44.1-4.21-1.94-4-4-.15-5.58,2.41-7.5-1.51-2.17-6.4-3.48-.84-6.85,2.65-1.61-1.64-3.44-1.54-5.53.63-.51,1.21-1.38,1.9-1.49,10.58-1.77,20-7,30-10.3,6.48-2.16,13.45-3.46,18.85-8.2,2.62.12,4.85-1.18,7.23-1.92Q715.44,606.58,732.65,601.3Z" transform="translate(0)"/>
    <path class="cls-3" d="M.1,556.13c5.54,2.3,11.1,4.57,17.3,4,7.69.86,15.32,2.09,23.09,2.36,9.37.34,18.67,1.53,27.53,4.91,0,3.11-1.75,4-4.55,4-18.69-.24-37.4.56-56.09-.43-1.43-.08-2.95-.25-3.43,1.27s1,2.32,2.16,3c2.15,1.32,4.39,2.49,6.53,3.83C26.78,587.86,41.3,595.93,57,601.66c9.11,5.7,19.22,9,29.36,12.18,1,.83,1.61,2,3,2.55,10.47,4,21.18,7.43,31.35,12.22L137,635.1c1.2,4.89-.53,8-5.49,9.3l-2.56,1a.77.77,0,0,1-.77.16l-1.08,1.06c3.51,1.7,8.69-3.72,10.8,3.18,2.45-4.56,3.28-8.73,2.07-13.19,3.67-.32,6,2.7,9.09,3.76,12.62,4.3,25.2,8.74,37.79,13.13-5.81.88-11.57-2.89-17.47-.1-1.3.62-2.84-.41-4.25-1.07-4.12-1.94-8.18.66-12.32.5-.81,0-1.06.92-1,1.93.1,3.05,0,3.06-3.37,1.73.26-2.68-2.4-4.17-2.64-6.87-.2-2.11-2.21-.6-2.88.18-2.47,2.87-5.64,4.06-9.32,4.51-1.21-1.77,2.86-3.08.65-4.55-1.52-1-3.63-.46-5.43,0s-2.93,1.5-2,3.59c-4.18-.28-7.27-3.42-11.57-4-7.41-1-14.79-.6-22.18-.9-4-.16-8.6,1.46-11.46-3.2-.48-.79-1.53-.47-2.31-.08-10.64,5.33-21.25,1.92-31.87-.09.42-4-.39-7.61-3.14-12.59,2.65,7.93-2.56,11.23-8.85,14.28,3.52.27,5.58-1.74,8.45-2.28-1.34,1.78,1.13,3.57-.78,4.89a.6.6,0,0,1-.45.27c-7.56-.5-7.59-.49-9.08,3.39a2,2,0,0,1-1.88-2.79c1.17-3.89-1.32-5-4.17-5.83l-.71-1.26-.51.53,1.26.69a3.78,3.78,0,0,1-4.11,3c-7.86-.21-16,1.86-23.31-3Z" transform="translate(0)"/>
    <path class="cls-5" d="M587.68,514.47c7.78-4.7,15.55-8.51,25.33-6.26,5.67,1.3,11.72-.48,17.59-.65,8.56-.24,17.16-.69,25.75.7a28.57,28.57,0,0,0,12.55-.61c7.9-2.3,16-1.34,24-1.22,19.15.29,38.23-1.41,57.34-1.86,13.13-.3,26-4.24,39.37-1.91,3.39.6,6.91-3.33,11-2.33v14.2c-5.86,0-11.72.22-17.57,0-10.84-.48-20.91,1.58-30.31,7.25-3.5,2.11-7.93,1.51-11.89,1.6a174.57,174.57,0,0,0-25.62,2.9,54.87,54.87,0,0,1-17.16,0c-6.9-1-13.69-1.56-20.56.15-11.92,3-23.44-.28-35-2.49-9.35-1.77-18.13-6.57-28.06-5.21-.67.09-1.37-.07-2,.06A34,34,0,0,1,587.68,514.47Z" transform="translate(0)"/>
    <path class="cls-6" d="M.1,644.41c7.28,4.81,15.45,2.74,23.31,3a3.78,3.78,0,0,0,4.11-3l0,0c2.85.88,5.34,1.94,4.17,5.83a2,2,0,0,0,1.88,2.79l3.87,2.4c-1.49,1.77-3.5.56-5.1,1.92L38,660.89c-5.06-.34-9,1.84-10.11,6.24-.7,2.72,4.26,2.44,5.78,4.93-1.23,1.23-2.79.37-4.13.58s-3-.7-3.73.64c-1,1.86,1.75,2.11,2,3.77-.71,1.49-2.67.73-3.72,1.7-3.65,1-6.91.61-9.87-2-.52-.46-1.92.07-2.92.15.23-1.49.46-3,.68-4.47l.32.11-.11.32c1.22-1.82,2.23-3.62-.35-5.18-3.57,2.56-8,.39-11.71,2.12Z" transform="translate(0)"/>
    <path class="cls-3" d="M800.66,446.55c-9.63.05-19.25.73-28.89.81-3.87,0-7.32,1.86-9.53-2.73l1.84-.2c5.16.39,4.81-4.05,6.13-7,5.26-2.83,11.34-3.71,16.42-7,.94-.61,1.8-1.08,1.62-2.18-.41-2.54.62-2.95,2.79-2.23a1.06,1.06,0,0,0,1.45-1c.18-3.16,1.85-2.46,3.68-1.48s3.08-.62,4.49-1.36Z" transform="translate(0)"/>
    <path class="cls-6" d="M786.47,658.51c0,2.89,2,3.2,4.18,3,3.83-.4,7.23.41,10,3.21V685c-2.2-.74-4.4-1.51-6.62-2.22-1.32-.42-2.76-.77-2.45-2.57.36-2.1,1.4-4.08-2.14-4.71-1.27-.23-.26-1.91.74-2.59,1.51-1,3-2,4.71-3.08-.84-1.64-2.54-.74-3.43-1.66.43-1.88,2.75-2.21,3.89-4.53-2.65,0-4.75,0-6.86,0-1.32,0-2.57.11-3.41-1.46C784,660.2,785.29,659.45,786.47,658.51Z" transform="translate(0)"/>
    <path class="cls-4" d="M800.66,311.6c-4.67-1.18-8.59,2.84-13.23,1.94,4.35-2.46,7.68-6.83,13.23-7Z" transform="translate(0)"/>
    <path class="cls-4" d="M764.11,319.69c.32,3.68-1.39,5-5.05,5.14-6.09.2-11.86-.07-16.18-5.16Z" transform="translate(0)"/>
    <path class="cls-6" d="M148.4,656.52c3.38,1.33,3.47,1.32,3.37-1.73,0-1,.22-2,1-1.93,4.14.16,8.2-2.44,12.32-.5,1.41.66,2.95,1.69,4.25,1.07,5.9-2.79,11.66,1,17.47.1,12.87,1.24,25.86,1.63,38.51,4.65,2.73.65,5.76,1.08,7.89,3.18,6.16,6.08,12.89,4,19.55,1.39,7.49-2.89,14.87-6.07,22.3-9.12,1.49,2.56,3.54,3.26,6.44,2.44a10.27,10.27,0,0,1,5.48-.29c2.41.74,4.33,1.37,6.07-1.17.44-.63,2.39-1.12,2.68-.8,3.66,4,8.23.6,12.29,1.58,4.44,1.07,9.31-1.5,13.5-.56,9.31,2.08,18.69,1.26,28,2.2,2.51.25,5,.56,7.54.56,19.94,0,39.89-.56,59.8.2,18.84.71,37.68-1.49,56.43,0,13,1.06,26.09.4,39,2.67.88.16,1.64.53,2.08-.54,1.36-3.24,2.85-1.52,5.08-.71a40.85,40.85,0,0,0,12.06,2.31c10.71.46,21.41.83,32.12,1.78A52.45,52.45,0,0,0,581.46,662c2.32-.61,4.92-.92,7,0,5,2.26,10.27,1.47,15.46,1.7,2.1.09,4.46-.7,6.05,1.56.83,1.19,1.69.18,2.62,0,2.56-.4,3.37-3.31,5.8-3.76a19.86,19.86,0,0,0,5,6.85c1.24,1.16,4.16,3.24,3.17,3.66-2.56,1.07-2.49,4.86-6,4.74-2.92-.1-5.87.74-9,1.2,1.07,2,2.76,2.44,4.16,3.23,2.71,1.52,5.47,2.72,3.85,6.83-.38.94.8,2.44,1.11,3.73s2.36,2.58.29,3.89c-1.79,1.13-3.34.52-5-.86-2.35-2-3.83-5.18-7.37-5.59-2.93,2.19-4.66,5.95-8.76,6.59-1.74-.14-1.77,1.24-2.09,2.36l-1.42.93c-1.75-2.55-4.37-.58-6.46-1.26-2.29-.75-5.78-.83-3.09-4.91.9-1.35.68-1.5-2.87-2.73.79-1.7,2.65-1.9,4-2.81,2-1.41,3.64-2.25.37-4.55-4.44-3.13.29-3.89,2.07-5.17-1.4-2.13-2.58-4.13-4-6-2.2-2.91-2.67-.55-3.29,1.18-2.72,2.69-1,6-1.3,9.06l-2.44,0c-.11-.32-.23-.63-.34-1-4.7,1.83-10,2.11-14.17,5.29-.95.72-2.41,3.59-3.19,1-1.27-4.19-4.11-3.12-6.77-3.31a32.77,32.77,0,0,0-15.73,2.4c-1.66.73-5,1.16-5.08,0-.3-5.55-6.64-4.56-8.25-8.36-1.5-.34-4,.61-2.82-2.81.35-1-.43-3-2.83-3.35-.64,2.51,0,5.74-3.79,6.88-2.07.63,1.22,1.84.49,3.4-1.74,1.51-4.9-.72-6.58,1.81-2.92-.52-3.46.26-2.91,3.84-7.06-.94-14.21-1.88-21.35-2.86a8.3,8.3,0,0,0-8,3.09c.12-2.81-.87-4.48-4-4l-1.17-.17c-5.23-1.21-7.58,1.35-7.67,7.65-3.07-5.28-7.37-7.33-10.54-10.68-1.59-1.69-2.64-5.29-6.16-5-1-1.58-1.14-3.83-3.48-4.75.86,1.53-.35,3.09.72,4.61.9,1.3.07,2.19-1.45,2.23-3.14.07-4.88,1-2.35,4.15-2.36,1.18-5.07-.48-6.74,1.84-1.26-1.56-2.71-2.36-4.81-1.58-6.87,2.56-14.15-.87-21.08,1.32-1,.31-1.94-.44-2.63-1.2-1.43-1.57-3.29-2.68-3.67-5.19s-2.67-1.19-4.15-1.3c-.86-.05-2,.88-1.39,1.46,3.91,3.55-1.53,3.25-1.79,3.32-3.93,1-6.09,3.22-5.9,7.42l-.35.27-.43-.11c-2-2.6-4.1-3.84-7.78-4.25-4.42-.5-7.36,1.4-10.78,2.94l-.06-.07c.6-1.63.35-2.82-1.39-3.69-1.19-.59-2.08-1.34-2.53.6l-4,.21c-3.35.85-6.66-.3-10-.26-10.6.13-21.19.07-31.79,0-1.74,0-4.37.63-4.62-1.8-.38-3.65-1.87-3.44-4.49-2.37-1.19.49-2.66.25-4,.34-6.38.38-9.37,6.18-14.21,9-.71.42-1,1.74-2.19,1.59-1.56-.2-1.48-1.48-1.74-2.63-.8-3.65-1.26-4.11-5.86-6.59-2,.78-3.54,2.5-6.78,2.79,5.1-4.25-1.6-7-.37-10.87.28-.86-1.29-.91-1.92-.41-1,.8-1.57,2.17-4.08,2.53,4.19-5.1,3.16-9.58-1-14.19-.39,3.11,1,6.79-4.24,7-2.41.12,1.21,2.41.46,4.45h-6.77c-1.72.48-2.17,1.49-1.05,2.91s1,2.75,1.12,4.22l0,0c-4,3-8.87-.58-13.05,1.91-1.95,1.16-4.46,1.45-6.76,1.92-1.17.24-2.61,1.06-3.53-.71-1.65-3.18-5.6-4.05-7.32-7.19l-5.09.83.42-5a5.51,5.51,0,0,0-5.09,3.36c-1.32-3.11,1.19-4.84,1.08-7,.1-.34.21-.69.32-1l-1.1.22c-5.39-.2,1-4.46-2.08-5.47-2.07-.48-2.33,3.1-4.75,2.35-.41-2.56,2.37-3.84,2.62-6.5a15.54,15.54,0,0,0-9.56.66c-1,.47,1.4,1.53,1.31,3-1.63,1.41-6-.19-5.69,2.34.56,3.94-3.3,8.39,1.23,11.89a4.18,4.18,0,0,1,2.06,3.29c-10,.68-19.85,3.07-30,3.2-4.46.05-6-1.1-4.51-5.41-.76-.29-1.81-.37-2.24-.92-3.23-4.15-6.6-4.88-10.48-.85-.39.4-1.41.6-1.65-.3a2.21,2.21,0,0,1,.45-1.84c1.64-1.65,3.36-3.25,5.16-4.74a4.41,4.41,0,0,0,1.18-5.89c-1.24-2-3.16-.51-4.67.45-.41.27-1,.93-1.13.85-6-4.2-7.17,4.05-12,4.2C145.52,663.89,145.71,659.79,148.4,656.52Z" transform="translate(0)"/>
    <path class="cls-4" d="M691,613.85c-5.4,4.74-12.37,6-18.85,8.2-10,3.35-19.43,8.53-30,10.3-.69.11-1.27,1-1.9,1.49-1.94-1.33-4-3.2-5.24.67-3.78-1-7.38.53-11,1-21,2.42-41.49-.76-61.76-5.52-16-3.76-31.87-8.47-47.79-12.76a45.71,45.71,0,0,0-4.92-5.87c4.79.77,9.63.88,13.81,3.3,1.76,1,3.94,2.28,4.76.31,2-4.76,5.76-3.95,9.36-4q61.5,0,123-.06A54.79,54.79,0,0,1,674,612.27a15,15,0,0,0,8.31-.54C685.12,610.92,689.33,608.44,691,613.85Z" transform="translate(0)"/>
    <path class="cls-6" d="M47.38,645.09c10.62,2,21.23,5.42,31.87.09.78-.39,1.83-.71,2.31.08,2.86,4.66,7.45,3,11.46,3.2,7.39.3,14.77-.05,22.18.9,4.3.55,7.39,3.69,11.57,4l3.47,2.15c-1.25,1.7-3.32.38-4.67,1.82l5.24,3.57c-.44,3.32-10.12-3.1-5.41,5.51l-5.2,1.21,7.7,5c-2.49,0-3.72-.07-5,0-1.42.1-3.29-.91-4.15.74-1,1.81,1.87,2.09,2,3.76-.92,1.3-3.32.58-3.86,2.55a14,14,0,0,1-12.14,1.24c-.18-.06-.51.38-.78.59,0-2.39.09-3.82-3.61-3.06-5.06,1-10.33.85-14.12,6.41-.77-2.86.44-4.15.92-5.55,1.28-3.76,2.1-7.22.66-11.46-1-3.11-2.07-2.5-3.57-1.4-2.76,2-5.62,3.63-9.08,3.94,1.78-7.22-4.11-2.39-6.14-4-.65-1.64,2.07-1.31,2-2.75,3.28.63,6-1.8,9.22-1.78,1.7,0,2.68-1.79,2.06-3.86-.92-3.1-1.72-6.23-2.57-9.35,1.22,6.8-2.11,10.6-7.89,13-1,.41-1,1.23-.73,2.11-2.72-2.67-5.51-3.56-8.47-.34-5.41-3.27-6.87,3.85-11.49,4.09.6-2.15.88-4.41,1.83-6.32,1.91-3.81.72-7.43-.16-11.08-.74-3.05-2.48-1-3.14-.15-2.42,3-5.76,3.8-9.76,4.59l2.63-4.86a.56.56,0,0,0,.45-.26C47.06,650.53,44.88,645.45,47.38,645.09Z" transform="translate(0)"/>
    <path class="cls-5" d="M307.5,680.11c1.34-.09,2.81.15,4-.34,2.62-1.07,4.11-1.28,4.49,2.37.25,2.43,2.88,1.79,4.62,1.8,10.6,0,21.19.11,31.79,0,3.34,0,6.65,1.11,10,.26-.18,3.2.83,6.51-4.38,7.52-2,.39-6.28,3-5.55,6.61.81,3.9-1.13,3.83-3.6,3.88s-5.06,0-7.59,0l-17.14,0c-1.1-1.74-2.34-.41-3.54-.17-.78.16-2.12.51-2.08-.5.28-7.65-3.79.54-5.2-2.28.41-1.43,1-3.6,1.66-5.78.44-.33.7-.72.1-1.09-.1-.06-.46.31-.71.48-3-.43-3.25-2-1.57-4.32-2.17-1-3.18,1.07-4.73,1.17a1.76,1.76,0,0,0-.53-.62,26.17,26.17,0,0,1,1.82-3.94c1.8-2.65-.05-3-1.94-3.33C307.45,681.23,307.47,680.67,307.5,680.11Z" transform="translate(0)"/>
    <path class="cls-6" d="M640.23,653.72c.77,2,2.55,1.73,4.21,1.94,4.49.56,9.18.65,12.42,4.63.26.31,1,.62,1.26.48,3.14-1.68,8.54-.59,9.44-1.57,3.3-3.62,9.91-1.64,11.42-7.31,1.13.88,3.22,1.44,2.51,3.22-1.46,3.65-4.85,1.4-7.32,1.68-.36,2.06,1.82,2.6,1.85,4.2-1.27,1.31-2.38-.34-3.84-.3,0,3.26,2.77,4.74,4.08,7.06.53,1,2,2,.71,3.42s-2.07-.09-3.1-.4c-2.17-.66-4-2.77-6.84-1.67,1.6,2.3,4.43,3.72,4.77,6.77l-.12.1c-2.54.34-4.68-2.07-7.67-1,.8,2.24,2.53,3.67,4.08,5.3,1.18,1.25,4.34,2.7,3.14,3.78-1.87,1.7-2.65,5-6.33,4.92-3-.06-6.41-.25-9.11,1.94-1.48-.73-2.95-3.27-4.47,0-1.65-1.45-3.87-.36-6.21-1.48,4.57-2,7.77-5.49,12.81-6.88-2.9-2.81-6.36-2.9-9.32-4-2.38-.88-4.06-1.81-3.1-4.52s-.81-3.5-2.83-4.27c1.26-2.35,4-2.49,5.45-4.35-4-2.52-4-2.52.54-6.58-2.38-1-4.7-.51-6.93-.6-1.22,0-2.56-.19-3.11-1.25C637.8,655.43,639.33,654.65,640.23,653.72Z" transform="translate(0)"/>
    <path class="cls-5" d="M525.77,678.09c1.61,3.8,8,2.81,8.25,8.36.06,1.14,3.42.71,5.08,0a32.77,32.77,0,0,1,15.73-2.4c2.66.19,5.5-.88,6.77,3.31.78,2.55,2.24-.32,3.19-1,4.21-3.18,9.47-3.46,14.17-5.29.11.32.23.63.34,1l-1.72.64-1.44.31-.7,1.32c-1.76,4.65-1.67,11-9.85,9.36a4.6,4.6,0,0,0,3.92,2.56c1.57,1.13,2.87,2.82,1.8,4.49s-3.35.13-5.06.53a2.36,2.36,0,0,0-2.71.5c-4.14,4.1-8.76,5.65-14.48,3.2-2.95-1.26-6.14-.69-9.12.52l-1.49.4-4.33.81c1.09-4.16,6.4-6.9,4.24-10.66-.75-1.32-5.22-6.82-9.47-1.52-.48-2.23.87-3.36,1.16-4.8.15-.74.88-2.06-.16-2-6.26.38-.36-4-2.38-5.24-1.43-.89-2.8,1.43-4.59.24Z" transform="translate(0)"/>
    <path class="cls-4" d="M324.14,702.18l17.14,0c2.53,0,5.06,0,7.59,0s4.41,0,3.6-3.88c-.73-3.56,3.53-6.22,5.55-6.61,5.21-1,4.2-4.32,4.38-7.52l4-.21c1.17,1.21,2.13,2.68,3.92,3.09l.06.07c-.11,5.17,4.46,7.24,7.17,10.48.92,1.11,2.87.39,2.67-1.47-.37-3.4,1.87-2.94,3.84-3,2.25,0,4.59.14,4.66-3.12,1.23.84,3,1.63,1.23,3.39-3,3-1.57,5.2.82,7.62a80.42,80.42,0,0,1,5.24,6.71c-7-.51-13.3-1.94-18,3.38-1.71-2.48.32-4,.26-5.9-2.33-.43-3.6,2.23-5.83,2-.46-1.72.88-2.84,1.25-4.24s1.34-2-1.28-2.26c-3.94-.44,1.37-4-2.56-5.7-1.28-.23-1.71,3-4,3.41-.67-2.82,2.36-3.91,2.81-6.16.16-.34.32-.69.49-1l-1.26.08c-1.63-.71-3.28-.35-4.93-.13-4,.52-4,.51-2.25,4.29-1.38.13-2.69.32-4,.36-2.55.07-3.88.71-1.47,3.06s-.54,3-1.31,4.34c-3.82,2.48-.49,4.55.39,6.76.35.88,1.59,1.66.83,2.65a2.41,2.41,0,0,1-2.27.54c-4.33-3.29-8.89.51-13.47-.51-2.62-.59-5.82-1.5-8.67-.79-6.85,1.7-6.81,1.83-7-5.17,0-1-.11-2-.18-3Zm40.55-17.91c-.8,2.59-.38,4.26.81,5.69.56.66,1.42-.06,1.51-.52C367.41,687.43,365.58,686.46,364.69,684.27Z" transform="translate(0)"/>
    <path class="cls-5" d="M389.74,688.28c-.19-4.2,2-6.4,5.9-7.42.26-.07,5.7.23,1.79-3.32-.65-.58.53-1.51,1.39-1.46,1.48.11,3.77-1.21,4.15,1.3s2.24,3.62,3.67,5.19c.69.76,1.63,1.51,2.63,1.2,6.93-2.19,14.21,1.24,21.08-1.32,2.1-.78,3.55,0,4.81,1.58,1.38.66,2.45,2.68,2,3.17-5.7,5.86,2,8.41,3,12.55.22.92,1.39,1.49,1.18,2.43H428.39c-3.13,2.76-6.26,5.76-9.25-.2-.07-.15-.9.08-1.37.13-4.51-1.26-4.51-1.26-5-4.79l-5.65,3.15.09-.09c-.8-2.53.83-4.53,1.45-6.75,0-.39.06-.78.08-1.17l-1.07.29h-2c3.49-4-5.81-4.54-2.4-8.6.16-.2.06-.61.1-1.17-2,0-4-.09-5.91,0s-4-.2-3.87,3.08C393.63,687.85,391.53,688.38,389.74,688.28Z" transform="translate(0)"/>
    <path class="cls-5" d="M478,688.09a8.3,8.3,0,0,1,8-3.09c7.14,1,14.29,1.92,21.35,2.86-.55-3.58,0-4.36,2.91-3.84,1.34,1.83,3,3.5.48,5.79-1.34,1.24-.68,2.67.55,3.93,2.46,2.51,3.87,5.67,5.83,9.26L505,701.62c-1.12.26-2.45.22-3.33.83a8.29,8.29,0,0,1-9.73.4c-2.55-1.47-4.25.42-5.83,2.15-1.07.28-2.21.94-3-.51L481,694.77l-.24-.19-1.71.52-1.1-2.08,0,.05c1.12-.24,2.32-.45.85-1.87a.56.56,0,0,1-.72-.48Z" transform="translate(0)"/>
    <path class="cls-1" d="M323.57,703.77c.07,1,.16,2,.18,3,.18,7,.14,6.87,7,5.17,2.85-.71,6.05.2,8.67.79,4.58,1,9.14-2.78,13.47.51a2.41,2.41,0,0,0,2.27-.54c.76-1-.48-1.77-.83-2.65-.88-2.21-4.21-4.28-.39-6.76-.17,3.87,3.14,6,4.63,9,.57,1.14,1.84,1.93,1.95,3.71-4.27.32-8.36-1.42-12.45-.38.07,2.46,2.83,1.6,3.2,3.75l-5.94.51c.67,2.91,3.9,2.92,5,5.46-3.47.72-6.83,3.53-9.61-1.27-1.09-1.88-1.91,0-2.57.67-2,2.14-3.75,4.66-7.38,5.67,1-3,1.92-5.69,2.9-8.57-2.88-.32-4.51,3.39-7.62,2.57l7.06-10c-4.23-.33-7.66,1.49-11.52,1.74-.84-1.49,1.33-2,1.06-3.65l-3.89-.33C319.77,708.84,321.92,706.45,323.57,703.77Z" transform="translate(0)"/>
    <path class="cls-6" d="M718.18,659.61c4.51,0,9-.75,13.51.25,2.52,3,4.91,6.15,7.49,9.1,2.09,2.39-2.28,4.92-4.12,5.55-6.3,2.17-12.69,1.85-18.34-2.46a1.39,1.39,0,0,1-.46-1.72c.81-3.19-.88-4.58-4.26-4.93Z" transform="translate(0)"/>
    <path class="cls-5" d="M228.27,675.89c1.72,3.14,5.67,4,7.32,7.19.92,1.77,2.36.95,3.53.71,2.3-.47,4.81-.76,6.76-1.92,4.18-2.49,9.07,1.07,13.05-1.91-.7,3.85,3.29,5.61,4,8.85-1.39,3.52-4,2.25-6.36,1.52-1.91-.6-3.65-1.59-3.85,1.6l-.06.27h-.27l-.63,1.94c-2.09,0-1.49,2.89-3.92,3.34-.54-4.57-3.93-4.57-7.45-4.37a6.21,6.21,0,0,1-4.26-1.19l.08,0c2.13-.09,1.93-1.33,1.42-2.79-.93-2.67-3.21-1.9-5.13-2.08l-.92-.7c.65-2.28-.07-3.48-2.41-2.37-1.93.91-3.13.94-3.78-1.3C226.47,680.44,228.3,678.57,228.27,675.89Z" transform="translate(0)"/>
    <path class="cls-1" d="M538.45,705.79l1.49-.4c1.95,1.47,4.26.61,6.36,1,2.39.47,4.84,1.32,4,4.46-1,4,1.41,3.85,3.35,2.48,2.47-1.74,4.24-1.7,6.84-.36,1.63.83,4,.37,6,.39.79,0,1.94,0,1.39-1.34-1-2.51,1.59-4,1.65-6.12,2.29,1.22,5.25,3.89,4.45,5.29a8.19,8.19,0,0,1-7.1,4.27,51,51,0,0,0-7.58,1c.54,2.26,2.78,2.35,4.05,3.55,4.77,4.51,4.79,4.94,0,9.8-.58.59-1.11,1.58-2,1.14a2.74,2.74,0,0,1-1.17-2c-.11-3.58-1.8-6.39-3.47-9.47-1.89-3.51-3-1.75-3.94,0-1.53,2.73-3.31,5-6.69,6.13.75-3,1.46-5.87,2.22-8.9-2.88-.88-4.42,2.8-7.18,1.62,2.17-3.2,6-5.19,6.93-9.78-4.3-.25-7.48,3.3-11.47,2.65C536,708.9,538.84,707.92,538.45,705.79Z" transform="translate(0)"/>
    <path class="cls-5" d="M169.47,676.63c-1.48,4.31.05,5.46,4.51,5.41,10.12-.13,19.94-2.52,30-3.2.59,1.34,2.49,3.2-1.07,3a29.58,29.58,0,0,0-8.44.28c.15,1.92,4,1.88,2.65,3.85-1.21,1.75-4,.54-6,1.07h-2.13c-1.54-.14-.28-3.84-3.06-2.4,1.09,3.88-3.55,4.13-4.32,6.84l.05-.1L174,691c-2.1-1.34-5.46-.12-6.53-3.85-.45-1.56-3,0-4.55-.22-.92-.12-2.1.69-2.72-.43s.59-1.72,1.27-2.36C164.13,681.64,166.8,679.14,169.47,676.63Z" transform="translate(0)"/>
    <path class="cls-6" d="M717.17,690.05c1-1.9,4-2.22,3.13-4.51-.64-1.79-3.11-.47-4.48-1.47,7.1-5.51,11.31-6.32,15.8-3.26,1.4,1,2.37,1.82,1.63,3.65-.85,2.12.36,3.89,1,5.78.43,1.23,2.16,2.58-.09,3.82-1.76,1-3,.44-4.46-.84-2-1.73-3.44-4.12-6.16-5-.75,1.49.34,2.74.25,4-.11,1.46,4.13,4.44-1.51,4.49-1.33,0,.35,3.29-.35,5-4.41-2.43-4.66-6.21-.56-10.13C720.37,690.22,718.52,690.57,717.17,690.05Z" transform="translate(0)"/>
    <path class="cls-5" d="M104,681.53c.27-.21.6-.65.78-.59A14,14,0,0,0,117,679.7c1.8,4,7.43,3.74,9.16,8.25l-5.71.45c-.16,2.05,2.47,1.89,2.29,4.07-2.27,0-4.55.09-6.82,0-1.41-.08-1.2.66-1,1.51-.37,1.14.4,2.69-1.16,3.37-2.34-1.05-.53-4.25-2.86-5.26-1.94-.87-6.28,2.06-5.33-3.37l-6.64.51C99.74,685.81,102,683.72,104,681.53Z" transform="translate(0)"/>
    <path class="cls-5" d="M448.46,676c3.52-.3,4.57,3.3,6.16,5,3.17,3.35,7.47,5.4,10.54,10.68.09-6.3,2.44-8.86,7.67-7.65a5.24,5.24,0,0,0,.14,1c1.69,4.47,1,7.37-4.54,6.75-1,1.84,1.79,2.06,1.05,3.71a5.23,5.23,0,0,1-1.22.27c-2.13,0-4.4-.53-6.36,0-3.41.94-5,.84-2.88-3.2-2.39-.56-3.56,1.58-5.63,1.52-.82-2.17,4.15-5.89-1.52-7.07-.12,0,.38-3.06.59-4.75-2.15-.33-3.32,1.62-5.25,1.85-.9-1.17.45-1.76.88-2.37,1.23-1.74,3.11-3.35-.47-4.53Z" transform="translate(0)"/>
    <path class="cls-4" d="M307.5,680.11c0,.56-.05,1.12-.08,1.69a3.8,3.8,0,0,1-2.69,1.16c-4.34-.39-5.36,1.19-2.22,5.1l-7.25.64c4.4,4.07-1.92,6.75-.57,10.44l-8.14,2.22c-2.12-.88,2.39-4.66-2.5-3.7-2.09.42-1.44-1.33-.84-2.32s1.69-2.09,2.46-3.19c1-1.38,2.38-3,1.57-4.57-1-1.82-3,0-4.4-.07-1.24-2.34,1.18-4,.66-6,4.6,2.48,5.06,2.94,5.86,6.59.26,1.15.18,2.43,1.74,2.63,1.22.15,1.48-1.17,2.19-1.59C298.13,686.29,301.12,680.49,307.5,680.11Z" transform="translate(0)"/>
    <path class="cls-1" d="M110.82,692.06c2.33,1,.52,4.21,2.86,5.26,1.56-.68.79-2.23,1.16-3.37,2,1.32,4.47,2.44,1.22,5.12-2.06,1.69-1.65,3.31.45,4.88a33.34,33.34,0,0,1,8.2,8.8H114.43c-.77-1.56,1.45-3.42.31-5.3-1.5-.15-1.9,1-2.4,2a1.45,1.45,0,0,1-2.09.75c-1-.56-.53-1.35,0-2.06s2.24-2,.71-2.59c-1.76-.7-1.43-5-4.88-2.71-1,.65-2.61.31-4.94.5A47.76,47.76,0,0,0,110.82,692.06Z" transform="translate(0)"/>
    <path class="cls-4" d="M486.13,705c1.58-1.73,3.28-3.62,5.83-2.15a8.29,8.29,0,0,0,9.73-.4c.88-.61,2.21-.57,3.33-.83-1.18,2.75,2.53,2,2.5,4.3l-5.25.71,4.5,5.38c-2.49.75-5,1.48-5.33,4.59-.15-3.15-1.48-1.71-2.65-.66s-2.18,1.87-3.56.92c-1.2-.82-.75-2-.27-3.17,1.09-2.66-.53-4-2.64-5-.47,0-1.11-.32-1.38-.11-1.26,1-2.61,2.74-4.11,1.81-1.78-1.11.22-2.9.2-4.41C487,705.63,486.45,705.32,486.13,705Z" transform="translate(0)"/>
    <path class="cls-4" d="M569.53,705.91c-.06,2.16-2.68,3.61-1.65,6.12.55,1.31-.6,1.35-1.39,1.34-2,0-4.33.44-6-.39-2.6-1.34-4.37-1.38-6.84.36-1.94,1.37-4.38,1.56-3.35-2.48.8-3.14-1.65-4-4-4.46-2.1-.4-4.41.46-6.36-1,3-1.21,6.17-1.78,9.12-.52,5.72,2.45,10.34.9,14.48-3.2a2.36,2.36,0,0,1,2.71-.5Z" transform="translate(0)"/>
    <path class="cls-5" d="M11.27,676.87c1-.08,2.4-.61,2.92-.15,3,2.64,6.22,3.08,9.87,2,.44,2.36,2,3.72,4.09,4.65a9,9,0,0,1,5,4.29c-2,1.31-4.64-.46-6.53,1.33-1.82,3-4.92.57-7.18,1.69-2.94,1.45-3.89,0-4.07-2.71l.87-1,1.11-2.21,1-2.22c-3.65.71-5.41-5.71-9.78-2.53a6.22,6.22,0,0,1-4.3.88l4.54-4.5.57.47a1.15,1.15,0,0,0,1.93,0Z" transform="translate(0)"/>
    <path class="cls-4" d="M417.77,702.11c.47-.05,1.3-.28,1.37-.13,3,6,6.12,3,9.25.2l4.92,3.8-5.91.61c.6,2.39,2.61,3.5,3.9,5.35-5.25,2.41-10.85,3.08-16.26,4.39-.69-1.83,1.48-2.2,1.43-3.91h-4.65Z" transform="translate(0)"/>
    <path class="cls-4" d="M251.73,694.13l.63-1.94,4.27,3.46c-1,2.08-3.64,1.27-5.2,3l4.13,3.35c-2.44,1.08-5.47,1.45-5.32,5.19-.88-4.07-3.17-7-6-10-1.73,2.14-3.57,4.29-6.82,3.6-.52-1.94,1.31-3.54.53-5.45-2.86-.89-3.44,2.65-6.1,3.12.23-3.18,2.56-4.68,4.25-6.55a6.21,6.21,0,0,0,4.26,1.19c3.52-.2,6.91-.2,7.45,4.37C250.24,697,249.64,694.14,251.73,694.13Z" transform="translate(0)"/>
    <path class="cls-5" d="M388.74,690c-.07,3.26-2.41,3.08-4.66,3.12-2,0-4.21-.42-3.84,3,.2,1.86-1.75,2.58-2.67,1.47-2.71-3.24-7.28-5.31-7.17-10.48,3.42-1.54,6.36-3.44,10.78-2.94,3.68.41,5.82,1.65,7.78,4.25C388.89,689,388.81,689.51,388.74,690Z" transform="translate(0)"/>
    <path class="cls-5" d="M651.32,690.91c1.52-3.23,3-.69,4.47,0a25.24,25.24,0,0,1,6.86,4c0,1.63-.09,3.26,0,4.88.23,3.07-1,4.65-4.19,4.39l-5.05-4c-1.52,1.35-.31,3.81-1.86,5.33-1.57-1.34-.63-4-3-4.41a.53.53,0,0,1,0-.81,2.31,2.31,0,0,0,1.93-1.86c.47-1,1-2,1.51-3.24l-6.16-.49C647.37,692.53,649.57,692,651.32,690.91Z" transform="translate(0)"/>
    <path class="cls-6" d="M688.39,658.57l2.63,2.08q3,3.27,6.07,6.55c-4.87,3.22-15.13,3.56-14.38,1.91,1.37-3-1.75-4.9-1-6.4C682.94,660.49,685.86,659.48,688.39,658.57Z" transform="translate(0)"/>
    <path class="cls-1" d="M492.32,708.67c2.11,1,3.73,2.36,2.64,5-.48,1.17-.93,2.35.27,3.17,1.38.95,2.51,0,3.56-.92s2.5-2.49,2.65.66c-1.78,5.88-6.13,7.78-11.91,7.58-.48-1.85,2.39-2.3,1.76-4.23-1.42-1.29-3.18.39-5.07-.59A25.89,25.89,0,0,0,492.32,708.67Z" transform="translate(0)"/>
    <path class="cls-4" d="M174,691l7.58.36c-1.12,2,1.63,2.17,1.74,3.63-.91,1.54-2.41.63-3.59.77-2.51.31-4.79.47-1.84,3.53,1.48,1.54.14,2.4-.89,3.19a17.17,17.17,0,0,1-6.36,3C169.74,700,172.72,695.68,174,691Z" transform="translate(0)"/>
    <path class="cls-6" d="M760,665.09a3,3,0,0,0,.14,1c1.15,2.33,1.28,6.38,4.3,6.08,2.26-.22-1.87-3.41.12-5.23,1.48,1.81,2.92,3.66,4.46,5.42s2.25,3.67,4.5,4.78c-3.23,1.54-12.23.42-14.13-1.42a3.28,3.28,0,0,1-.75-2.79c.15-3.64.13-3.64-2.27-5.24A8.08,8.08,0,0,1,760,665.09Z" transform="translate(0)"/>
    <path class="cls-4" d="M15.34,688c.18,2.67,1.13,4.16,4.07,2.71,2.26-1.12,5.36,1.31,7.18-1.69l3.57,2.6c-1.06,1.56-2.34.78-3.41.91-2,.26-4.83-1.42-3.89,3.35.5,2.56-3,4.79-5.62,6.5-1.43-2.7,3.73-3.48.88-7.7-3.09-4.57-5.85.81-7.72-2.56C11.39,690.73,13.38,689.38,15.34,688Z" transform="translate(0)"/>
    <path class="cls-4" d="M569.51,696.15a4.6,4.6,0,0,1-3.92-2.56c8.18,1.62,8.09-4.71,9.85-9.36a7.18,7.18,0,0,1,.92-.2c1.5.83,1.71,2.5,2.07,3.84.45,1.71-1.06.22-1.54.61-.72-.44-1.64-1-2.25-.25-.47.56.34,1.1.87,1.46,2,3.44,5.65,5.76,7,10.21-2.91-.57-5.35-1.21-7.59-3.22C573.65,695.53,571.55,693.66,569.51,696.15Z" transform="translate(0)"/>
    <path class="cls-5" d="M599.81,695.81c4.1-.64,5.83-4.4,8.76-6.59.9,1.88,0,4.24,1.87,6,.58.55,2.6,3.27-1.06,4-2,.38-.2,3-1.29,4.59C604.75,701.44,601.45,699.52,599.81,695.81Z" transform="translate(0)"/>
    <path class="cls-1" d="M31.51,712.42c-2.12.41-4,1.51-5.61-.73-1.31-1.87-2.21.34-3.14.88-1.11.64-2.29,1-3.29.45-1.33-.79-.43-2-.12-3.08,2.13-7.66,2.88-7.85,8.53-2.32C29.31,709,29.73,711.1,31.51,712.42Z" transform="translate(0)"/>
    <path class="cls-6" d="M618.39,660.79c1.73-1.42,4.8-2,2.63-5.53-.74-1.19.83-1.62,1.79-1.56,2.22.14,3.24-1.28,4.2-2.88,2.79,2.82,5.66,5.58,7.85,9.16-4.23.54-7.24-3.48-11.3-2.27-.22,1.13.75,1.42,1.22,2s1.66,1.45.67,2.5c-.61.66-1.48.4-2.32.08C621.58,661.73,620,661.29,618.39,660.79Zm9.42-6.15-.16-.32-.17.32Z" transform="translate(0)"/>
    <path class="cls-1" d="M596.3,699.1l1.42-.93c2.81,4.86-.5,8.48-2.82,12-1,1.48-2.95.14-4.16-1-1.85-1.73.16-2.07,1.08-2.71,1.34-.92,2.75-1.75,4.48-2.85l-4.54-1.75Z" transform="translate(0)"/>
    <path class="cls-1" d="M495.86,731.11c.42-1.5.4-2.19.71-2.4,1.81-1.25,2.09-4.69,4.88-4.21,3.09.53,2.44,4.54,4.65,6.2a3.22,3.22,0,0,1-.86,2.54,6.45,6.45,0,0,1-3.87.69c-1.29-.23-.85-1.53-.51-2.49.26-.76.84-1.5.13-2.49Z" transform="translate(0)"/>
    <path class="cls-6" d="M225.36,682.63c.65,2.24,1.85,2.21,3.78,1.3,2.34-1.11,3.06.09,2.41,2.37-.76,2.51-1.69,4.83-5.48,3.92-.58-.74,3.7-3.89-1.26-3.47C222.51,687,222.46,686.34,225.36,682.63Z" transform="translate(0)"/>
    <path class="cls-4" d="M648.61,701.17c2.33.45,1.39,3.07,3,4.41,1.55-1.52.34-4,1.86-5.33.38,3.73,2.82,7,2.56,11.39a37.65,37.65,0,0,0-7-3.95C645.84,706.46,649.56,703.37,648.61,701.17Z" transform="translate(0)"/>
    <path class="cls-1" d="M302,707.23c-3.48,1.18-6.39-2.16-10.16.66,1.45-3.47,3.18-6.53,5-6.48C299.19,701.48,300.32,704.81,302,707.23Z" transform="translate(0)"/>
    <path class="cls-4" d="M658.48,704.26c3.2.26,4.42-1.32,4.19-4.39-.11-1.62,0-3.25,0-4.88,1.76,1.56,3.24,10.54,1.68,11.74C661.18,709.16,660.23,705.59,658.48,704.26Z" transform="translate(0)"/>
    <path class="cls-5" d="M765,694.71c2.68.59,1.65,3.32,2.75,4.86.58.81-.26,1.45-1.2,1.72-1.13.32-2.24,1-3.25-.2-.77-.88-1.52-1.65-1.25-3.08.34-1.77,1.84-2.3,2.88-3.32Z" transform="translate(0)"/>
    <path class="cls-1" d="M595.13,745.68c1-1.3-.06-3.24,1.76-3.62a2.83,2.83,0,0,1,2.22.79c1.4,1.53-.42,1.74-1.13,2.5-1.23,1.31.31,1.47,1,2s.8,2,2.17,1.48a.9.9,0,0,0,.39-.8c-.29-1.19-1.08-.79-1.91-.61C597.71,747.85,595.73,748.26,595.13,745.68Z" transform="translate(0)"/>
    <path class="cls-4" d="M252.69,691.93c.2-3.19,1.94-2.2,3.85-1.6,2.31.73,5,2,6.36-1.52a7,7,0,0,1,2.73,4.05Z" transform="translate(0)"/>
    <path class="cls-6" d="M61.94,674.81c-.51-1.89,1.07-2.7,2-3.77s1.94-3,4.06-2.1c.73.32,1.86,1,1.84,1.51-.07,2-2.19,1.59-3.32,2.41-1.31.95-2.25,2.55-4.2,2.33Z" transform="translate(0)"/>
    <path class="cls-1" d="M385.23,717.25c-3-.16-4.83,2.17-7.51,2.74C380.42,713.71,381.28,713.37,385.23,717.25Z" transform="translate(0)"/>
    <path class="cls-1" d="M458.45,706.06c1.5-2.24,3-4.37,4.36-6.57.54-.87,1.06-.46,1.54-.15s.95.86.87,1.06c-.83,1.89-2.54,3.23-3,5.44C462,706.55,459.94,706.78,458.45,706.06Z" transform="translate(0)"/>
    <path class="cls-1" d="M188.92,687h2.13l4.82,4c-.69,1.83-3.34.34-3.78,2.36l.1.11C192,690.87,187.71,690.36,188.92,687Z" transform="translate(0)"/>
    <path class="cls-4" d="M765,694.69c-.9-3.06-3.84-.63-5.6-2.22,2.07-1.3,3.81-3,6.23-3.3,1.66,2.24-1.75,3.58-.56,5.54Z" transform="translate(0)"/>
    <path class="cls-1" d="M792.6,700.12c.17-1.35,1.34-1.47,2.07-2,1.15-.93,1.57-3.12,3.7-2.25.33.13.59,1.37.34,1.78-.91,1.58-2,3.16-4.21,2.8Z" transform="translate(0)"/>
    <path class="cls-4" d="M478,688.09v2.63a7,7,0,0,1-2.63,0c2.45-2.9-1.34-4.38-1.4-6.62C477.15,683.61,478.14,685.28,478,688.09Z" transform="translate(0)"/>
    <path class="cls-4" d="M792.69,693.78c2-1.11,3.62-3.13,6.07-2.33.41.14.79,2,.57,2.14C797.27,695,795,694.17,792.69,693.78Z" transform="translate(0)"/>
    <path class="cls-1" d="M422.81,730.4c2.81-1.48,1.68-4.84,4.39-5.23.69-.1,1.49,1,1.27,1.89C427.86,729.49,426.06,730.26,422.81,730.4Z" transform="translate(0)"/>
    <path class="cls-4" d="M181.54,691.48c.77-2.71,5.41-3,4.32-6.84.61,2,1.23,4,1.95,6.42Z" transform="translate(0)"/>
    <path class="cls-5" d="M258.89,680c-.11-1.47-.12-2.94-1.12-4.22s-.67-2.43,1.05-2.91a2.4,2.4,0,0,0,.87,2.57C262.31,677.45,261,678.79,258.89,680Z" transform="translate(0)"/>
    <path class="cls-5" d="M581.74,681.94c.3-3-1.42-6.37,1.3-9.06-1.73,3.13,1,6,.54,9Z" transform="translate(0)"/>
    <path class="cls-4" d="M232.47,687c1.92.18,4.2-.59,5.13,2.08.51,1.46.71,2.7-1.42,2.79C238.4,687.62,232.38,689.64,232.47,687Z" transform="translate(0)"/>
    <path class="cls-1" d="M192.09,693.37c-1.2,1.9-.84,5.36-4.66,4.64l0,.16c1.62-1.55,1.36-5,4.79-4.69Z" transform="translate(0)"/>
    <path class="cls-4" d="M477.93,693l1.1,2.08-3.45,4.72C474.64,695.64,476.55,694.45,477.93,693Z" transform="translate(0)"/>
    <path class="cls-4" d="M581.74,681.94l1.84,0c-1.69,3-3.89,1.51-6,.68l1.72-.64Z" transform="translate(0)"/>
    <path class="cls-5" d="M12,672.4c-.22,1.49-.45,3-.68,4.47l0,0-1.93,0-.57-.47C10,675.25,9.93,673,12,672.4Z" transform="translate(0)"/>
    <path class="cls-5" d="M11.81,667.65c2.58,1.56,1.57,3.36.35,5.18C12.05,671.1,11.93,669.38,11.81,667.65Z" transform="translate(0)"/>
    <path class="cls-4" d="M650.55,698.5a2.31,2.31,0,0,1-1.93,1.86C648.65,699.1,649.72,698.92,650.55,698.5Z" transform="translate(0)"/>
    <path class="cls-4" d="M478.74,691.2c1.47,1.42.27,1.63-.85,1.87Z" transform="translate(0)"/>
    <path class="cls-4" d="M17.32,684.82,16.21,687C16.36,686.18,16.26,685.21,17.32,684.82Z" transform="translate(0)"/>
    <path class="cls-1" d="M187.43,698l.19.26-.22-.11Z" transform="translate(0)"/>
    <path class="cls-4" d="M480.74,694.58l.24.19Z" transform="translate(0)"/>
    <path class="cls-5" d="M407.09,700.47l-.16-.08.25,0Z" transform="translate(0)"/>
    <path class="cls-5" d="M308.07,689.69c-.4.33-.82.69-1.17,0,0-.08.42-.41.64-.63A1.76,1.76,0,0,1,308.07,689.69Z" transform="translate(0)"/>
    <polygon class="cls-3" points="774.33 668.76 774.46 668.95 774.29 668.75 774.33 668.76"/>
    <path class="cls-6" d="M576.36,684a7.18,7.18,0,0,0-.92.2l.7-1.32Z" transform="translate(0)"/>
    <path class="cls-6" d="M671.8,675.87l.47.51-.58-.41Z" transform="translate(0)"/>
    <path class="cls-6" d="M62.35,675.19c-.32.46-.67.64-1.11.14l.7-.52Z" transform="translate(0)"/>
    <path class="cls-4" d="M358.12,511.43c-1,0-2.21.31-3-.12-2.52-1.36-4.62-1.79-6.51,1a2.45,2.45,0,0,1-3.22.77c-3.55-2.39-7.51-1.35-11.31-1.65-.28-5.37-1.8-9.9-7.46-12-2.33-.86-3.08-2.9-2.87-5.36.15-1.76-.09-3.82-2.18-4-4.12-.3-7.92-2-11.93-2.42-2.56-.24-4.76-.45-5.71-3.09-.85-2.36,0-4.21,2.13-5.61,2.89-1.92,4.15-4.24,2-7.64-1-1.48-.52-3.09.66-4.66,2.87-3.81,1.24-7.27-3.62-8.25a47,47,0,0,1-4.74-1.45l-1.83-4.35c2.38-3.52,4.94-6.93,7.12-10.58,2.54-4.26,5.48-8.12,9.81-10.6,3.07-1.76,2.73-5.49,5.16-7.69,5.42-4.9,8.16-12.4,15.21-15.8a4.42,4.42,0,0,0,1.67-1.85c4.51-8,12-10.33,20.83-7.68,6.84,2.05,12.66,5.49,18.47,9.42,3.08,2.08,7.17,2.52,10.5,4.54,7.21,4.37,14.25,9.18,21.89,12.63,8.61,3.88,16,10.11,25.34,12.5.79.21,1.93.52,2.18,1.1,2,4.51,6.42,5.78,10.12,8-.13.63-.26,1.26-.4,1.88a4.38,4.38,0,0,0-3.85,1.73c-2.1.53-2.83,3.75-5.35,3.11-3.89-1-4.08,1.34-4.13,4l-1.94-.22c-2.84-1.1-1.18,3.1-4.06,3.17-4,.09-6.55,3.2-6.91,7.52l0,0c-2.9-1-5.22-1.69-4.71,3.1.4,3.68-3.1,4.37-5.63,4.35-3.19,0-6.42-1.3-6.5,3.78,0,.33-1.44,1-2.16.9-4.24-.42-6.21,1.83-7.06,5.61-.32,1.45-1.46,2-2.66,2.72-3.49,2.22-7.88,3.46-9.66,7.81-1.4,3.42-7.33,7.32-10.86,6.61-4.17-.83-4.7,1.23-4.28,4.48l-2.26,1.25-3.15-1.15c-1.54-1.16-2.51-.76-2.94,1.08C358.25,509.4,358.19,510.42,358.12,511.43Z" transform="translate(0)"/>
    <path class="cls-6" d="M57,601.66C41.3,595.93,26.78,587.86,12.64,579c-2.14-1.34-4.38-2.51-6.53-3.83-1.12-.68-2.67-1.41-2.16-3s2-1.35,3.43-1.27c18.69,1,37.4.19,56.09.43,2.8,0,4.6-.88,4.55-4a43.61,43.61,0,0,0,29.58,5.46,22.46,22.46,0,0,1,13.77,1.76c9.2,4.47,19.32,5.23,29.15,6.91,12.48,2.13,25.23.49,37.8,2,4,.48,7.71-1.29,11.54-2.84,8.56-3.47,16.52-8.21,25.14-11.52,3.32,3.48,7.64,2.51,11.48,2a93.51,93.51,0,0,1,12.6-.73q30.64,0,61.3,0c8.43,0,16.78,1.38,25.25,1.1,7.24-.24,14.46-.5,21.7-1,11.79-.82,23.54,1.19,35.35,1.22,1.36,0,2.66.45,3.71-.78,1.19-1.39,2.37-1.18,3.31.22,1.21,1.8-.56,2.4-1.54,3.09-7.26,5.15-14.68,10.09-21.84,15.38C361,593.5,356,597.75,350,600.52c0-1.25-.17-2.41-1.83-2.46-4.35-.1-8.7-.3-13.05-.3q-131.46,0-262.91,0a88.16,88.16,0,0,1-11-.47C57.45,596.79,56.76,598.64,57,601.66Z" transform="translate(0)"/>
    <path class="cls-1" d="M275.09,653.63c-7.43,3-14.81,6.23-22.3,9.12-6.66,2.57-13.39,4.69-19.55-1.39-2.13-2.1-5.16-2.53-7.89-3.18-12.65-3-25.64-3.41-38.51-4.65-12.59-4.39-25.17-8.83-37.79-13.13-3.12-1.06-5.42-4.08-9.09-3.76-1.55-1.47-1.22-3.74-2.47-5.62-.18,1.48-.34,2.78-.5,4.08l-16.26-6.49c-1.28-3-1.28-4.72,3-4.65,3.08,0,6.46-3.16,8.62,1.74.27.63,1.58.18,2.3-.3a7.4,7.4,0,0,1,6.29-.79c7.34,2.83,15,1.13,22.27,1.23,45.9.62,91.82.31,137.74.31,6.48,0,6.48,0,4.51,6a.45.45,0,0,1-.47.24l-1.49,1C294.73,641.08,284.33,646.55,275.09,653.63Z" transform="translate(0)"/>
    <path class="cls-4" d="M215,569.13c-8.62,3.31-16.58,8-25.14,11.52-3.83,1.55-7.52,3.32-11.54,2.84-12.57-1.49-25.32.15-37.8-2-9.83-1.68-20-2.44-29.15-6.91a22.46,22.46,0,0,0-13.77-1.76A43.61,43.61,0,0,1,68,567.38c-8.86-3.38-18.16-4.57-27.53-4.91-7.77-.27-15.4-1.5-23.09-2.36-1.51-3.69-.43-5.36,3.7-5,4.57.37,9.52,1.86,12.55-3.51a1.45,1.45,0,0,1,1.39-.2c4.43,4.56,10.6-.14,15.31,2.91a2.57,2.57,0,0,0,2.87-.13c1.79-1.15,3-1,4,1.18,1.55,3.63,4.24,3.58,7,1.56,3.37-2.49,6.77-2.83,10.93-2.24,5.39.76,11.11,1.82,16.19-1.73a2.74,2.74,0,0,1,1.89-.54c10.93,2.44,21.63-1.54,32.4-1.12,9.59.37,19.19,1.18,28.77.71,16.64-.81,33.23-2.8,49.94-1.94,7.22.38,14.41,1.45,21.68,1.05,2.28-.13,3.45,1,3.57,3.26a49.85,49.85,0,0,1-13,12.32C215.81,567.17,215.5,568.29,215,569.13Z" transform="translate(0)"/>
    <path class="cls-5" d="M57,601.66c-.25-3,.44-4.87,4.18-4.4a88.16,88.16,0,0,0,11,.47q131.46,0,262.91,0c4.35,0,8.7.2,13.05.3,1.66.05,1.81,1.21,1.83,2.46-6.26,5.14-12.71,10-20,13.6-2.7-3.44-5.34-6.72-10.43-3.55-1.14.71-3,.36-4.49.36q-109.3,0-218.61,0c-1.68,0-3.58.2-5-.5-4-2-4.73.3-5.1,3.41C76.23,610.63,66.12,607.36,57,601.66Z" transform="translate(0)"/>
    <path class="cls-4" d="M86.37,613.84c.37-3.11,1.07-5.43,5.1-3.41,1.4.7,3.3.5,5,.5q109.31,0,218.61,0c1.51,0,3.35.35,4.49-.36,5.09-3.17,7.73.11,10.43,3.55-2.07,3.79-6,5.22-9.41,7.23-5.35,3.15-9.31,8.24-15.11,10.77,2-6,2-6-4.51-6-45.92,0-91.84.31-137.74-.31-7.3-.1-14.93,1.6-22.27-1.23a7.4,7.4,0,0,0-6.29.79c-.72.48-2,.93-2.3.3-2.16-4.9-5.54-1.69-8.62-1.74-4.28-.07-4.28,1.63-3,4.65-10.17-4.79-20.88-8.21-31.35-12.22C88,615.86,87.39,614.67,86.37,613.84Z" transform="translate(0)"/>
    <path class="cls-6" d="M366.66,507.2c-.42-3.25.11-5.31,4.28-4.48,3.53.71,9.46-3.19,10.86-6.61,1.78-4.35,6.17-5.59,9.66-7.81,1.2-.76,2.34-1.27,2.66-2.72.85-3.78,2.82-6,7.06-5.61.72.07,2.15-.57,2.16-.9.08-5.08,3.31-3.81,6.5-3.78,2.53,0,6-.67,5.63-4.35-.51-4.79,1.81-4.1,4.71-3.1l.15.18-.18-.15c.36-4.32,2.87-7.43,6.91-7.52,2.88-.07,1.22-4.27,4.06-3.17.5,4.19,2.25,5.55,6.49,3.58,2.74-1.27,6.15-5.68,8.89.28.08.15.71.22.95.09,7.48-3.95,14.68,1.22,22.05.69,1.44-.11,3.27-.43,4,1.32,1,2.43.08,4.68-1.43,6.59-4.47,5.66-7.84,12.21-12.53,17.56-5.7,6.5-7.45,14.58-11.14,21.87-1,1.92-1.3,4.22-3.37,5.44-5.4-3.12-11-3.82-17.33-3.32-11.57.92-23.17-1.67-34.8-.74-6,.48-12-.45-18,.83C371.07,512.19,369.64,508.15,366.66,507.2Z" transform="translate(0)"/>
    <path class="cls-5" d="M691,613.85c-1.69-5.41-5.9-2.93-8.71-2.12a15,15,0,0,1-8.31.54,54.79,54.79,0,0,0-13.53-1.37q-61.51.11-123,.06c-3.6,0-7.39-.8-9.36,4-.82,2-3,.71-4.76-.31-4.18-2.42-9-2.53-13.81-3.3a45.71,45.71,0,0,1,4.92,5.87c-14-5.6-29.26-7.86-42.63-15.31a29.2,29.2,0,0,1,15.05-4.12H718.78c3.38,0,6.75.06,10.13,0,2.49,0,3.85.94,3.74,3.56q-17.19,5.31-34.4,10.63C695.87,612.67,693.64,614,691,613.85Z" transform="translate(0)"/>
    <path class="cls-4" d="M291.37,550.8c-.05-3.18-2.12-3.84-4.76-3.89a3.53,3.53,0,0,1-3.78-3.36c-.16-2.18,2-2.55,3.49-3,3.23-1,6.29.27,9.26,1.33,1.45.52,2.77,1.38,4.31.63,10.27-5.1,21.2-2.49,31.76-2.14,13.8.44,27.54,1.28,41.28-.76,7.14-1.06,14.33-2.25,21.57-1.61,4.32.38,8.52,2.75,12.93.06a2.32,2.32,0,0,1,3.07,1c.68,1.3,0,2.28-1,3.08-1.45,1.24-1.59,2.9-1.61,4.61a20.31,20.31,0,0,1-9.16,2A41.42,41.42,0,0,0,375,556a2.16,2.16,0,0,0-2.67,1.92l-.08.06c-5.68.86-11.51.49-17.11,2-10.11-.38-20.4.29-30.23-2.1C313.77,555.22,302.4,553.82,291.37,550.8Z" transform="translate(0)"/>
    <path class="cls-6" d="M433.06,457.4c.05-2.69.24-5,4.13-4,2.52.64,3.25-2.58,5.34-3.11l1,.41C442.6,456.87,436.63,455.27,433.06,457.4Z" transform="translate(0)"/>
    <path class="cls-6" d="M355.12,560c5.6-1.56,11.43-1.19,17.11-2-.35,2-1.9,2.09-3.47,2.09C364.21,560.05,359.66,560,355.12,560Z" transform="translate(0)"/>
    <path class="cls-6" d="M372.31,557.9A2.16,2.16,0,0,1,375,556C376.16,559.49,373.32,557.43,372.31,557.9Z" transform="translate(0)"/>
    <path class="cls-5" d="M443.56,450.67l-1-.41a4.41,4.41,0,0,1,3.86-1.73A2.58,2.58,0,0,1,443.56,450.67Z" transform="translate(0)"/>
    <path class="cls-6" d="M575.65,444.77c-.1.61-.2,1.22-.31,1.83-.65-.11-1.36-.29-1.22-1.1S575,444.72,575.65,444.77Z" transform="translate(0)"/>
    <path class="cls-4" d="M303.5,633.34l1.49-1Z" transform="translate(0)"/>
    <path class="cls-1" d="M670.91,315.68c-1.42-.27-3.64.41-3.62-1.72,0-2.6,2.44-2.26,4.23-2.32s3.84.45,3.56,2.54C674.77,316.52,672.36,315.3,670.91,315.68Z" transform="translate(0)"/>
    <path class="cls-1" d="M694,320.76c-2.65,1.18-5.28,1.34-8.93.09A9.9,9.9,0,0,1,694,320.76Z" transform="translate(0)"/>
    <path class="cls-3" d="M298.49,452.63l1.83,4.35c.82,2.16,3,2.49,4.67,3.53s3.08,2.34,1.77,4.56c-1.09,1.85-2.6,2-4.26.78-2.79-2-5.54.18-8.33,0-13.48-.61-26.9,1-40.37,1.26-6.47.1-13,0-19.5.38a7.82,7.82,0,0,1-7.22-3.91c3.49-4.18,6.58-9.19,13.42-6.18.95.42,2.36.27,2.81-.59,2.67-5.11,9-3,12.46-6.56,2.33.34,2.94-1.12,3.08-3,.24-3.06,2-3.32,4.15-2,3.17,2,4,.21,4.79-2.43,1.12-3.61,1.49-7.7,5.75-9.51,1.49-.64.6-2.1.49-3.17-.3-3,.85-5.15,3.54-7.36-.27,3.16-.67,5.74-.67,8.31s-1.63,7,4.12,4.77c.64-.24,1.7.07,1.64.71-.42,4,3.52,4.89,5,7.41,1,1.74,1.66,2.21,3.37,1.33a2.79,2.79,0,0,1,1.36,0c0,3.84,4,3.7,5.73,5.79C298.45,451.51,298.39,452.13,298.49,452.63Z" transform="translate(0)"/>
    <path class="cls-6" d="M770.21,437.42c-1.32,3-1,7.4-6.13,7a7.38,7.38,0,0,0,3-4.52C767.36,438.13,768.33,437.19,770.21,437.42Z" transform="translate(0)"/>
    <path class="cls-5" d="M673.91,493.08c-3-1-2.28,4-5.15,3.11.3-2,0-4.54,2.41-5.37C672.43,490.39,673.51,491.68,673.91,493.08Z" transform="translate(0)"/>
    <path class="cls-5" d="M662.68,495.21c-1.84-.33-2.8-1.84-4-3C662.19,490.31,662,493.37,662.68,495.21Z" transform="translate(0)"/>
    <path class="cls-5" d="M665.73,496.39c-1.57,1.1-2.6.78-3-1.14Z" transform="translate(0)"/>
    <path class="cls-3" d="M42,477.46l.9-.37.89-1c4.55-2.11,4.8-8.58,9.67-10,7.49-2.24,11.58-7.5,14.26-14.6,3.8,2.78,2.79,7.29,2.8,10.27,0,5.79,1.41,10.31,5.49,14.17-3.28,1.76-7.14,1-10.19,1.75-6.18,1.48-12.69-1.41-18.57,2.18C46,480.58,42.34,481.38,42,477.46Z" transform="translate(0)"/>
    <path class="cls-6" d="M43.79,476.06l-.89,1Z" transform="translate(0)"/>
    <path class="cls-6" d="M361.25,507.3l3.15,1.15a12.3,12.3,0,0,1,.52,2.89c-.14,2-.58,3.94-3.21,4.16-3.06.25-3.46-1.76-3.58-4.07l.18-3.05Z" transform="translate(0)"/>
    <path class="cls-2" d="M689.86,657.79l-.43-.92,1.13.14Z" transform="translate(0)"/>
    <path class="cls-2" d="M137,635.1c.16-1.3.32-2.6.5-4.08,1.25,1.88.92,4.15,2.47,5.62,1.21,4.46.38,8.63-2.07,13.19-2.11-6.9-7.29-1.48-10.8-3.18l1.08-1.06a.77.77,0,0,0,.77-.16,2.68,2.68,0,0,0,2.56-1C136.46,643.15,138.19,640,137,635.1Z" transform="translate(0)"/>
    <path class="cls-2" d="M47.38,645.09c-2.5.36-.32,5.44-4.32,4.3,1.91-1.32-.56-3.11.78-4.89-2.87.54-4.93,2.55-8.45,2.28,6.29-3,11.5-6.35,8.85-14.28C47,637.48,47.8,641.07,47.38,645.09Z" transform="translate(0)"/>
    <path class="cls-6" d="M27.52,644.39l-1.26-.69.51-.53.71,1.26Z" transform="translate(0)"/>
    <path class="cls-6" d="M131.5,644.4a2.68,2.68,0,0,1-2.56,1Z" transform="translate(0)"/>
    <path class="cls-6" d="M128.17,645.59l-1.08,1.06Z" transform="translate(0)"/>
    <path class="cls-5" d="M370.34,687.06c-1.79-.41-2.75-1.88-3.92-3.09.45-1.94,1.34-1.19,2.53-.6C370.69,684.24,370.94,685.43,370.34,687.06Z" transform="translate(0)"/>
    <path class="cls-2" d="M218.81,667.26l1.1-.22c-.11.34-.22.69-.32,1Z" transform="translate(0)"/>
    <path class="cls-2" d="M71.17,663.72c-.26-.88-.26-1.7.73-2.11,5.78-2.38,9.11-6.18,7.89-13,.85,3.12,1.65,6.25,2.57,9.35.62,2.07-.36,3.87-2.06,3.86-3.26,0-5.94,2.41-9.22,1.78Z" transform="translate(0)"/>
    <path class="cls-2" d="M314.37,692.84c.25-.17.61-.54.71-.48.6.37.34.76-.1,1.09Z" transform="translate(0)"/>
    <path class="cls-2" d="M364.69,684.27c.89,2.19,2.72,3.16,2.32,5.17-.09.46-.95,1.18-1.51.52C364.31,688.53,363.89,686.86,364.69,684.27Z" transform="translate(0)"/>
    <path class="cls-2" d="M367.9,691.39l1.26-.08c-.17.34-.33.69-.49,1Z" transform="translate(0)"/>
    <path class="cls-2" d="M407.64,692.75l1.07-.29c0,.39,0,.78-.08,1.17Z" transform="translate(0)"/>
    <path class="cls-6" d="M9.31,676.92l1.93,0A1.15,1.15,0,0,1,9.31,676.92Z" transform="translate(0)"/>
    <path class="cls-2" d="M575.51,689.69c-.53-.36-1.34-.9-.87-1.46.61-.71,1.53-.19,2.25.25Z" transform="translate(0)"/>
    <polygon class="cls-3" points="627.81 654.64 627.48 654.64 627.65 654.32 627.81 654.64"/>
    <path class="cls-5" d="M361.25,507.3l-2.94,1.08C358.74,506.54,359.71,506.14,361.25,507.3Z" transform="translate(0)"/>
    <polygon class="cls-4" points="420.15 467.87 420.33 468.02 420.18 467.84 420.15 467.87"/>
  </g>
</svg>
