<?xml version="1.0" encoding="utf-8"?>
<?xml-stylesheet type="text/css" href="../styles.css"?>
<svg id="Button" xmlns="http://www.w3.org/2000/svg" viewBox="0 0 94.15 89.31">
  <path id="backsSyle" class="baseStyle" d="M8.21,38.31A22.13,22.13,0,0,1,14.8,23.44c1-1-1.12,1,0,0C19.66,19,33.09,13.19,39.53,10.37c12.3-5.38,26.76-5,40.56,11.5C114,62.49,87.68,81.69,76.22,82s-14,18.82-36.14,12.15c0,0-15.82.69-26.07-12.88S-.17,51.61,8.21,38.31Z" transform="translate(-3.16 -6.78)"/>
  <g id="ex0">
    <path class="cls-10" d="M34.23,44.1l-.3.25.27.35-1,.6h-.1a.93.93,0,0,1-.32-.07l-.3.25-.43,0-.45.37-.42-.25-.53.15-.5.3-.12,0c-.13,0-.21,0-.23.12l-.2.83v.3a2.42,2.42,0,0,1,0,.37l0,.2,0,.05a1.73,1.73,0,0,1-.15.75,3.65,3.65,0,0,1,.15.55l-.22.18.07.9-.22,1.3,0,.25a2.16,2.16,0,0,1,.05.4v.12l.13.25V53a2.86,2.86,0,0,1-.13.38c0,.56-.43.86-1.24.9l0-.55-.2-.33L27.65,53v-.87l-.15-.53.08,0-.08-.37V50.5l.08-1v-.88l.07-.5v-.57a2.15,2.15,0,0,1,.08-.48,2,2,0,0,0,.07-.45.84.84,0,0,0-.15-.47l0-.08-.07,0-.33-.1a2.93,2.93,0,0,1-.85.13,2,2,0,0,1-.4,0l-1.07.33-1.15-.13-.63-.05a3.33,3.33,0,0,0-.9.18h-.1l-.57.25-.4-.28-.63.13-.07,0-.1,0-.5,0,0,.2-.7-.27-.63.07V47.7l-.07.58.07.47-.15.38.15.35-.15,1.07.15.33-.1.6.23.5-.13.22.08.3c0,.37-.23.55-.63.55-.68,0-1-.62-1-1.85l-.35-.42-.13-.3a1,1,0,0,1,.15-.55l.05-.43-.07-.25-.13-2v-.52l0-.08-.5-.27-.07-1.23.7-.4a3.5,3.5,0,0,0,.12-1,3.38,3.38,0,0,0-.12-1l.15.07,0-.35.15-.52-.15-.88v-.57l.18-.88,1-.52.48.35.52.17.08.55.22.32c-.08.23-.15.47-.22.72a4.64,4.64,0,0,1,.07.85,5.3,5.3,0,0,1-.17,1.37L19,44l-.25.35v.3l.23.07h1l.68-.07.2.07h1l.39,0,.73,0,.4-.21.38.21.37,0,.13,0h.45l2.65-.3.37,0,.13-.08-.18-.42.18-.38-.18-1,.18-.33L27.37,41l0-.17-.1-.13a2.31,2.31,0,0,0,.1-.23l.05-.1v-.1c0-.14.13-.26.39-.38l.24-.71.68.13.29.19.67-.15v.35l.38-.07V40.8l-.13.2.2.5v.33l.13.4-.2.47.07.33L30,44.18v.17l.52,0,1-.23.47,0,.3,0h.55a.85.85,0,0,1,.8,0Z" transform="translate(-3.16 -6.78)"/>
    <path class="cls-10" d="M44,42.63l-.25.32.2.6-.33.38-.12.52-.08.13.05.12a.71.71,0,0,1-.17.53l-.05.07v.1a.85.85,0,0,1,.07.33.37.37,0,0,1,0,.17l0,.1-.1.28.08.3-.2.2.07.35.15.17-.22.2v.4l-.18.4.13.4-.15.2.25.18-.35.57,0,.08.25.05-.17.57v.1a1,1,0,0,1,0,.28l0,.07.4.05.32.5-.17.38.27,0a1.74,1.74,0,0,1,.18.53l-.38.37A2,2,0,0,1,43,53l-.42.23-.13-.13-.25.13-.77-.9v-.42a3.2,3.2,0,0,1-.15-.92v-.15l-.15-1.47.2-1-.15-.59-.43.7-.22.65-.2.1-.35.55-.63.58-.17.3-.55.48-.13.33-.8.5-.85,1-.47.11-.33.25a1.19,1.19,0,0,1-1-.48,1.82,1.82,0,0,1-1.17-1.58L34,51l0-.15,0-.3-.15-.32.15-.35,0-.53.18-.83v-.1a.19.19,0,0,1,0-.1.92.92,0,0,1,.05-.25.75.75,0,0,1,0-.2,1.94,1.94,0,0,1,.15-.58l.17-.07a.38.38,0,0,1-.15-.28v-.32a.48.48,0,0,1,.3-.46,1.69,1.69,0,0,1,.28-.5l-.13-.2.3-.37V45a1.36,1.36,0,0,1,.33-.88l0-.45.1-.1v-.07a.45.45,0,0,1,0-.08.33.33,0,0,1,.1-.25v-.15a3.79,3.79,0,0,1,.52-.75,4.61,4.61,0,0,0,.63-.87l.12.12.28-.12.12,0,.83-.38,1.92.1v.18l.6.12a.73.73,0,0,1,.75.38.67.67,0,0,1,0-.18v-.1l.52.48.48.1.9-.23.32.63Zm-2.38,1.3-.1-.18-.2,0-.77-.62L40,43h-.4l-.05-.1-.2.1-.23-.1H38.5l.08.1-.58.2-.1.13-.07,0a3.67,3.67,0,0,0-.63.63l-.17.6-.1.22.25.35-.43.33,0,.1a1.86,1.86,0,0,0-.27.92l-.2.25v.45l-.2.23-.05.22L36,47.7v.35l-.07.13a1.86,1.86,0,0,1,0,.47l0,.13-.23.47.1.15-.17.25.17.48-.27.35,0,.47V51l.1,0,.12,0c.09-.08.17-.16.25-.22l0-.2.35-.05.08-.18,1.47-1.2.15-.05.17-.43a2.44,2.44,0,0,0,.42-.2l.17-.39H39l-.07-.43.35-.05a2.38,2.38,0,0,1,.16-.25l.24-.27L41,45.43l.2-.38,0-.1.17-.27.05-.28.23-.2Z" transform="translate(-3.16 -6.78)"/>
    <path class="cls-10" d="M56.58,49.05l-.3.75.2.5-.1.15-.1.4-.2.35-.1,0,0,.48-.45.05a3.5,3.5,0,0,1-.73.52l-.15,0-.37.12-.23,0-.47.17L53,52.35l-.08-.05-.42,0,.1.05-.7-.1-.63.15L51,52.2l-.52,0-.2-.15-.2,0v.15a1.42,1.42,0,0,1-.08.45l.08.47-.15.25v.83l-.08.62.08,1-.18.25.1.38-.07.25.15.07v.6a.45.45,0,0,1-.23.38l.1.35-.17.2v1c-.05,1.16-.31,1.75-.78,1.75a5.05,5.05,0,0,1-.87-.21l.12-.76L47.9,59l.25-.46V58L48,57.22l.24-.27-.18-.58.13-.3-.13-.49.18-.46a.65.65,0,0,0-.17-.27c-.09-.08-.13-.14-.13-.18s0-.1.12-.15v-.25a3.17,3.17,0,0,1,.15-.84l-.15-.25.08-.33-.2-.22.25-.28-.13-.72.18-1-.18-.32.28-.48-.28-.27.15-.48-.15-.12,0-.43.1-.52v-.1l0-.1V47.5l0-.1-.12-.4.12-.42-.12-.33.1-.37-.1-.1.07-.5L48.18,45l0-.25-.08-.17-.9.4v-.15l-.17,0-.28.25h-.23l-.3.4L46,45.4l-.13.25c-.82-.48-1.24-.86-1.24-1.15a.64.64,0,0,1,.25-.5l0-.37a3,3,0,0,1,1.32-.43l.18-.17.8-.33.17-.17.7,0,.13,0,.22-.88.6.13.4.65.23-.23.45.33a1.63,1.63,0,0,1,.62.12l.13.23L51,42.8l.2.15a1,1,0,0,1,.28,0l0,.15L52,43l.28.3.47.15.33.4.6.38,0,0,.48.15v.15a.94.94,0,0,1,.3.4l.2.12.15.28h.3v.5l.17.17.05.18.25,0a2.07,2.07,0,0,0,.33,1v.18l.25.25,0,.4.2.45.07.52Zm-1.88.38,0-.13,0-.1-.15-.45.1-.22-.1-.2,0-.25-.2-.4-.1-.28-.38-.65-.3-.25-.17-.42-.23-.1-.4-.53-.4,0-.3-.4-.25,0-.17-.32-.1,0h-.35l-.25.13-.2-.2-.25.05-.1-.18-.45-.07v.77l.09.28.33.32-.27.6,0,.38-.17.75a1.77,1.77,0,0,0,.35.8l-.1.27a.06.06,0,0,1,0,0s-.06.13-.2.23l.18.22-.13.3,0,.33.08.35,0,.32h.53a.68.68,0,0,1,.27,0,.59.59,0,0,1,.4.15l.1,0h.08a1,1,0,0,1,.27.05.63.63,0,0,1,.28-.08.79.79,0,0,1,.37.1h.23l.2.05.5-.15.4.25c.15.05.21.08.17.08l.48-.48.05-.35.12,0-.07-.2.17-.2Z" transform="translate(-3.16 -6.78)"/>
    <path class="cls-10" d="M68.28,49.05l-.3.75.2.5-.1.15-.1.4-.2.35-.1,0-.05.48-.45.05a3.5,3.5,0,0,1-.73.52l-.15,0-.37.12-.23,0-.47.17-.55-.25-.08-.05-.42,0,.1.05-.7-.1-.63.15-.25-.23-.52,0L62,52.1l-.2,0v.15a1.42,1.42,0,0,1-.08.45l.08.47-.15.25v.83l-.08.62.08,1-.18.25.1.38-.07.25.15.07v.6a.45.45,0,0,1-.23.38l.1.35-.17.2v1c0,1.16-.31,1.75-.78,1.75a5.05,5.05,0,0,1-.87-.21l.12-.76L59.6,59l.25-.46V58l-.11-.76L60,57l-.18-.58.13-.3-.13-.49.18-.46a.65.65,0,0,0-.17-.27c-.09-.08-.13-.14-.13-.18s0-.1.12-.15v-.25a3.17,3.17,0,0,1,.15-.84l-.15-.25.08-.33-.2-.22.25-.28-.13-.72.18-1-.18-.32.28-.48-.28-.27.15-.48-.15-.12.05-.43L60,48v-.1l0-.1V47.5l0-.1-.12-.4.12-.42-.12-.33.1-.37-.1-.1.07-.5L59.88,45l0-.25-.08-.17L59,45v-.15l-.17,0-.28.25h-.23l-.3.4-.25-.1-.13.25c-.82-.48-1.24-.86-1.24-1.15a.64.64,0,0,1,.25-.5l0-.37a2.92,2.92,0,0,1,1.32-.43l.18-.17.8-.33.17-.17.7,0,.13,0,.22-.88.6.13.4.65.23-.23.45.33a1.63,1.63,0,0,1,.62.12l.13.23.17-.08.2.15a1,1,0,0,1,.28,0l0,.15L63.7,43l.28.3.47.15.33.4.6.38,0,0,.48.15v.15a.94.94,0,0,1,.3.4l.2.12.15.28h.3v.5L67,46l0,.18.25,0a2.07,2.07,0,0,0,.33,1v.18l.25.25,0,.4.2.45.07.52Zm-1.88.38,0-.13,0-.1-.15-.45.1-.22-.1-.2,0-.25-.2-.4-.1-.28-.38-.65-.3-.25-.17-.42-.23-.1-.4-.53-.4,0-.3-.4-.25,0-.17-.32-.1,0h-.35l-.25.13-.2-.2-.25.05-.1-.18-.45-.07v.77l.09.28.33.32-.27.6,0,.38-.17.75a1.77,1.77,0,0,0,.35.8l-.1.27s0,0,0,0-.06.13-.2.23l.18.22-.13.3,0,.33.08.35,0,.32h.53a.68.68,0,0,1,.27,0,.59.59,0,0,1,.4.15l.1,0h.08a1,1,0,0,1,.27.05.67.67,0,0,1,.28-.08.79.79,0,0,1,.37.1h.23l.2.05.5-.15.4.25c.15.05.21.08.17.08L66,50.4l0-.35.12,0-.07-.2.17-.2Z" transform="translate(-3.16 -6.78)"/>
    <path class="cls-10" d="M83.38,48a5.65,5.65,0,0,1-.18.62l0,.15.13.9-.15.95v.45l0,.33,0,1.1,0,.17V54l0,.25,0,1.58.15.45-.1.2v.42l0,.13,0,.42-.2.25v.18l-.1.22a4.18,4.18,0,0,1-.55,1.23l-.17.62a1.16,1.16,0,0,0-.25.15l-.08.08-.22.3-.25.37-.43.23a1.08,1.08,0,0,1-.7.62.82.82,0,0,1-.17.15l-.08.08-.35.15-.2.2H79.2l-.12.2-.45-.1-.48.35-.45-.15-.82.15h-.3l-.83-.15h-.37l-.15-.15-1-.33L73.38,62l-.13-.23-.45,0-.15-.42-.3-.08-.2-.37-.47-.18-.4-.57-.73-.45,0-.48a4.57,4.57,0,0,1-.22-1,3.73,3.73,0,0,1,.17-1V57l.25-.13.15-.42.1,0,.25-.4.45-.34.35-.09.68-.52h.65a.85.85,0,0,1,.65-.25c.38.18.57.4.57.67a.75.75,0,0,1-.22.5l-.35.18-.37.27-.37.1-.23.43h-.37l-.16.25-.33.28,0,.37-.2.35.1.25.17.4.55.35.13.37.67.53.38,0,.45.35H75l.27.23h.35l.2.17L77,60.9l.78-.25.47,0,.53-.3a1,1,0,0,1,.35-.08l.17-.1.13-.2.25.08.1-.1v-.2c0-.1.13-.19.33-.25a.91.91,0,0,1,.42-.43,1.54,1.54,0,0,0,.12-.55l.36-.2.08-.17.21-.43,0-.07.08-1,.1-.07v-.4l-.15-.38.15-.3v-2.8l-.17-.32.17-.53V50.13l-.12-.33.12-.17v-.55l-.2-.58v-.87l-.27.45-.3.22-.3.3-.2.08-.08.3-.22.12,0,.08-.35.3-.47.57-.68.7-.25.08-.07.12-.75.55H77.1l-.25.25-.1.25-.55.18-.1.17-.37,0-.53.35-.42.1-.2.15-.28,0-.07.05a1.36,1.36,0,0,1-1,.35A1.5,1.5,0,0,1,72,53l-.55-.83v-.47l-.33-.9V50l-.1-.3.15-.25-.12-.55.2-.15,0-.25.17-.3-.1-.53.1-.2v-.17a5.54,5.54,0,0,1,.17-1.23l-.07-.67.07-.63-.17-.9v-.17l-.1-.15.3-.8a3.73,3.73,0,0,0,.1-.8,1.33,1.33,0,0,1,.6-.15,1.41,1.41,0,0,1,.45.07l.22.5.43.3c0,.25-.09.45-.13.6l.23.38-.09.25.31.28-.3.54.15.65-.17.28,0,0-.15,1.07v1l-.15.15-.1.87-.22.28c0,.08,0,.19,0,.32v.25l.18.45-.18.33,0,.4,0,.1,0,.3.23.2.17,0,0,.15.17-.25h.73a1.1,1.1,0,0,1,.37-.25,2.29,2.29,0,0,1,1-.45l0-.33,1.78-1,.1-.2a.56.56,0,0,1-.13.07l.36-.22.1-.33.17-.27.36-.13.2-.3.12,0,.15-.1.31-.32.12,0,0-.07.45-.47.28-.45a.88.88,0,0,0,.47-.35l.36-.73v-.78l.17-.1v-.07L80.93,44l0-.1a.93.93,0,0,1-.18-.43,1.25,1.25,0,0,1,.3-.68v.08l.1-.25,0-.1v.07c.13-.33.47-.51,1-.52l.8.77.07.65.25.43-.15.4v.3s0,.12,0,.22l0,.15v.4l0,.4,0,.55v1Z" transform="translate(-3.16 -6.78)"/>
  </g>
  <g id="ex1">
    <path class="cls-10" d="M40.57,53.48l-.3.35-.28.65-.2.15-.17.35-.5.05-.33.32h-.5l-.3.25-.27-.07-.33.07v.2l-.92-.07h-.4l-.3.17-.25-.15.4,0-1.2.07-.08,0-.2,0-.32.17a3.46,3.46,0,0,0-.55-.14l-.73,0h-.2a1,1,0,0,0-.37-.08,1.1,1.1,0,0,0-.4.08l-.35-.22-.2,0a1,1,0,0,1-.28-.08c-.62-.06-.92-.58-.92-1.53v-.23l.47-.34.6-.23.45.23H32v.07a.78.78,0,0,1,.4.4l.2,0v.32l.33.08.07,0,3.2-.2L37,53.9H37l.05-.12.35-.05.05-.08a3.2,3.2,0,0,0,1-.3l0-.12a1,1,0,0,1-.1-.18l-.12,0-.33-.25h-.22l-.13-.18.08-.1-.28.05-.2-.2h-.25a1.87,1.87,0,0,1-.65-.12h-.22l-.18-.08-.35.13-.2-.23h-.07l-.35-.27-.78-.3-.25-.2-1-.18-.1-.17-.7-.45-.37-.83-.3-.42-.1-1.3.1-.15a1.71,1.71,0,0,1,.4-1,.62.62,0,0,0,.37-.58l.38-.07a1,1,0,0,1,.4-.38l.37-.3L35,44.9l.27-.07.5,0,.83-.23,1.57.1,0,.13a1.19,1.19,0,0,1,.5.4v.12l.4.25-.17.6-.05.23a.69.69,0,0,1-.7.62.73.73,0,0,1-.68-.42V46.5H37.2l-.35.09-.33-.25-.18.13a1,1,0,0,0-.6.21A1.15,1.15,0,0,0,35,47h-.32l-.23.15-.35.07,0,.05-.15.08-.22.22-.08,0-.22.35-.28.15a4.33,4.33,0,0,0-.12.55,1.38,1.38,0,0,0,.09.46.65.65,0,0,0,.34.24v.13l.32.17a1.83,1.83,0,0,1,.6.33h.5l.32.28.57.08.23.15,1,.27.12.27.1-.18a2,2,0,0,1,.88.3l.45.08,0,.17h.4l.7.4a1.29,1.29,0,0,0,.55.6l.28.18-.08.3a.89.89,0,0,1,.18.52Z" transform="translate(-3.16 -6.78)"/>
    <path class="cls-10" d="M52.52,45.4l-.25.33.19.6-.32.37-.12.53-.08.12.05.13a.72.72,0,0,1-.17.52l0,.08v.1a.81.81,0,0,1,.07.32.62.62,0,0,1,0,.18l0,.1-.1.27.08.3-.2.2.07.35.15.18-.22.2v.4l-.18.4.13.4-.15.2.25.17-.35.58,0,.07.25,0-.17.58v.1a.91.91,0,0,1,0,.27l0,.08.4.05.32.5-.17.37.27,0a1.7,1.7,0,0,1,.18.52l-.38.38a2.15,2.15,0,0,1-.5.35l-.42.22-.13-.12-.25.12-.77-.89v-.42a3.27,3.27,0,0,1-.15-.93v-.14l-.15-1.47.2-1.05-.15-.6-.43.7L49,51.8l-.2.11-.35.55-.63.58-.17.3-.55.48-.13.32-.8.51-.85,1-.47.1-.33.25a1.14,1.14,0,0,1-.95-.47,1.82,1.82,0,0,1-1.17-1.58l.12-.08,0-.15,0-.3L42.34,53l.15-.35,0-.52.18-.83v-.1a.19.19,0,0,1,0-.1.92.92,0,0,1,.05-.25.5.5,0,0,1,0-.2,1.94,1.94,0,0,1,.15-.58L43,50a.38.38,0,0,1-.15-.28v-.33a.48.48,0,0,1,.3-.45,1.4,1.4,0,0,1,.28-.5l-.13-.2.3-.38v-.1a1.35,1.35,0,0,1,.33-.87l0-.45.1-.1V46.3a.11.11,0,0,1,0-.07.33.33,0,0,1,.1-.25v-.15a3,3,0,0,1,.52-.75,5.76,5.76,0,0,0,.63-.88l.12.13.28-.13.12-.05.83-.37,1.92.1v.17l.6.13a.74.74,0,0,1,.75.37.61.61,0,0,1,0-.17v-.1l.52.47.48.1.9-.22.32.62Zm-2.38,1.3-.1-.17-.2-.05-.77-.63-.5-.07h-.4l-.05-.1-.2.1-.23-.1H47l.08.1-.58.2-.1.12-.07,0a4.09,4.09,0,0,0-.63.62l-.17.6-.1.23.25.35-.43.33.05.1a1.83,1.83,0,0,0-.27.92l-.2.25V50l-.2.23-.05.22-.08,0v.35l-.07.13a1.92,1.92,0,0,1,0,.47l0,.13-.23.47.1.15-.17.25.17.48-.27.34,0,.48v.07l.1.05.12,0,.25-.23-.05-.2.35,0,.07-.17L46.43,52l.15,0,.18-.43a2.44,2.44,0,0,0,.42-.2l.16-.39h.2l-.07-.42.35,0a1.12,1.12,0,0,1,.16-.25,2.09,2.09,0,0,1,.24-.28l1.27-1.7.2-.37,0-.1.17-.28,0-.27.23-.2Z" transform="translate(-3.16 -6.78)"/>
    <path class="cls-10" d="M67.12,53.73l-.3,1.05-.2.3q-.41.6-.78.6a1.4,1.4,0,0,1-.8-.43l-.5-.72-.22-.45-.11-.45L64,52.88v-1.1l-.07-1L64,50.3l-.05-.15-.62.88h-.08l0,.07-.42.68-.7.75-.52.72-.55.53a3.14,3.14,0,0,1-.53.7l-.5.35-.3.4-.55.17-.22.28-.55.1-.45.27h-.08l-.05.1-.77-.1-.93-.65a1.89,1.89,0,0,1-.47-.92.38.38,0,0,0,.09-.09l.08-.09-.27-.12-.23-.5.13-.18-.13-.3.13-.35-.05-.45.17-.72V50.9l.17-.22v-.53l.18-.32,0-.38L56,49.4v-.32l.25-.4,0-.35.15-.25.08-.15.1-.6.17-.53.13-.12,0-.33.33-.35c0-.08.11-.25.23-.52l.62-.28.4-.42,1.15-.33a2.56,2.56,0,0,0,.43,0l.17.1.05-.2.58,0,.2.07.17,0,.15.12.48,0,.1-.08.12.1.25,0v.17l.1.08.5.1.38.42.5.38.12.25,0,0,.1-.35.15-.32-.06-.58.11-1.05-.15-.4.2-.3-.1-.27.07-.7-.09-.6L64,41.2l.4-.4v-.27a1.82,1.82,0,0,0-.32-.93h.14l.28-.4a3.49,3.49,0,0,1,.68-.07,1,1,0,0,1,.57.15c.27.08.4.48.4,1.2H66l0,.1.23.2-.15.4.22.47-.12.15a.91.91,0,0,1,.07.35,1.06,1.06,0,0,1-.07.38l.12.15a.82.82,0,0,1,0,.32,1,1,0,0,1-.12.5,15.81,15.81,0,0,1-.23,2,.67.67,0,0,1,0,.23,1.35,1.35,0,0,1-.08.42v.15a2.59,2.59,0,0,1-.11.68l-.08.75-.13.2.1.22-.1.38.1.32-.2.78.1.57v.33l0,.5a2,2,0,0,1,0,.32.26.26,0,0,1-.07.2l.2.15-.2.5.2.53-.08.15.08.15-.08.15.08.07.22.2.43.05Zm-3.73-6.1-.1-.05a.9.9,0,0,1-.31-.33c-.1-.15-.18-.3-.27-.45a.76.76,0,0,1-.42-.32h-.15l-.45-.28-.58-.12-.55.05L60,46.3l-.16-.14-.19.07v.1l-.23.05a2,2,0,0,1-.7.7l-.2.42-.2.15-.17.4-.08.82-.22.2v.45l-.2.18,0,.6-.42.82-.07.4,0,.65.14.28-.14.27.12.18-.25.45.13.22.1.3.15.11h.17l.23-.2.2,0,.42-.17,0-.15.48-.18.05-.15.29-.17v0l.63-.65.3-.13.15-.32.33,0,.4-.46-.08,0,.17-.17.25-.53.22-.22.13-.55.39-.13.29-.39.1-.08v-.45l.38-.17Z" transform="translate(-3.16 -6.78)"/>
  </g>
  <g id="ex2">
    <path class="cls-10" d="M28.74,53.3a.59.59,0,0,1-.2.45,2.61,2.61,0,0,1-.65.63l-.25.17-.22.3-.23.1-.34.23-.25,0-.1.1a1.51,1.51,0,0,0-.77.5.63.63,0,0,1-.33.13.47.47,0,0,1-.17,0,2.11,2.11,0,0,1-1.1.25,1.67,1.67,0,0,1-.74-.1l-.45-.25-.15-.25v-.07A.62.62,0,0,0,22.5,55l-.1-.5-.21-.22-.13-.93v-.95l.08-.15a.72.72,0,0,1-.08-.32c.09-.7.13-1.15.13-1.33L22,50.1l.23-.37.07-.63-.05-.42.15-.38-.15-.5.27-.35,0-.22v-2.1l.08-1.08-.08-.2V42.18l.15-1.5a4.5,4.5,0,0,0,.9-.25.74.74,0,0,1,.64.42l.05.2.36.38-.1.52v.1a1.57,1.57,0,0,1-.17.63l.07.52.1.48-.17.52a2.2,2.2,0,0,1-.13.78,2,2,0,0,1-.05.4l0,.15.2.27-.08.28a1,1,0,0,1,.08.27.91.91,0,0,1-.13.4l.05.23-.15.8v.52l-.17.53.1.47-.1,1.1.07.13-.12.57-.05.7a.6.6,0,0,0-.05.18,6.81,6.81,0,0,1,0,.7l.08.35v.37l.15.33,0,.12a1.21,1.21,0,0,1,.28.4h.22l.32.1.15-.2.23,0a.59.59,0,0,1,.22-.05h.08a.68.68,0,0,0,.39-.25l.15-.08a.9.9,0,0,1,.57-.37l.48-.4a.57.57,0,0,1,.42-.53.76.76,0,0,0,.5-.12.93.93,0,0,1,.63.26A1.28,1.28,0,0,1,28.74,53.3Z" transform="translate(-3.16 -6.78)"/>
    <path class="cls-10" d="M40,45.9l-.25.33.2.6-.32.37-.13.53-.07.12,0,.13a.7.7,0,0,1-.18.52l0,.08v.1a.79.79,0,0,1,.08.32.42.42,0,0,1,0,.18l0,.1-.1.27.07.3-.2.2.08.35.15.18-.23.2v.4l-.17.4L39,52l-.15.2.25.17-.35.58,0,.07.25,0-.18.58v.1a1.87,1.87,0,0,1,0,.27l0,.08.4.05.33.5-.18.37.28,0a1.42,1.42,0,0,1,.17.52l-.37.38a2.84,2.84,0,0,1-.5.35l-.43.22-.12-.12-.25.12-.78-.9v-.42a3.2,3.2,0,0,1-.15-.92v-.15l-.15-1.47.2-1-.15-.6-.42.7-.23.65-.2.1-.35.56-.62.57-.18.31-.55.47-.12.33-.8.5-.85,1-.48.1-.32.25A1.13,1.13,0,0,1,31,56a1.83,1.83,0,0,1-1.18-1.58l.13-.07,0-.15,0-.3-.15-.33.15-.35,0-.53.17-.82v-.1a.43.43,0,0,1,0-.11.68.68,0,0,1,.05-.25.43.43,0,0,1,0-.2,1.9,1.9,0,0,1,.15-.57l.18-.08a.34.34,0,0,1-.15-.27v-.33a.48.48,0,0,1,.3-.45,1.44,1.44,0,0,1,.27-.5l-.12-.2.3-.38v-.1a1.36,1.36,0,0,1,.32-.87l0-.45.1-.1V46.8a.17.17,0,0,1,0-.07.36.36,0,0,1,.1-.25v-.15a3.09,3.09,0,0,1,.53-.75,5.4,5.4,0,0,0,.62-.88l.13.13.27-.13.13-.05.82-.37,1.93.1v.17l.6.13a.74.74,0,0,1,.75.37,1.11,1.11,0,0,1,0-.17v-.1l.53.47.47.1.9-.22.33.62Zm-2.37,1.3-.1-.17-.2-.05-.78-.63-.5-.07h-.4l0-.1-.2.1-.22-.1h-.65l.07.1-.57.2-.1.12-.08,0a3.22,3.22,0,0,0-.62.62l-.18.6-.1.23.25.35-.42.32,0,.1a1.89,1.89,0,0,0-.27.93l-.21.25v.45l-.2.22,0,.23L32,51v.35l-.08.12a1.6,1.6,0,0,1-.05.48l.05.12-.22.48.1.15-.18.25.18.47-.28.35,0,.48v.07l.1.05.13,0A1.79,1.79,0,0,1,32,54.1L32,53.9l.35,0,.07-.17,1.47-1.21.15,0L34.2,52a4.43,4.43,0,0,0,.43-.2l.16-.4H35L34.91,51l.35,0a1.86,1.86,0,0,1,.17-.25,2.15,2.15,0,0,1,.23-.28l1.28-1.7.2-.37,0-.1.18-.28.05-.27.22-.2Z" transform="translate(-3.16 -6.78)"/>
    <path class="cls-10" d="M56.81,54.58a1.13,1.13,0,0,1-.45.72l-.2.08L56,55.6l-.45.13c-.09.11-.17.17-.25.17l0,0h-.08a3,3,0,0,1-1.32.27h-.2L53,56l-.42-.2-1-.8-.2-.68L51,54a.58.58,0,0,0,.07-.33,1.13,1.13,0,0,0-.2-.5l.08-.6v-.1a2.25,2.25,0,0,0-.18-.77L51,51l-.32.65-.38,0,0,.52a1,1,0,0,1-.47.1l-.28.6-.32.38a.74.74,0,0,1-.35.25l-.08,0-.9.92h-.1l-.47.57-.45.23-.25.33-.58.19-.82.33-.5-.25a.69.69,0,0,1-.7-.46l-.23-.12a.88.88,0,0,1,0-.2v-.18l-.4-.36.1-.15-.3-.71.1-.1v-.2c-.05-.05-.08-.09-.08-.13a2.33,2.33,0,0,1,.06-.53l0-.65-.08-.53a1.07,1.07,0,0,0,.08-.35.64.64,0,0,0-.1-.33l.27-.2v-.3l-.1-.82.28-1.6a4.72,4.72,0,0,0-.23-1.18q.07-.79,1-.87l.2.07.35,0,.45.5-.2.65v1.08l.08.82-.15.31.07.2L45,50v.55a3.92,3.92,0,0,1,0,.67l0,.18,0,.37,0,.3v.35a.43.43,0,0,1,.2.37.53.53,0,0,1-.2.4v.1a2.36,2.36,0,0,1,.13.55l.24.23.37-.25a.47.47,0,0,1,.36-.33v-.25a3.4,3.4,0,0,0,.48-.07l0-.23.42-.17.08-.08a1.42,1.42,0,0,1,.57-.32v-.11l.48-.35a1,1,0,0,1,.62-.62,2.9,2.9,0,0,1,.38-.33l.32-.42v-.08l.1,0,.23-.1L50,50l.53-.22.1,0,.17-.17v-.23l.15,0a.85.85,0,0,1,.39-.6l.36-.85.14-.45.05-.09H52l.18-.13-.15,0a4.23,4.23,0,0,0,.42-1l.73,0,.57.47L54,47l-.27,1.08-.38.5-.3,1-.25.15v.38l-.15.27.08.45-.2.18.1.8,0,1.12h.12v.65l.35.43.33.17,0,.13a1.49,1.49,0,0,1,.43.12l.62.05.38-.1.67-.32a1.09,1.09,0,0,1,.5-.1C56.56,53.93,56.81,54.14,56.81,54.58Z" transform="translate(-3.16 -6.78)"/>
    <path class="cls-10" d="M70.39,52.93l-.25.92.1.3-.1.08a.81.81,0,0,1,.15.45.67.67,0,0,1-.08.3V55c0,.2-.07,1-.22,2.45l0,.47v.1l0,.1,0,.1,0,.15-.08.08-.07.15h-.1l0,.12,0,.15a.62.62,0,0,1-.12.35l-.13.4a1.38,1.38,0,0,1-.25.5,5.47,5.47,0,0,1-.62.88l-.43.32-.47.4-.38.18-.3.22-.2.05a2.92,2.92,0,0,1-1.12.33l-.15,0-.23.1v0a3,3,0,0,1-.72.1h-1l-.6-.12-.52.12-.25-.23-.75-.07-.5-.45-.38-.21a1.64,1.64,0,0,1-1.15-1.33l0-.1-.07-.4c.2-.32.38-.49.55-.51a.75.75,0,0,1,.4-.12c.61.1,1.09.15,1.42.17l-.05.38.3.2v.3l-.2.25,1.15.35.58-.13V61l.17-.05h.05L64,61l0,.1.25-.13a3.12,3.12,0,0,1,1.2-.15,1.82,1.82,0,0,0,.25-.2l.12,0H66q.15,0,.3-.3a.1.1,0,0,0,.1.07.28.28,0,0,0,.12-.05l.1,0h0l.82-.69.36-.57,0-.33.26-.35,0-.32.15-.3.12-.68.19-.62V56a4.11,4.11,0,0,1,.15-1.1l-.15-.4V53.3l-.15-.42v-.7l-.2-.53v-.8l0-.12-.18.05-.15.37-.37.33-.45.73-.65.45-.7.73a6.61,6.61,0,0,1-1.39,1.1l-.25.3-.38.23-.35.18-.32.32-.4.2a1,1,0,0,1-.57.28,2.17,2.17,0,0,1-1.25.38h-.62a1.05,1.05,0,0,1-.3,0l-.45,0-.65-.63-.47-.62-.2-.53-.18-1,.1-.72.25-.85,0-.28.23-.77.22-.45a2.59,2.59,0,0,0,.1-.78l.55-1a1,1,0,0,1,.38-.43l.25-.42.3-.33a1.11,1.11,0,0,1,.4-.57.64.64,0,0,0,.29-.38c0-.18.37-.35.93-.5l-.12,0L62,46c0-.09.17-.25.35-.5l.3,0,.23-.15a1.23,1.23,0,0,1,.85-.35h.17l.65-.25.38.12h.45l.27.15a.54.54,0,0,1,.4.23l.35.35.1,0,.05.1.23.35,0,.12-.07.4,0,.27-.32.5-.72.1-.38-.6L65,46.85l-.17-.17h-.26a4.86,4.86,0,0,0-.52.25l0,.2h-.63a.77.77,0,0,1-.55.4l-.3.17-.2.48-.18,0,0,.23h-.35l-.31.53-.28.17-.1.36-.37.52,0,.5-.3.3-.28,1.08-.2.2,0,.27-.3.95.07.3,0,.3a1,1,0,0,1,.17.53l.18,0,.07.15a.94.94,0,0,1,.55.1,3.54,3.54,0,0,1,1.23-.38,1.08,1.08,0,0,1,.42-.51l1.13-.61.07,0a.55.55,0,0,1,.15-.37,4.2,4.2,0,0,0,.45-.2.47.47,0,0,0,.23-.33l.4-.1.25-.22.62-.85.18.1a4.77,4.77,0,0,1,.55-.68l.6-.7,0-.32a4.45,4.45,0,0,0,.7-1.6l-.13-.53-.2-.35.15-.37-.2-.28-.05-.35-.07-.25.25-.45a1.59,1.59,0,0,1,.57-.2,1.3,1.3,0,0,1,.6.23l.18.32.32.25,0,.55c0,.15.11.38.18.68a1.08,1.08,0,0,1,.12.52v.18l0,.15.28.4-.08.45.15.2a.91.91,0,0,1,.08.37,1,1,0,0,1,0,.28l.28.07-.23.63L70,51a1,1,0,0,1,.13.45,1.23,1.23,0,0,1-.13.5l.15.13Z" transform="translate(-3.16 -6.78)"/>
    <path class="cls-10" d="M83.94,55.78c0,.66-.36,1-1.09,1a.86.86,0,0,1-.78-.43A3.5,3.5,0,0,1,81.64,55v-.35a.47.47,0,0,0,.1-.25.35.35,0,0,0,0-.13l-.35-.52.28-.48-.13-.52.13-.3v-.63l-.08-.45.08-.22v-1.9l-.13-.83.13-.3-.18-.62-.2.17-.56.23-.75,1-.31,0-.45.73-.08.3-.27.12-.29.43-.13.27-.17.89-.49.55-.11.35-.27.2-.11.59-.55.45-.08.92h-.23l-.07.15-.45.78-.43.45-.37.5-.4-.13h-.33l-.3-.4-.27-.9V53.78l-.08-.43.08-.5V51.68l.17,0,.1-1.73,0-.32v-.53l.12-.07.09-.8.09-.28-.1-.35.08-.12,0-.08.07-.7-.2-.17.18-.35,0-.73-.26-.72.18-.23-.18-.67v-.4L74,43.2l-.13-.8L73.79,42l-.38-.73.28-.35.25-.42h.22a.91.91,0,0,1,.82.4l.35.27.15.45.38.33-.1.35.2.52v.93l0,1.1.17.7-.12.3,0,.42-.13.35.08.6-.08.5v2l-.15.17-.07.83-.1.37.12.68-.12.2v.5q.27-.07.27-.3l.2-.2.18-.33,0-.47.27-.4.15-.5.35-.4.1-.47.23,0v-.22l0-.3.34-.17v-.2l.25-.05,0-.4,0-.2.45-.2.12-.11-.06-.25.23-.08.17-.42h.31l.27-.18a.73.73,0,0,1,0-.25l.27-.12a2,2,0,0,1,.86-.45v-.05a2.48,2.48,0,0,1,.9-.33.88.88,0,0,1,.67.35.52.52,0,0,1,.35.38l.23.15.07.35.33.57v2.88l.12.22v1.85l-.12.33V53l.12.55-.12.47a4.17,4.17,0,0,1,.13.63l.29.27v.2l.1.08A2.23,2.23,0,0,1,83.94,55.78Z" transform="translate(-3.16 -6.78)"/>
  </g>
  <g id="ex3">
    <path class="cls-10" d="M26.87,43.35l-.25.33.2.6-.32.37-.13.53-.07.12.05.13a.7.7,0,0,1-.18.52l-.05.08v.1a.79.79,0,0,1,.08.32.42.42,0,0,1,0,.18l0,.1-.1.27.07.3-.2.2.08.35.15.18-.23.2v.4l-.17.4.12.4-.15.2.25.17-.35.58,0,.07.25,0-.18.58v.1a1.87,1.87,0,0,1,0,.27l0,.08.4,0,.33.5-.18.37.28,0a1.64,1.64,0,0,1,.17.52l-.37.38a2.84,2.84,0,0,1-.5.35l-.43.22-.12-.12-.25.12-.78-.9v-.42a3.2,3.2,0,0,1-.15-.92v-.15L24,50l.2-1L24,48.4l-.42.7-.23.65-.2.1-.35.55L22.2,51l-.18.31-.55.47-.12.33-.8.5-.85,1-.48.1-.32.25a1.13,1.13,0,0,1-.95-.48,1.81,1.81,0,0,1-1.18-1.58l.13-.07,0-.15,0-.3L16.7,51l.15-.35,0-.53.17-.82v-.1a.2.2,0,0,1,0-.1.73.73,0,0,1,.05-.26.43.43,0,0,1,0-.2,1.9,1.9,0,0,1,.15-.57L17.4,48a.34.34,0,0,1-.15-.27v-.33a.48.48,0,0,1,.3-.45,1.44,1.44,0,0,1,.27-.5l-.12-.2.3-.38v-.1a1.3,1.3,0,0,1,.32-.87l0-.45.1-.1v-.08a.17.17,0,0,1,0-.07.32.32,0,0,1,.1-.25v-.15A3.09,3.09,0,0,1,19,43a5.4,5.4,0,0,0,.62-.88l.13.13.27-.13.13,0,.82-.37,1.93.1V42l.6.13a.74.74,0,0,1,.75.37.52.52,0,0,1,0-.17v-.1l.53.47.47.1.9-.22.33.62Zm-2.37,1.3-.1-.17-.2,0-.78-.63-.5-.07h-.4l-.05-.1-.2.1-.22-.1H21.4l.07.1-.57.2-.1.12-.08,0a3.53,3.53,0,0,0-.62.62l-.18.6-.1.23.25.35-.42.32.05.1a1.81,1.81,0,0,0-.28.93l-.2.25v.45l-.2.22-.05.23-.07,0v.35l-.08.12a2,2,0,0,1-.05.48l.05.12L18.6,50l.1.15-.18.25.18.47-.28.35,0,.48v.07l.1,0,.13,0a1.79,1.79,0,0,1,.25-.23l-.05-.2.34-.05.08-.17,1.47-1.21.15-.05.17-.42a3.56,3.56,0,0,0,.42-.2l.17-.4h.2l-.08-.42.35,0a1.66,1.66,0,0,1,.16-.25,3.48,3.48,0,0,1,.24-.28l1.28-1.7.2-.37,0-.1.18-.28.05-.27.22-.2Z" transform="translate(-3.16 -6.78)"/>
    <path class="cls-10" d="M45.72,49.43c0,.13-.11.3-.32.52l-.28.43-.1.5L44.8,51l0,.15a.9.9,0,0,0-.58.63,1.64,1.64,0,0,1-.6.5.93.93,0,0,1-.22.17l-.13.23-.22,0-.65.35-.85.1-.23-.05-.37.07L40.75,53a1.7,1.7,0,0,1-.5-.35.68.68,0,0,1-.45-.48,1.4,1.4,0,0,1-.43-.8v-.07L39.2,51l-.05,0L39,50.48,38.77,50l0-.57-.25-.33L38.2,47a4.26,4.26,0,0,1-.08-.72l0-.13-.13-.17-.23.29-.91,1-.33.52-.16.36-.27.4-.19.2,0,.12-.35.78-.2.25-.25.05-.22.22a.62.62,0,0,1-.48.65l0,.05a1.21,1.21,0,0,1-.5.68l-.22.35c-.37.33-.61.54-.73.63a1,1,0,0,1-.27.42l-.18.2c-.05.28-.28.48-.7.6l-.27.08a1,1,0,0,1-.83-.58l-.37-.62.15-.6-.08-.33.05-.05,0-.32-.28-.6.2-.3-.1-.33.2-.35,0-.57L30.4,49l.15-.35-.06-.18,0-.4.08-.75a1.71,1.71,0,0,1-.08-.32v-.2l-.07-.2.07-.8V44.43l.44-.75A2.56,2.56,0,0,1,32,44a.89.89,0,0,1,.3.77V45l.2.3-.1.53.1,1-.18.47.08.53v.42l-.23.28.23.45-.2.27,0,.28.15.27-.2.53-.07.22v.23l.12.25.43-.43a.5.5,0,0,1,.25-.5.45.45,0,0,1,.2-.37l-.08-.08.33-.3.07-.1V49l.4-.3.1-.25.23-.15,1-1.1c-.08.1-.36.4-.82.92v.05l0-.17.32-.38.23-.42V47l.37-.13,0-.32.1-.1,0-.13v-.17l.35-.35v-.13a.33.33,0,0,1,0-.1c0-.3.17-.47.5-.5a.9.9,0,0,1,.68-.52L37,44.3l0,0a1.12,1.12,0,0,1,.67-.45l.23-.27h.6l.3.35.27.15,0,.07.17,0,0,.53.43.25-.18.55.28.6v.7l.2.95,0,.9.22.52.15.65a.93.93,0,0,1,.23.43l.45.12v.5l.25.28v.07l.1,0,.1.15.1-.13.12,0c.18,0,.38-.17.58-.5l.3-.07.07-.13a.52.52,0,0,1,.3-.3l.18,0,.1-.1,0-.12.08-.1a.87.87,0,0,0,.32-.53l.28-.3,0-.22.17-.4.48-.18.67.23.23.72a.06.06,0,0,0,0,.05Z" transform="translate(-3.16 -6.78)"/>
    <path class="cls-10" d="M58.6,50.38l-.25.92.1.3-.1.08a.81.81,0,0,1,.15.45.67.67,0,0,1-.08.3v0c0,.2-.07,1-.22,2.45l-.06.47v.1l0,.1,0,.1,0,.15-.08.08-.07.15h-.1l0,.12,0,.15a.62.62,0,0,1-.12.35l-.13.4a1.38,1.38,0,0,1-.25.5,6.21,6.21,0,0,1-.62.88l-.43.32-.48.4-.37.18-.3.22-.2,0a2.92,2.92,0,0,1-1.13.33l-.15,0-.22.1v.05a3.07,3.07,0,0,1-.72.1h-1l-.6-.12-.52.12L50.35,60l-.75-.07-.5-.45-.38-.21a1.63,1.63,0,0,1-1.15-1.33l0-.1-.07-.4c.2-.32.38-.49.55-.51a.75.75,0,0,1,.4-.12c.61.1,1.09.15,1.42.17l-.05.38.3.2v.3l-.2.25,1.15.35.58-.13v.18l.17,0h.05l.32,0,0,.1.25-.13a3.09,3.09,0,0,1,1.19-.15,1.36,1.36,0,0,0,.25-.2l.13,0h.15q.15,0,.3-.3a.09.09,0,0,0,.1.07.28.28,0,0,0,.12,0l.1-.05h0l.81-.69.37-.57,0-.33.27-.35,0-.32.14-.3.13-.68.19-.62v-.45a4.16,4.16,0,0,1,.15-1.1l-.15-.4V50.75l-.15-.42v-.7l-.2-.53v-.8l0-.12-.18,0-.15.37-.37.33-.45.73-.65.45-.7.73a6.61,6.61,0,0,1-1.39,1.1l-.25.3-.38.23-.35.18-.32.32-.4.2a1.06,1.06,0,0,1-.57.28,2.19,2.19,0,0,1-1.25.38h-.63a1,1,0,0,1-.29,0l-.45,0-.65-.63-.48-.62L46.4,52l-.18-1,.1-.72.25-.85,0-.28.23-.77.22-.45a2.59,2.59,0,0,0,.1-.78l.55-1A1,1,0,0,1,48,45.7l.25-.42.29-.33a1.19,1.19,0,0,1,.41-.57.63.63,0,0,0,.28-.38c.06-.18.37-.35.94-.5l-.13,0,.13-.05c0-.09.17-.25.35-.5l.3.05.22-.15a1.27,1.27,0,0,1,.85-.35h.18l.65-.25.38.12h.44l.28.15a.54.54,0,0,1,.4.23l.35.35.1,0,0,.1.23.35,0,.12-.08.4.06.27-.33.5-.71.1-.38-.6-.36-.12L53,44.13h-.25a5.73,5.73,0,0,0-.53.25l0,.2h-.63A.78.78,0,0,1,51,45l-.3.17-.2.48-.18,0,0,.23H50l-.32.53-.27.17-.1.36-.38.52,0,.5-.3.3-.27,1.08-.2.2,0,.27-.3,1,.07.3,0,.3a1,1,0,0,1,.17.53l.18,0,.07.15a1,1,0,0,1,.55.1A3.54,3.54,0,0,1,50,51.8a1.09,1.09,0,0,1,.43-.51c.18-.11.56-.31,1.13-.61l.07,0a.55.55,0,0,1,.15-.37,4.2,4.2,0,0,0,.45-.2.5.5,0,0,0,.23-.33l.39-.1.25-.22.63-.85.18.1a4,4,0,0,1,.55-.68l.6-.7,0-.32a4.23,4.23,0,0,0,.71-1.6l-.13-.53-.2-.35.15-.37-.2-.28,0-.35-.07-.25.25-.45a1.53,1.53,0,0,1,.57-.2,1.3,1.3,0,0,1,.6.23l.18.32.32.25,0,.55c0,.15.11.38.18.68a1.08,1.08,0,0,1,.12.52v.18l.05.15.28.4-.08.45.15.2a.91.91,0,0,1,.08.37,1,1,0,0,1,0,.28l.28.07-.23.63.1.47a1.11,1.11,0,0,1,.13.45,1.47,1.47,0,0,1-.13.5l.15.13Z" transform="translate(-3.16 -6.78)"/>
    <path class="cls-10" d="M71,44.18l-.2.82-.93.13-.5.32-.32-.15-.35.2-.38.14-.25.17v.1l-.52.26-.35.46H67a3.46,3.46,0,0,1-.57.52l-.35.58-.13.05a4.42,4.42,0,0,0-.17.6l-.35.12-.15.3-.2.25-.05.38-.2.07v.38l-.08.07.18.28-.38.15,0,.32-.25.43.16.32-.33.45a2.55,2.55,0,0,1,0,.35v.1a.35.35,0,0,0,0,.13l.06.22.42.45-.33.58L64,54l-.71.35-.92-.37v-.58l-.1-.22.07-.38a5.93,5.93,0,0,1-.05-.6,1,1,0,0,1,0-.2v-.17l0-.25a.58.58,0,0,1-.17-.4.82.82,0,0,1,.17-.45c0-.09,0-.34,0-.75l.07-.08-.07-.32,0-.3,0-.18.07-.57-.15-.25.1-.28-.1-.32a2.17,2.17,0,0,0,0-.4.81.81,0,0,0-.11-.5l.11-.15-.11-.45-.22-.33.13-.4-.11-.15-.1-.6v-.2a.57.57,0,0,1-.12-.37c0-.34.37-.62,1.1-.85l.62.12.13.48.25.32-.07.68c0,.33.1.7.17,1.1l.08.4a1.87,1.87,0,0,1,0,.27.63.63,0,0,1-.13.33l.08.5-.06.55-.1.25.08.1.05.25a.68.68,0,0,0,.17-.38l.11-.37a.49.49,0,0,1,.22-.23l.1-.37.35-.2,0-.3.28-.3.19-.38A1.69,1.69,0,0,1,66,45.6l0-.07.22-.35.25,0,.08-.08.1-.15.28-.15.14-.17.15,0,.21-.1.09-.15.3-.15.43-.27.6-.2.37,0v0s0,0,0,0h0a.86.86,0,0,0,.3-.1.55.55,0,0,1,.36-.1,1.5,1.5,0,0,1,.34,0A.65.65,0,0,1,71,44.18Z" transform="translate(-3.16 -6.78)"/>
    <path class="cls-10" d="M84.4,48.75a6.48,6.48,0,0,1-.18.63l0,.15.13.9-.15,1v.45l0,.32,0,1.1,0,.18v1.3l0,.25,0,1.57.15.45-.1.2v.43l0,.12,0,.43-.2.25v.17l-.1.23a4,4,0,0,1-.55,1.22l-.17.63a.67.67,0,0,0-.25.15l-.08.07-.22.3-.25.38L82,61.8a1.08,1.08,0,0,1-.7.63l-.17.15-.08.07-.35.15-.2.2h-.25l-.12.2-.45-.1-.48.35-.45-.15-.82.15h-.3l-.83-.15H76.4l-.15-.15-1-.32-.85-.13-.13-.22-.45,0L73.67,62l-.3-.07-.2-.38-.47-.17-.41-.58-.72-.45.05-.47a4.8,4.8,0,0,1-.22-1,3.25,3.25,0,0,1,.17-1V57.7l.25-.12.15-.43.1.05.25-.4.45-.33.35-.1.67-.52h.66a.85.85,0,0,1,.65-.25c.38.18.57.41.57.68a.76.76,0,0,1-.22.5L75.1,57l-.37.28-.38.1-.22.42h-.37L73.6,58l-.33.28,0,.37L73.1,59l.1.25.17.4.55.35.12.38.68.52.38,0,.44.35H76l.27.22h.35l.2.18,1.2,0,.77-.25.48,0,.52-.3a1,1,0,0,1,.36-.07l.17-.1.13-.2.25.07.09-.1v-.2c0-.1.13-.18.34-.25a.87.87,0,0,1,.41-.42,1.6,1.6,0,0,0,.13-.55l.36-.2.08-.18a4.09,4.09,0,0,0,.2-.42l0-.08.08-1,.1-.08V57l-.15-.37.15-.3v-2.8l-.17-.33.17-.52V50.85l-.12-.32.12-.18V49.8l-.2-.57v-.88L82,48.8l-.29.23-.3.3-.2.07-.08.3-.22.13,0,.07-.35.3-.47.58-.68.7-.25.07-.07.13-.75.55h-.23l-.25.25-.1.25-.55.17-.1.18-.37.05-.53.35-.43.1-.19.15-.28.05-.07,0a1.36,1.36,0,0,1-1,.35A1.51,1.51,0,0,1,73,53.7l-.54-.82V52.4l-.33-.9v-.75l-.1-.3.15-.25-.12-.55.19-.15,0-.25.18-.3-.1-.52.1-.2v-.18a4.87,4.87,0,0,1,.17-1.22l-.07-.68.07-.62-.17-.9v-.18l-.1-.15.3-.8a3.63,3.63,0,0,0,.09-.8,1.4,1.4,0,0,1,.61-.15,1.47,1.47,0,0,1,.45.08l.22.5.43.3c0,.25-.1.45-.13.6l.23.37-.1.25.32.28-.3.55.15.65-.17.27,0,.05-.15,1.08v1l-.15.15-.1.88-.22.27a2.13,2.13,0,0,0,0,.33v.25l.18.45-.18.32,0,.4,0,.1,0,.3.23.2.17,0,0,.15.17-.25h.72a1.47,1.47,0,0,1,.38-.25,2.36,2.36,0,0,1,1-.45l0-.32,1.78-1,.1-.2-.13.08.35-.23.1-.32.18-.28.35-.12.2-.3.13,0,.15-.1.3-.32.13,0,0-.08.46-.47.27-.45a.86.86,0,0,0,.48-.35l.36-.73v-.77l.17-.1v-.08L82,44.73l0-.1a.89.89,0,0,1-.18-.43,1.2,1.2,0,0,1,.3-.67v.07l.1-.25,0-.1v.08c.13-.34.46-.51,1-.53l.79.78.08.65.25.42-.15.4v.3l0,.23,0,.15v.4l0,.4,0,.55v1.05Z" transform="translate(-3.16 -6.78)"/>
  </g>
  <g id="ex4">
    <path class="cls-10" d="M26.72,51.6a.89.89,0,0,1-.32.52l-.28.43-.1.5-.22.07-.05.15a.94.94,0,0,0-.58.63,1.64,1.64,0,0,1-.6.5.93.93,0,0,1-.22.17l-.13.23-.22.05-.65.35-.85.1-.23,0-.37.07-.15-.17a1.53,1.53,0,0,1-.5-.35.68.68,0,0,1-.45-.48,1.4,1.4,0,0,1-.43-.8v-.07l-.17-.3-.05,0L20,52.65l-.23-.48.05-.57-.25-.33-.37-2.15a4.26,4.26,0,0,1-.08-.72l-.05-.13-.13-.17-.23.3-.91.94-.33.52-.16.36-.27.4-.19.2,0,.13-.35.77-.2.25-.25.05-.22.23a.63.63,0,0,1-.48.65l0,.05a1.21,1.21,0,0,1-.5.67L14.6,54c-.37.34-.61.54-.73.63a.85.85,0,0,1-.27.42l-.18.2c-.05.29-.28.49-.7.6l-.27.08a1,1,0,0,1-.83-.58l-.37-.62.15-.6-.08-.33,0-.05,0-.32-.28-.6.2-.3-.1-.33.2-.35.05-.57-.07-.1.15-.35-.06-.18,0-.4.08-.75a1.54,1.54,0,0,1-.08-.32V49l-.07-.2.07-.8V46.6l.44-.75a2.54,2.54,0,0,1,1,.34.86.86,0,0,1,.3.76v.22l.2.3-.1.53.1,1-.18.47.08.53v.42l-.23.28.23.45-.2.27,0,.28.15.27-.2.53-.07.22V53l.12.25.43-.43a.5.5,0,0,1,.25-.5.46.46,0,0,1,.2-.37l-.08-.08.33-.3.07-.1V51.2l.4-.3.1-.25.23-.15,1-1.1c-.08.1-.36.41-.82.92v0l.05-.17.32-.38.23-.42v-.25l.37-.13,0-.32.1-.1,0-.13V48.3L16.7,48v-.13a.33.33,0,0,1,0-.1c0-.3.17-.46.5-.5a.9.9,0,0,1,.68-.52l.15-.23.05,0a1.22,1.22,0,0,1,.67-.45L19,45.7h.6l.3.35.27.15,0,.07.17,0,.05.53.43.25-.18.55.28.6V49l.2.95,0,.9.22.52.15.65a1,1,0,0,1,.23.43l.45.12V53l.25.28v.07l.1,0,.1.15.1-.13.12,0c.18,0,.38-.17.58-.5l.3-.07.07-.13a.55.55,0,0,1,.3-.3l.18,0,.1-.1,0-.12.08-.1a.84.84,0,0,0,.32-.53l.28-.3,0-.22.17-.4.48-.18.67.23.23.72s0,0,0,.05Z" transform="translate(-3.16 -6.78)"/>
    <path class="cls-10" d="M35.4,53.6a1.23,1.23,0,0,1-.45.75,1.6,1.6,0,0,1-.38.65l-.15,0-.27.48-.45.07-.48.3-.25.45H32.7a1.59,1.59,0,0,1-.45.13l-.15.2h-.23a.8.8,0,0,0-.62.42l-.35-.3h-.3a1.15,1.15,0,0,1-.55-.12h-.43l-.2-.12a1.44,1.44,0,0,1-1.2-.72v-.08l-.3-.15-.15-.42-.3-.2v-.37l-.3-1.09v-.89l.15-.4v-.52l.13-.4,0-.17.18-.3-.05,0a1.09,1.09,0,0,1,.12-.47v-.13l-.07-.6a1,1,0,0,1,.37-.75.28.28,0,0,0,0-.15,2,2,0,0,0-.09-.41,1.85,1.85,0,0,1-.09-.44A1.48,1.48,0,0,1,28,47.3a.65.65,0,0,0,.58.3h.07a.7.7,0,0,1,.23-.23,3.08,3.08,0,0,1,.55-1l.1-.1a3.33,3.33,0,0,1,.15-.57h.2l0-.13.2-.05a1.09,1.09,0,0,1,.16-.23,4.22,4.22,0,0,1,.54-.32,1,1,0,0,1,.3-.32l.25-.1.1-.15a4,4,0,0,1,.85-.23.82.82,0,0,1,.37.1l.13,0,.17.1a3.9,3.9,0,0,0,.6.37L34,45v.1a1.52,1.52,0,0,1,.57,1.27l-.07.25.07.83-.22.15-.25.65-.48.52,0,.4a11.59,11.59,0,0,1-1.48.93.78.78,0,0,1-.7.35h-.07l-.48.3h-.4l-.6.25-.45-.23h-.05a5.91,5.91,0,0,0-.1.61l-.2.15,0,.3-.15.43c0,.4.05.66.05.78l-.09.07c0,.22,0,.38,0,.48a.45.45,0,0,1,0,.08v.07a.38.38,0,0,0,.2.33.51.51,0,0,0,.25.38l.18.15.55.15v.07l.2,0h.85l.5-.07.25-.17.15-.05.25-.37.12,0L33,54a.76.76,0,0,1,.32-.29l.08-.13a.62.62,0,0,0,.57-.52,1.21,1.21,0,0,1,.9-.34h.1A1.58,1.58,0,0,1,35.4,53.6Zm-2.48-7.2a1.14,1.14,0,0,0-.07-.3l-.13,0,0,0h-.1a.18.18,0,0,1-.1,0,.11.11,0,0,1-.07,0h-.08l-.25.17-.22,0-.13.05-.42.55-.28.2-.4.7L30.4,48a1.43,1.43,0,0,1-.35.72l-.1.18a1.1,1.1,0,0,1,.62-.18l.18-.07.07-.23.35,0,.2-.3h.15l.28.1.12-.38h.18v-.27l.32-.08.08-.07,0-.23.32-.47A.85.85,0,0,0,32.92,46.4Z" transform="translate(-3.16 -6.78)"/>
    <path class="cls-10" d="M50.9,54.2a1.11,1.11,0,0,1-.46.72l-.19.08-.18.22-.45.13a.32.32,0,0,1-.25.17.06.06,0,0,1,0,0h-.07a3,3,0,0,1-1.33.27h-.2l-.63-.12-.42-.2-1-.8-.2-.68-.4-.32a.58.58,0,0,0,.07-.33,1.26,1.26,0,0,0-.19-.5l.07-.6v-.1a2.51,2.51,0,0,0-.17-.77l.15-.75-.33.65-.38,0,0,.52a1.06,1.06,0,0,1-.48.1l-.27.6-.33.38a.69.69,0,0,1-.35.25l-.07.05-.9.92h-.1l-.48.57-.45.23-.25.34-.57.18-.83.33-.5-.25a.71.71,0,0,1-.7-.45l-.22-.13a.79.79,0,0,1,0-.2v-.18l-.4-.35.1-.15-.3-.71.1-.1V53a.19.19,0,0,1-.07-.12,2.27,2.27,0,0,1,0-.53l0-.66-.07-.53a1,1,0,0,0,.07-.35.56.56,0,0,0-.1-.33l.28-.2V50l-.1-.82.27-1.6a4.61,4.61,0,0,0-.22-1.18q.07-.8,1-.87l.2.07.35.05.45.51-.2.65V47.9l.07.83-.15.3.08.2-.21.4v.55a5.38,5.38,0,0,1,0,.68l0,.17-.05.38,0,.29v.35a.46.46,0,0,1,.21.38.58.58,0,0,1-.21.4v.09a2.77,2.77,0,0,1,.14.55l.23.23.37-.25a.47.47,0,0,1,.36-.33v-.25a2.27,2.27,0,0,0,.48-.07l0-.23.43-.17.07-.08A1.78,1.78,0,0,1,41.8,52v-.1l.47-.35a1,1,0,0,1,.63-.63,1.78,1.78,0,0,1,.37-.32l.32-.43V50.1l.1-.05.23-.1.13-.35.52-.23.1,0,.17-.18v-.23l.15,0a.89.89,0,0,1,.39-.6l.37-.85.14-.44,0-.1H46l.18-.13-.15-.05a4.07,4.07,0,0,0,.43-.95l.72,0,.58.47.25.4-.28,1.08-.37.5-.31,1-.25.15v.38l-.15.27.08.45-.2.18.1.8,0,1.12h.12v.65l.35.43.33.17,0,.13A2.86,2.86,0,0,1,48,54l.62,0L49,54l.68-.32a1,1,0,0,1,.5-.1C50.65,53.55,50.9,53.77,50.9,54.2Z" transform="translate(-3.16 -6.78)"/>
    <path class="cls-10" d="M60.14,46.67c0,.15-.14.3-.44.43a.88.88,0,0,1-.38.22,4.51,4.51,0,0,0-.5.25l-.53-.17a1.63,1.63,0,0,1-1,.3l-.3-.08-.22.18h-.68l-.43.3a1.41,1.41,0,0,0-.52-.1,1.16,1.16,0,0,1-.35.1A.59.59,0,0,1,54.5,48l-.08.95V51.5l.08.45v.35l.34.75a.23.23,0,0,0-.07.17c0,.12.18.21.55.28l0,.3.17.07.3.2.2.15.35,0a1.38,1.38,0,0,1,.45.08,2.51,2.51,0,0,0,.43-.35.67.67,0,0,1,.43-.2h.14a1.19,1.19,0,0,1,.8-.6,1.25,1.25,0,0,1,.88.32v.18a1,1,0,0,1-.6,1.07,1.22,1.22,0,0,1-1,.68l-.3.27h-.33l-.57.15a2.13,2.13,0,0,1-.57,0,1,1,0,0,1-.43-.1h-.32l-.88-.47-.23-.08-.52-.7-.3-.32L53,52.9l-.2-1.18.07-.3-.22-.27.13-.35-.13-.55.17-.18.05-.32-.07-.3.07-.45-.12-.4.12-.13v-.4L52.67,48l-.47.1-.45-.3h-.08q-.75,0-.75-.81v-.08l-.3-.48.47-.46.63.1L52,46l.48.13H53v-.5l-.32-.7.32-.18-.12-.37,0-.78-.2-.32a.93.93,0,0,1-.18-.5.73.73,0,0,1,.13-.45l.07-.35.2-.2a7.11,7.11,0,0,1,.9-.13.77.77,0,0,1,.88.73l-.08.13a.77.77,0,0,1,.15.43.63.63,0,0,1,0,.12l0,.15,0,.18.1.33,0,.12.05.35-.22.3.13.51-.11.6.2.23-.2.45.78-.13,1.37.13,1.1-.18.38,0,.12,0h1C59.89,46.12,60.14,46.31,60.14,46.67Z" transform="translate(-3.16 -6.78)"/>
    <path class="cls-10" d="M70.69,46.35l-.19.82-.93.13-.5.32-.32-.15-.36.2-.37.15-.25.17v.09l-.52.26-.35.46h-.17a3,3,0,0,1-.58.52l-.35.58-.12.05a6,6,0,0,0-.18.6l-.35.12L65,51l-.2.25,0,.38-.21.07v.38l-.07.07.17.28-.37.15,0,.32L64,53.3l.15.32-.33.45a1.64,1.64,0,0,1,.05.35v.1a.83.83,0,0,0,0,.13l0,.22.42.45L64,55.9l-.3.22-.7.35L62,56.1v-.58l-.1-.22.08-.38a5.93,5.93,0,0,1-.05-.6,1,1,0,0,1,0-.2V54l0-.25a.55.55,0,0,1-.18-.4.82.82,0,0,1,.18-.45c0-.08,0-.33,0-.75L62,52l-.08-.32,0-.3,0-.18.08-.57-.16-.25.1-.28-.1-.32a2.1,2.1,0,0,0,0-.4.83.83,0,0,0-.1-.5l.1-.15-.1-.45L61.54,48l.13-.4-.1-.15-.1-.6v-.2a.57.57,0,0,1-.13-.37c0-.33.37-.62,1.1-.85l.63.12.12.48.25.32-.07.68c.05.33.11.7.17,1.1l.08.4a1,1,0,0,1,.05.27.56.56,0,0,1-.13.33l.08.5,0,.55-.1.25.07.1.05.25a.74.74,0,0,0,.18-.38l.1-.37a.54.54,0,0,1,.22-.23l.1-.37.35-.2,0-.3.28-.3.2-.38a1.75,1.75,0,0,1,.62-.45l.06-.07.22-.35.25-.05.07-.08.1-.15.28-.15.15-.17.15,0,.2-.1.1-.15.3-.15L68,46.1l.59-.2.38,0v0a0,0,0,0,0,0,0h0a.69.69,0,0,0,.3-.1.52.52,0,0,1,.35-.1l.35,0A.66.66,0,0,1,70.69,46.35Z" transform="translate(-3.16 -6.78)"/>
    <path class="cls-10" d="M81,45.52l-.25.33.2.6-.33.37-.12.53-.08.12,0,.13a.72.72,0,0,1-.17.52l0,.08v.1a.81.81,0,0,1,.07.32.62.62,0,0,1,0,.18l0,.1-.1.27.08.3-.21.2.08.35.15.18-.23.2v.4l-.17.4.13.4-.16.2.25.17-.34.58,0,.07.25.05-.18.58v.1a1,1,0,0,1,0,.27l0,.08.41,0,.32.5-.18.37.28,0a1.42,1.42,0,0,1,.17.52l-.37.38a2.15,2.15,0,0,1-.5.35l-.42.22L79.37,56l-.25.12-.78-.89v-.43a3.49,3.49,0,0,1-.14-.92v-.14L78,52.22l.21-1-.16-.6-.42.7-.22.65-.2.11-.35.55-.63.58-.18.3-.55.48-.12.32-.8.51-.85.95-.48.1-.32.25a1.14,1.14,0,0,1-1-.47A1.85,1.85,0,0,1,70.84,54l.13-.08,0-.15,0-.3-.15-.32.15-.36,0-.52.18-.83v-.1a.19.19,0,0,1,0-.1.92.92,0,0,1,0-.25.5.5,0,0,1,0-.2,2.18,2.18,0,0,1,.14-.58l.18-.07a.38.38,0,0,1-.15-.28v-.33a.48.48,0,0,1,.3-.45,1.4,1.4,0,0,1,.28-.5l-.13-.2.3-.38v-.1a1.35,1.35,0,0,1,.33-.87l0-.45.1-.1v-.08a.11.11,0,0,1,0-.07.37.37,0,0,1,.09-.25V46a3.42,3.42,0,0,1,.53-.75,5.76,5.76,0,0,0,.63-.88l.12.13.27-.13.13,0L75,43.9,77,44v.17l.6.13a.74.74,0,0,1,.75.37,1.28,1.28,0,0,1,0-.17v-.1l.53.47.47.1.91-.22.32.62Zm-2.38,1.3-.1-.17-.2,0L77.5,46,77,45.9h-.41l0-.1-.2.1-.22-.1h-.65l.07.1-.57.2-.1.12-.08,0a3.93,3.93,0,0,0-.62.63l-.17.6-.1.22.25.35-.43.33,0,.1a1.83,1.83,0,0,0-.27.92l-.2.25v.45l-.2.23,0,.22L73,50.6V51l-.07.13a1.49,1.49,0,0,1-.06.47l.06.13-.23.47.1.15-.18.25.18.47-.27.36,0,.47v.07l.11,0,.12,0,.25-.23,0-.2.35-.05.07-.17,1.47-1.2.15-.05.18-.43a2.44,2.44,0,0,0,.42-.2l.16-.39H76l-.07-.42.35-.05a1.12,1.12,0,0,1,.16-.25,2.09,2.09,0,0,1,.24-.28l1.27-1.7.2-.37,0-.1.18-.28,0-.27.22-.2Z" transform="translate(-3.16 -6.78)"/>
    <path class="cls-10" d="M90.77,52.92a.56.56,0,0,1-.2.45,2.61,2.61,0,0,1-.65.63l-.25.17-.22.3-.22.1-.35.23-.25,0-.1.1a1.51,1.51,0,0,0-.77.5.56.56,0,0,1-.33.13.47.47,0,0,1-.17,0,2.09,2.09,0,0,1-1.09.25,1.69,1.69,0,0,1-.75-.1L85,55.42l-.15-.25V55.1a.62.62,0,0,0-.28-.53l-.11-.5-.21-.22-.13-.93V52l.08-.15a.69.69,0,0,1-.08-.32c.09-.7.13-1.14.13-1.33L84,49.72l.22-.37.07-.63,0-.42.15-.38-.15-.5.26-.35,0-.22v-2.1l.08-1.08-.08-.2V41.8l.15-1.5a3.84,3.84,0,0,0,.9-.25.72.72,0,0,1,.64.42l0,.2.37.38-.11.52v.1a1.57,1.57,0,0,1-.17.63l.08.52.09.48-.17.52a2.37,2.37,0,0,1-.12.78,3,3,0,0,1,0,.4l0,.15.2.27-.08.28a1,1,0,0,1,.08.27,1,1,0,0,1-.12.4l0,.23-.14.8v.52l-.18.53.1.47L86,50l.07.13-.12.57,0,.7a1.37,1.37,0,0,0-.05.18,6.67,6.67,0,0,1,0,.7l.08.35V53l.15.33,0,.12a1.32,1.32,0,0,1,.27.4h.22l.33.1.14-.2.23,0a.91.91,0,0,1,.22,0h.08a.66.66,0,0,0,.4-.25l.14-.08a.94.94,0,0,1,.58-.37l.47-.4a.58.58,0,0,1,.42-.53A.74.74,0,0,0,90,52a1,1,0,0,1,.63.26A1.3,1.3,0,0,1,90.77,52.92Z" transform="translate(-3.16 -6.78)"/>
  </g>
</svg>
